<svg width="1195" height="705" viewBox="0 0 1195 705" fill="none" xmlns="http://www.w3.org/2000/svg">
<path d="M230.979 525.151C230.982 525.488 230.895 525.93 230.804 526.294C230.171 528.853 227.358 531.724 223.398 531.463C219.81 531.227 216.887 529.504 216.887 527.088C216.887 524.672 219.803 522.714 223.398 522.714C226.994 522.714 230.956 522.735 230.979 525.151V525.151Z" fill="#EA596E"/>
<path d="M223.399 523.119C221.467 523.119 217.059 523.654 216.048 523.654C214.26 523.654 212.811 524.775 212.811 526.159C212.811 526.825 213.152 527.426 213.699 527.874C213.699 527.874 214.899 529.078 217.06 528.501C218.006 528.248 219.545 526.37 222.254 526.072C223.604 525.923 226.132 526.966 230.574 526.992C230.765 526.581 230.804 526.296 230.804 526.296C230.804 523.878 226.994 523.119 223.399 523.119Z" fill="#DD2E44"/>
<path d="M230.804 526.294C230.804 526.294 233.41 525.765 235.03 523.635C236.918 521.15 236.67 518.491 236.67 518.491C238.584 514.912 236.074 511.556 236.074 511.556C235.824 507.778 233.489 506.213 233.489 506.213C231.972 502.609 228.618 501.64 228.618 501.64C225.984 498.559 221.311 498.658 221.311 498.658C221.311 498.658 216.933 497.053 210.923 498.857C209.929 499.155 206.598 499.851 204.162 501.342C196.484 506.042 195.903 513.372 196.011 514.563C196.606 521.224 201.279 522.417 204.261 523.112C204.957 525.001 207.517 528.48 212.114 527.188C217.781 526.195 220.167 524.504 221.559 524.504C222.951 524.504 226.828 525.995 230.804 526.294Z" fill="#F4ABBA"/>
<path d="M216.473 515.584C219.251 514.087 220.756 514.227 222.085 514.347C222.507 514.386 222.907 514.415 223.311 514.413C225.678 514.359 227.595 513.362 228.444 512.397C228.661 512.149 228.636 511.773 228.389 511.555C228.143 511.338 227.767 511.36 227.546 511.608C226.893 512.353 225.281 513.175 223.284 513.22C222.926 513.231 222.567 513.195 222.195 513.16C220.769 513.028 218.999 512.866 215.907 514.535C215.113 514.963 214.025 515.122 212.847 515.241C210.226 511.458 211.803 508.163 212.254 507.378C212.298 507.38 212.341 507.395 212.386 507.395C212.864 507.395 213.343 507.278 213.777 507.032C214.064 506.87 214.165 506.506 214.003 506.22C213.841 505.933 213.477 505.832 213.19 505.994C212.427 506.426 211.422 506.177 210.948 505.437C210.77 505.159 210.401 505.078 210.124 505.257C209.848 505.435 209.767 505.803 209.944 506.08C210.227 506.523 210.626 506.856 211.075 507.079C210.454 508.341 209.274 511.66 211.519 515.371C209.94 515.526 208.358 515.749 207.119 516.547C206.32 517.063 205.503 517.817 204.879 518.684C204.129 518.555 201.381 517.879 200.902 514.829C201.2 514.598 201.441 514.292 201.59 513.916C201.712 513.609 201.561 513.263 201.255 513.141C200.948 513.02 200.602 513.17 200.481 513.477C200.374 513.745 200.182 513.941 199.939 514.026C199.698 514.112 199.425 514.084 199.172 513.943C198.882 513.782 198.521 513.888 198.361 514.174C198.201 514.462 198.305 514.826 198.592 514.986C198.931 515.174 199.294 515.27 199.654 515.27C199.698 515.27 199.74 515.249 199.784 515.247C200.352 518.125 202.627 519.39 204.236 519.773C204.026 520.236 203.884 520.713 203.841 521.195C203.813 521.522 204.055 521.813 204.383 521.842L204.436 521.844C204.742 521.844 205.003 521.611 205.031 521.3C205.159 519.853 206.54 518.341 207.766 517.548C208.916 516.807 210.599 516.651 212.229 516.499C213.81 516.355 215.303 516.217 216.473 515.584ZM231.822 513.79C231.666 514.079 231.773 514.442 232.061 514.598C232.151 514.648 232.25 514.672 232.347 514.672C232.557 514.672 232.761 514.561 232.869 514.363C232.892 514.322 235.067 510.248 230.995 507.511C230.723 507.329 230.352 507.4 230.167 507.673C229.984 507.946 230.056 508.317 230.33 508.501C233.484 510.622 231.891 513.661 231.822 513.79V513.79ZM207.096 504.158C207.282 504.158 207.464 504.072 207.58 503.91C209.31 501.504 211.705 502.327 211.807 502.365C212.116 502.477 212.456 502.32 212.57 502.012C212.685 501.703 212.527 501.361 212.218 501.246C211.073 500.822 208.428 500.688 206.611 503.215C206.419 503.481 206.48 503.854 206.747 504.046C206.853 504.123 206.975 504.158 207.096 504.158V504.158ZM222.69 501.906C225.344 501.69 226.552 503.614 226.606 503.705C226.719 503.893 226.917 503.998 227.121 503.998C227.223 503.998 227.328 503.972 227.422 503.916C227.706 503.749 227.802 503.384 227.636 503.1C227.572 502.992 226.037 500.454 222.597 500.717C222.269 500.742 222.024 501.029 222.049 501.358C222.076 501.686 222.373 501.936 222.69 501.906V501.906ZM233.606 519.336C233.312 519.32 232.989 519.552 232.963 519.882C232.96 519.903 232.77 521.932 230.684 522.618C230.371 522.721 230.201 523.057 230.305 523.371C230.386 523.621 230.621 523.781 230.871 523.781C230.933 523.781 230.995 523.772 231.057 523.751C233.887 522.823 234.142 520.096 234.152 519.981C234.177 519.651 233.934 519.363 233.606 519.336V519.336Z" fill="#EA596E"/>
<path d="M204.078 513.54C203.993 513.858 204.181 514.185 204.5 514.271C204.551 514.285 204.603 514.291 204.655 514.291C204.918 514.291 205.158 514.116 205.23 513.85C205.456 513.002 206.336 512.458 207.2 512.64C207.524 512.706 207.839 512.502 207.907 512.179C207.975 511.856 207.768 511.54 207.445 511.472C206.937 511.365 206.426 511.415 205.956 511.575C204.565 509.196 204.836 506.851 204.84 506.826C204.883 506.5 204.653 506.201 204.328 506.155C204.003 506.116 203.703 506.339 203.657 506.665C203.642 506.78 203.323 509.428 204.925 512.169C204.527 512.528 204.224 512.997 204.078 513.54V513.54ZM217.415 510.593C217.9 510.143 218.679 510.152 219.15 510.611C219.267 510.723 219.416 510.779 219.567 510.779C219.723 510.779 219.878 510.718 219.994 510.598C220.223 510.362 220.218 509.983 219.982 509.754C219.707 509.488 219.379 509.311 219.031 509.2C219.384 507.988 219.245 507.45 218.917 506.442C218.859 506.266 218.796 506.071 218.729 505.847L218.693 505.728C218.259 504.287 217.972 503.336 218.797 501.994C218.97 501.714 218.882 501.346 218.602 501.173C218.326 501.002 217.955 501.086 217.781 501.369C216.674 503.168 217.081 504.515 217.552 506.074L217.588 506.193C217.658 506.425 217.722 506.628 217.782 506.81C218.077 507.718 218.166 508.022 217.806 509.12C217.366 509.202 216.945 509.401 216.601 509.721C216.36 509.945 216.347 510.323 216.571 510.564C216.797 510.805 217.175 510.817 217.415 510.593ZM225.008 507.032C225.355 507.032 225.706 506.959 226.033 506.804C226.331 506.663 226.458 506.308 226.318 506.01C226.178 505.711 225.818 505.587 225.524 505.725C224.925 506.006 224.187 505.762 223.873 505.179C223.717 504.888 223.353 504.782 223.066 504.935C222.776 505.09 222.666 505.453 222.822 505.743C223.037 506.143 223.357 506.459 223.729 506.679C223.088 508.236 223.452 509.889 223.749 510.766C223.833 511.015 224.065 511.172 224.315 511.172C224.378 511.172 224.441 511.162 224.506 511.141C224.818 511.036 224.985 510.697 224.879 510.386C224.679 509.791 224.29 508.291 224.877 507.014C224.922 507.017 224.964 507.032 225.008 507.032V507.032ZM230.73 518.281C230.708 517.952 230.424 517.694 230.097 517.723C228.887 517.809 227.857 516.892 227.774 515.692C227.75 515.364 227.458 515.119 227.138 515.137C226.81 515.16 226.562 515.445 226.584 515.773C226.633 516.477 226.901 517.111 227.309 517.628C226.35 518.757 225.094 519.077 224.393 519.16C223.774 519.234 223.233 519.17 222.606 519.097C222.033 519.031 221.384 518.956 220.581 518.98L220.575 518.981C220.551 518.64 220.47 518.142 220.211 517.728C220.037 517.45 219.668 517.366 219.389 517.54C219.111 517.714 219.025 518.082 219.2 518.362C219.36 518.618 219.39 519.027 219.39 519.227C218.789 519.442 218.269 519.76 217.799 520.066C216.959 520.613 216.297 521.045 215.301 520.82C214.399 520.614 213.496 520.572 212.73 520.68C212.611 520.38 212.422 520.022 212.131 519.747C211.891 519.52 211.514 519.53 211.288 519.771C211.062 520.009 211.072 520.387 211.311 520.614C211.414 520.711 211.495 520.851 211.561 520.992C210.245 521.534 209.585 522.439 209.554 522.483C209.363 522.751 209.427 523.119 209.691 523.311C209.796 523.386 209.918 523.423 210.04 523.423C210.225 523.423 210.407 523.339 210.524 523.179C210.53 523.169 211.185 522.292 212.477 521.938C213.145 521.754 214.103 521.77 215.037 521.982C215.298 522.042 215.54 522.062 215.775 522.066C215.886 522.326 215.929 522.635 215.935 522.749C215.954 523.067 216.217 523.312 216.531 523.312L216.563 523.311C216.891 523.293 217.143 523.015 217.127 522.687C217.124 522.628 217.1 522.275 216.972 521.869C217.522 521.67 218 521.358 218.45 521.066C219.132 520.621 219.778 520.2 220.621 520.173C221.328 520.148 221.91 520.216 222.472 520.281C223.037 520.347 223.593 520.39 224.206 520.354C224.315 520.656 224.306 521.059 224.29 521.194C224.25 521.519 224.481 521.818 224.807 521.861C224.832 521.864 224.857 521.865 224.883 521.865C225.177 521.865 225.434 521.647 225.473 521.346C225.483 521.272 225.543 520.736 225.403 520.176C226.259 519.946 227.321 519.446 228.2 518.421C228.714 518.736 229.314 518.921 229.953 518.921C230.027 518.921 230.102 518.919 230.176 518.914C230.504 518.893 230.752 518.61 230.73 518.281V518.281Z" fill="#EA596E"/>
<path d="M784.489 80.5754C784.491 80.7442 784.448 80.9649 784.402 81.1469C784.085 82.4263 782.679 83.862 780.699 83.7314C778.905 83.6133 777.444 82.752 777.444 81.5441C777.444 80.3362 778.901 79.3568 780.699 79.3568C782.497 79.3568 784.478 79.3676 784.489 80.5754Z" fill="#EA596E"/>
<path d="M780.699 79.5596C779.734 79.5596 777.53 79.8268 777.024 79.8268C776.13 79.8268 775.405 80.3875 775.405 81.0794C775.405 81.4123 775.576 81.7129 775.849 81.9372C775.849 81.9372 776.449 82.539 777.53 82.2503C778.003 82.1239 778.773 81.185 780.127 81.0359C780.802 80.9613 782.066 81.4833 784.287 81.4958C784.382 81.2906 784.402 81.148 784.402 81.148C784.402 79.939 782.497 79.5596 780.699 79.5596Z" fill="#DD2E44"/>
<path d="M784.402 81.1469C784.402 81.1469 785.705 80.8826 786.515 79.8173C787.459 78.5748 787.335 77.2453 787.335 77.2453C788.292 75.4558 787.037 73.7779 787.037 73.7779C786.912 71.8889 785.744 71.1063 785.744 71.1063C784.986 69.3043 783.309 68.82 783.309 68.82C781.992 67.2793 779.655 67.3288 779.655 67.3288C779.655 67.3288 777.466 66.5265 774.461 67.4284C773.964 67.5775 772.299 67.9253 771.081 68.6709C767.242 71.021 766.952 74.6858 767.005 75.2817C767.303 78.6118 769.639 79.2083 771.131 79.556C771.478 80.5003 772.758 82.2402 775.057 81.5942C777.89 81.0973 779.083 80.2521 779.779 80.2521C780.476 80.2521 782.414 80.9977 784.402 81.1469Z" fill="#F4ABBA"/>
<path d="M777.237 75.7922C778.625 75.0437 779.378 75.1134 780.043 75.1737C780.254 75.1928 780.453 75.2077 780.656 75.2065C781.839 75.1797 782.798 74.681 783.222 74.1984C783.33 74.0744 783.318 73.8865 783.194 73.7773C783.071 73.6688 782.884 73.6801 782.773 73.8042C782.446 74.1764 781.64 74.5874 780.642 74.61C780.463 74.6154 780.283 74.5975 780.097 74.5802C779.385 74.514 778.499 74.4329 776.953 75.2673C776.557 75.4815 776.013 75.5608 775.423 75.6205C774.113 73.729 774.901 72.0815 775.127 71.6891C775.149 71.6902 775.17 71.6974 775.193 71.6974C775.432 71.6974 775.672 71.639 775.889 71.5161C776.032 71.435 776.082 71.253 776.001 71.1099C775.92 70.9667 775.738 70.916 775.595 70.9971C775.213 71.2131 774.711 71.0884 774.474 70.7186C774.385 70.5796 774.201 70.539 774.062 70.6285C773.924 70.7174 773.883 70.9017 773.972 71.0401C774.113 71.2614 774.313 71.4278 774.538 71.5393C774.227 72.1704 773.637 73.8298 774.759 75.6855C773.97 75.763 773.179 75.8746 772.56 76.2736C772.16 76.5313 771.751 76.9083 771.439 77.3419C771.064 77.2775 769.691 76.9393 769.451 75.4147C769.6 75.299 769.72 75.1463 769.795 74.9578C769.856 74.8045 769.781 74.6315 769.627 74.5707C769.474 74.5098 769.301 74.585 769.24 74.7383C769.187 74.8725 769.091 74.9703 768.969 75.0132C768.849 75.0562 768.712 75.0419 768.586 74.9715C768.441 74.891 768.26 74.944 768.18 75.0872C768.1 75.231 768.152 75.4129 768.296 75.4928C768.465 75.5871 768.647 75.6348 768.827 75.6348C768.849 75.6348 768.87 75.6246 768.892 75.6234C769.176 77.0627 770.313 77.695 771.118 77.8865C771.013 78.1179 770.942 78.3565 770.921 78.5975C770.906 78.7609 771.027 78.9065 771.191 78.9208L771.218 78.922C771.371 78.922 771.502 78.8057 771.515 78.65C771.58 77.9265 772.27 77.1707 772.883 76.7741C773.458 76.4036 774.3 76.3255 775.114 76.2497C775.905 76.1776 776.652 76.1084 777.237 75.7922ZM784.911 74.8951C784.833 75.0395 784.887 75.2208 785.03 75.299C785.076 75.324 785.125 75.3359 785.173 75.3359C785.278 75.3359 785.38 75.2805 785.435 75.1814C785.446 75.1612 786.533 73.1242 784.498 71.7553C784.362 71.6646 784.176 71.6998 784.084 71.8364C783.992 71.973 784.028 72.1585 784.165 72.2503C785.742 73.3109 784.946 74.8307 784.911 74.8951ZM772.548 70.0792C772.641 70.0792 772.732 70.0362 772.79 69.9551C773.655 68.752 774.853 69.1636 774.903 69.1826C775.058 69.2387 775.228 69.16 775.285 69.0061C775.342 68.8516 775.264 68.6804 775.109 68.6231C774.536 68.4108 773.214 68.344 772.306 69.6073C772.21 69.7404 772.24 69.9271 772.374 70.0231C772.427 70.0613 772.487 70.0792 772.548 70.0792ZM780.345 68.953C781.672 68.845 782.276 69.8072 782.303 69.8525C782.359 69.9467 782.458 69.9992 782.56 69.9992C782.612 69.9992 782.664 69.9861 782.711 69.9581C782.853 69.8746 782.901 69.692 782.818 69.5501C782.786 69.4958 782.019 68.2271 780.298 68.3583C780.134 68.3708 780.012 68.5146 780.025 68.6792C780.038 68.8432 780.186 68.9679 780.345 68.953ZM785.803 77.6682C785.656 77.6598 785.494 77.7761 785.481 77.9408C785.48 77.9515 785.385 78.9661 784.342 79.3091C784.186 79.3604 784.1 79.5286 784.152 79.6855C784.193 79.8107 784.31 79.8907 784.436 79.8907C784.467 79.8907 784.498 79.8859 784.529 79.8757C785.943 79.4117 786.071 78.0481 786.076 77.9903C786.088 77.8256 785.967 77.6813 785.803 77.6682Z" fill="#EA596E"/>
<path d="M771.039 74.7699C770.996 74.9291 771.091 75.0926 771.25 75.1355C771.275 75.1427 771.302 75.1457 771.327 75.1457C771.459 75.1457 771.579 75.058 771.615 74.925C771.728 74.5009 772.168 74.2289 772.6 74.3201C772.762 74.3529 772.919 74.2509 772.953 74.0893C772.987 73.9282 772.884 73.7702 772.723 73.7362C772.468 73.6825 772.213 73.7075 771.978 73.7875C771.283 72.5981 771.418 71.4254 771.42 71.4129C771.441 71.25 771.327 71.1003 771.164 71.0777C771.002 71.058 770.851 71.1695 770.829 71.3324C770.821 71.3902 770.662 72.7138 771.463 74.0845C771.264 74.2641 771.112 74.4985 771.039 74.7699ZM777.707 73.2966C777.95 73.0717 778.34 73.0759 778.575 73.3055C778.634 73.3616 778.708 73.3896 778.783 73.3896C778.862 73.3896 778.939 73.3592 778.997 73.299C779.111 73.1808 779.109 72.9918 778.991 72.8772C778.854 72.7442 778.69 72.6553 778.516 72.5999C778.692 71.9939 778.622 71.7248 778.458 71.2208C778.43 71.1331 778.398 71.0353 778.365 70.9238L778.347 70.8641C778.13 70.1436 777.986 69.6682 778.399 68.9971C778.485 68.857 778.441 68.6732 778.301 68.5868C778.163 68.5009 777.978 68.5432 777.89 68.6846C777.337 69.5841 777.54 70.2575 777.776 71.0371L777.794 71.0967C777.829 71.2125 777.861 71.3139 777.891 71.4051C778.038 71.859 778.083 72.0111 777.903 72.5599C777.683 72.6011 777.472 72.7007 777.301 72.8605C777.18 72.9727 777.173 73.1618 777.286 73.2822C777.398 73.4027 777.587 73.4087 777.707 73.2966ZM781.504 71.5161C781.678 71.5161 781.853 71.4797 782.016 71.4021C782.165 71.3318 782.229 71.154 782.159 71.0049C782.089 70.8558 781.909 70.7937 781.762 70.8623C781.463 71.0031 781.094 70.8808 780.937 70.5897C780.859 70.4442 780.677 70.3911 780.533 70.4675C780.388 70.545 780.333 70.7263 780.411 70.8713C780.519 71.0717 780.678 71.2298 780.865 71.3395C780.544 72.1179 780.726 72.9446 780.875 73.3831C780.916 73.5077 781.033 73.5859 781.157 73.5859C781.189 73.5859 781.221 73.5811 781.253 73.5703C781.409 73.5179 781.493 73.3485 781.44 73.1928C781.339 72.8957 781.145 72.1454 781.438 71.5071C781.461 71.5083 781.482 71.5161 781.504 71.5161ZM784.365 77.1403C784.354 76.9763 784.212 76.8468 784.049 76.8617C783.444 76.9047 782.928 76.446 782.887 75.8459C782.875 75.6819 782.729 75.5596 782.569 75.5686C782.405 75.5799 782.281 75.7225 782.292 75.8865C782.316 76.2384 782.451 76.5557 782.655 76.814C782.175 77.3783 781.547 77.5387 781.197 77.5799C780.887 77.6169 780.616 77.5853 780.303 77.5483C780.016 77.5155 779.692 77.4779 779.29 77.4898L779.287 77.4904C779.275 77.3198 779.235 77.0711 779.105 76.8641C779.018 76.7251 778.834 76.6828 778.695 76.7699C778.556 76.857 778.513 77.0413 778.6 77.1808C778.68 77.3091 778.695 77.5137 778.695 77.6133C778.394 77.7213 778.134 77.8799 777.899 78.0332C777.479 78.3064 777.148 78.5223 776.65 78.4102C776.199 78.307 775.748 78.2861 775.365 78.3398C775.305 78.1901 775.211 78.0111 775.066 77.8734C774.946 77.76 774.757 77.7648 774.644 77.8853C774.531 78.0046 774.536 78.1937 774.656 78.307C774.707 78.3553 774.748 78.4257 774.78 78.4961C774.122 78.7669 773.793 79.2196 773.777 79.2417C773.682 79.3753 773.713 79.5596 773.846 79.6556C773.898 79.6932 773.959 79.7117 774.02 79.7117C774.112 79.7117 774.204 79.6694 774.262 79.5894C774.265 79.5847 774.593 79.1462 775.239 78.9691C775.573 78.8772 776.052 78.885 776.519 78.9912C776.649 79.021 776.77 79.0311 776.888 79.0329C776.943 79.163 776.965 79.3174 776.968 79.3747C776.977 79.5334 777.108 79.6562 777.265 79.6562L777.281 79.6556C777.445 79.6467 777.571 79.5077 777.564 79.3437C777.562 79.3139 777.55 79.1373 777.486 78.9345C777.761 78.8349 778 78.6792 778.225 78.5331C778.566 78.3106 778.889 78.1 779.311 78.0863C779.664 78.0738 779.955 78.1078 780.236 78.1406C780.519 78.1734 780.797 78.1949 781.103 78.177C781.157 78.3279 781.153 78.5295 781.145 78.5969C781.125 78.7597 781.24 78.9088 781.404 78.9303C781.416 78.9321 781.429 78.9327 781.441 78.9327C781.589 78.9327 781.717 78.8236 781.737 78.6732C781.741 78.6363 781.772 78.3678 781.701 78.0881C782.13 77.973 782.661 77.723 783.1 77.2107C783.357 77.3681 783.657 77.4606 783.976 77.4606C784.013 77.4606 784.051 77.4594 784.088 77.457C784.252 77.4463 784.376 77.3049 784.365 77.1403Z" fill="#EA596E"/>
<path d="M121 677C121 683.627 115.627 689 109 689C102.373 689 97 683.627 97 677C97 670.373 102.373 665 109 665C115.627 665 121 670.373 121 677Z" fill="#FFCB4C"/>
<path d="M105.117 677.277C106.092 677.277 106.882 676.171 106.882 674.807C106.882 673.442 106.092 672.336 105.117 672.336C104.143 672.336 103.353 673.442 103.353 674.807C103.353 676.171 104.143 677.277 105.117 677.277Z" fill="#65471B"/>
<path d="M113.588 679.117C116.122 679.117 118.176 677.063 118.176 674.529C118.176 671.995 116.122 669.941 113.588 669.941C111.054 669.941 109 671.995 109 674.529C109 677.063 111.054 679.117 113.588 679.117Z" fill="#F4F7F9"/>
<path d="M106.883 671.631C106.669 671.631 106.457 671.533 106.318 671.349C105.657 670.468 104.966 669.996 104.263 669.946C103.336 669.883 102.581 670.577 102.44 670.718C102.164 670.994 101.717 670.994 101.442 670.718C101.166 670.442 101.166 669.995 101.442 669.72C101.747 669.415 102.861 668.429 104.363 668.538C105.493 668.618 106.53 669.279 107.447 670.501C107.681 670.813 107.618 671.256 107.307 671.489C107.179 671.585 107.03 671.631 106.883 671.631Z" fill="#65471B"/>
<path d="M118.883 689C118.493 689 118.177 688.684 118.177 688.294V674.883C118.177 674.493 118.493 674.177 118.883 674.177C119.273 674.177 119.589 674.493 119.589 674.883V688.295C119.588 688.684 119.273 689 118.883 689Z" fill="#292F33"/>
<path d="M118.883 673.471C118.847 673.471 118.813 673.479 118.777 673.481C118.289 671.063 116.149 669.235 113.588 669.235C110.669 669.235 108.294 671.61 108.294 674.529C108.294 677.449 110.669 679.823 113.588 679.823C115.9 679.823 117.865 678.331 118.585 676.261C118.681 676.282 118.78 676.294 118.882 676.294C119.662 676.294 120.294 675.662 120.294 674.882C120.294 674.103 119.662 673.471 118.883 673.471V673.471ZM113.588 678.412C111.447 678.412 109.706 676.671 109.706 674.529C109.706 672.388 111.448 670.647 113.588 670.647C115.729 670.647 117.471 672.388 117.471 674.529C117.471 676.671 115.729 678.412 113.588 678.412Z" fill="#67757F"/>
<path d="M111.117 684.059C111.011 684.059 110.903 684.035 110.801 683.984C109.589 683.377 108.41 683.377 107.197 683.984C106.848 684.158 106.424 684.017 106.25 683.668C106.075 683.319 106.217 682.895 106.566 682.721C108.18 681.914 109.817 681.914 111.433 682.721C111.781 682.895 111.923 683.319 111.749 683.668C111.625 683.916 111.376 684.059 111.117 684.059V684.059Z" fill="#65471B"/>
<path d="M115.699 671.274C115.091 670.879 114.367 670.647 113.588 670.647C111.444 670.647 109.705 672.385 109.705 674.53C109.705 675.309 109.937 676.033 110.332 676.641L115.699 671.274ZM111.931 678.037C112.435 678.275 112.995 678.412 113.588 678.412C115.732 678.412 117.471 676.674 117.471 674.529C117.471 673.936 117.333 673.375 117.095 672.873L111.931 678.037Z" fill="#BDDDF4"/>
<path d="M1021.33 111.889C1021.33 114.343 1019.34 116.333 1016.89 116.333H992.444C989.99 116.333 988 114.343 988 111.889V87.4444C988 84.99 989.99 83 992.444 83H1016.89C1019.34 83 1021.33 84.99 1021.33 87.4444V111.889Z" fill="#D99E82"/>
<path d="M1019.11 111.889C1019.11 113.116 1018.12 114.111 1016.89 114.111H992.444C991.218 114.111 990.222 113.116 990.222 111.889V87.4444C990.222 86.2166 991.218 85.2222 992.444 85.2222H1016.89C1018.12 85.2222 1019.11 86.2166 1019.11 87.4444V111.889Z" fill="#5C913B"/>
<path d="M996.35 92.8866C996.261 92.9933 996.145 93.1533 996.145 93.34C996.145 93.7489 996.448 93.9266 996.839 93.9266H999.805C1000.14 93.9266 1000.45 93.7489 1000.45 93.34C1000.45 92.9311 1000.14 92.7533 999.752 92.7533H998.127C998.881 91.8033 1000.26 90.5777 1000.26 89.3422C1000.26 88.2144 999.379 87.4944 998.287 87.4944C997.194 87.4944 996.199 88.3911 996.199 89.5111C996.199 89.8566 996.421 90.1589 996.848 90.1589C997.701 90.1589 997.212 88.72 998.233 88.72C998.598 88.72 998.873 89.04 998.873 89.4044C998.873 89.7244 998.722 90 998.562 90.2311C997.887 91.2077 997.088 92.0077 996.35 92.8866V92.8866ZM994.898 98.9233H993.61V97.6344C993.61 97.3144 993.405 97.1022 993.077 97.1022C992.749 97.1022 992.544 97.3155 992.544 97.6344V98.9233H991.257C990.928 98.9233 990.723 99.1366 990.723 99.4555C990.723 99.7755 990.928 99.9889 991.257 99.9889H992.544V101.277C992.544 101.597 992.749 101.809 993.077 101.809C993.405 101.809 993.61 101.597 993.61 101.277V99.9889H994.898C995.227 99.9889 995.431 99.7755 995.431 99.4555C995.431 99.1366 995.227 98.9233 994.898 98.9233V98.9233ZM999.752 100.531H998.125C998.881 99.5811 1000.26 98.3555 1000.26 97.12C1000.26 95.9922 999.378 95.2722 998.285 95.2722C997.193 95.2722 996.198 96.17 996.198 97.2889C996.198 97.6344 996.42 97.9366 996.845 97.9366C997.699 97.9366 997.21 96.4977 998.232 96.4977C998.597 96.4977 998.872 96.8177 998.872 97.1822C998.872 97.5022 998.721 97.7777 998.561 98.0089C997.885 98.9855 997.087 99.7855 996.349 100.666C996.26 100.772 996.144 100.932 996.144 101.119C996.144 101.528 996.447 101.706 996.838 101.706H999.804C1000.14 101.706 1000.44 101.528 1000.44 101.119C1000.44 100.709 1000.14 100.531 999.752 100.531V100.531ZM1000.69 104.078H991.425C991.119 104.078 990.87 103.829 990.87 103.522C990.87 103.216 991.119 102.967 991.425 102.967H1000.68C1000.99 102.967 1001.24 103.216 1001.24 103.522C1001.24 103.829 1000.99 104.078 1000.69 104.078Z" fill="white"/>
<path d="M1026.89 123V119.111C1026.89 115.429 1022.79 113 1019.11 113H1005.78C1002.1 113 998 115.429 998 119.111V123H1026.89Z" fill="#9266CC"/>
<path d="M1012.38 88.6323C1016.94 88.6323 1024.55 90.9134 1024.55 100.797C1024.55 110.68 1024.55 112.961 1022.27 112.961C1019.98 112.961 1016.94 110.68 1012.38 110.68C1007.82 110.68 1004.84 112.961 1002.5 112.961C999.957 112.961 1000.22 103.838 1000.22 100.797C1000.22 90.9134 1007.82 88.6323 1012.38 88.6323V88.6323ZM1006.89 113H1017.86C1017.86 113 1016.47 116.889 1012.37 116.889C1008.28 116.889 1006.89 113 1006.89 113Z" fill="#292F33"/>
<path d="M1008.36 113.022C1008.36 114.667 1010.78 115.778 1012.44 115.778C1014.11 115.778 1016.51 114.667 1016.51 113.022V109.461H1008.36V113.022V113.022Z" fill="#F7DECE"/>
<path d="M1008.36 110.977C1009.49 112.26 1010.9 112.608 1012.43 112.608C1013.97 112.608 1015.37 112.261 1016.51 110.977V107.714H1008.36V110.977V110.977Z" fill="#EEC2AD"/>
<path d="M1003.26 100.463C1003.26 93.9811 1007.34 88.7266 1012.38 88.7266C1017.42 88.7266 1021.51 93.9811 1021.51 100.463C1021.51 106.944 1017.42 111.892 1012.38 111.892C1007.34 111.892 1003.26 106.946 1003.26 100.463" fill="#F7DECE"/>
<path d="M1012.38 109.159C1010.6 109.159 1009.66 108.277 1009.56 108.176C1009.27 107.879 1009.27 107.398 1009.56 107.101C1009.86 106.807 1010.33 106.804 1010.63 107.093C1010.67 107.129 1011.25 107.639 1012.38 107.639C1013.54 107.639 1014.11 107.113 1014.13 107.092C1014.44 106.808 1014.92 106.817 1015.2 107.114C1015.49 107.413 1015.49 107.882 1015.2 108.176C1015.1 108.277 1014.17 109.159 1012.38 109.159" fill="#DF1F32"/>
<path d="M1001.03 104.111C1001 103 1000.98 103.862 1000.98 103.594C1000.98 99.7922 1003.26 104.143 1003.26 101.436C1003.26 98.7256 1004.78 98.4544 1006.3 96.9344C1007.06 96.1733 1008.58 94.6833 1008.58 94.6833C1008.58 94.6833 1012.38 96.98 1015.42 96.98C1018.46 96.98 1021.51 98.5078 1021.51 101.549C1021.51 104.59 1023.79 99.7889 1023.79 103.59C1023.79 103.861 1023.76 103 1023.74 104.111H1024.54C1024.55 101.889 1024.55 101.973 1024.55 100.553C1024.55 90.67 1016.94 86.99 1012.38 86.99C1007.82 86.99 1000.22 90.6089 1000.22 100.492C1000.22 101.373 1000.2 101.889 1000.23 104.111H1001.03V104.111Z" fill="#292F33"/>
<path d="M1008.68 102.873C1008.16 102.873 1007.74 102.45 1007.74 101.933V100.994C1007.74 100.478 1008.16 100.054 1008.68 100.054C1009.19 100.054 1009.62 100.478 1009.62 100.994V101.933C1009.62 102.45 1009.19 102.873 1008.68 102.873ZM1016.19 102.873C1015.68 102.873 1015.25 102.45 1015.25 101.933V100.994C1015.25 100.478 1015.68 100.054 1016.19 100.054C1016.71 100.054 1017.13 100.478 1017.13 100.994V101.933C1017.13 102.45 1016.71 102.873 1016.19 102.873Z" fill="#662113"/>
<path d="M1013.37 105.778H1011.5C1011.24 105.778 1011.03 105.567 1011.03 105.308V105.138C1011.03 104.879 1011.24 104.667 1011.5 104.667H1013.37C1013.63 104.667 1013.84 104.878 1013.84 105.138V105.308C1013.84 105.567 1013.63 105.778 1013.37 105.778Z" fill="#C1694F"/>
<path d="M1005.16 100.707C1005.16 102.316 1004.34 103.62 1003.34 103.62C1002.33 103.62 1001.52 102.316 1001.52 100.707C1001.52 99.0978 1002.33 97.7922 1003.34 97.7922C1004.34 97.7911 1005.16 99.0967 1005.16 100.707ZM1023.37 100.707C1023.37 102.316 1022.56 103.62 1021.55 103.62C1020.54 103.62 1019.73 102.316 1019.73 100.707C1019.73 99.0978 1020.54 97.7922 1021.55 97.7922C1022.56 97.7911 1023.37 99.0967 1023.37 100.707Z" fill="#F7DECE"/>
<path d="M1012.44 116.58C1012.44 116.58 1016.2 119.351 1016.99 119.666C1017.17 119.734 1016.59 115.603 1016.59 115.603H1008.3C1008.3 115.603 1007.72 119.804 1008.04 119.631C1008.76 119.251 1012.44 116.58 1012.44 116.58" fill="#744EAA"/>
<path d="M1007.21 111.797C1007.84 112.426 1012.44 115.556 1012.44 115.556C1012.44 115.556 1010.08 116.936 1007.9 119.483C1007.69 119.739 1006.19 114.344 1006.14 113.14C1006.13 112.803 1006.91 111.496 1007.21 111.797ZM1017.7 111.797C1017.07 112.426 1012.47 115.556 1012.47 115.556C1012.47 115.556 1014.83 116.936 1017.01 119.483C1017.22 119.739 1018.72 114.344 1018.76 113.14C1018.78 112.803 1018 111.496 1017.7 111.797Z" fill="#CBB7EA"/>
<path d="M1011.33 116.333H1013.56V123H1011.33V116.333Z" fill="#744EAA"/>
<path d="M1012.44 122.444C1013.06 122.444 1013.56 121.947 1013.56 121.333C1013.56 120.72 1013.06 120.222 1012.44 120.222C1011.83 120.222 1011.33 120.72 1011.33 121.333C1011.33 121.947 1011.83 122.444 1012.44 122.444Z" fill="#CBB7EA"/>
<path d="M1012.44 119.111C1013.06 119.111 1013.56 118.614 1013.56 118C1013.56 117.386 1013.06 116.889 1012.44 116.889C1011.83 116.889 1011.33 117.386 1011.33 118C1011.33 118.614 1011.83 119.111 1012.44 119.111Z" fill="#CBB7EA"/>
<path d="M38.9861 132V128.056C38.9861 124.322 34.834 121.859 31.0988 121.859H17.5778C13.8448 121.859 9.69049 124.322 9.69049 128.056V132H38.9861Z" fill="#292F33"/>
<path d="M13.1835 129.004C13.4663 129.004 13.6353 132 13.6353 132H12.5582C12.5582 132 12.7756 129.004 13.1835 129.004ZM16.5638 129.004C16.8466 129.004 17.0156 132 17.0156 132H15.9373C15.9384 132 16.1559 129.004 16.5638 129.004V129.004ZM32.1636 129.004C31.882 129.004 31.7129 132 31.7129 132H32.789C32.789 132 32.5715 129.004 32.1636 129.004ZM35.5439 129.004C35.2622 129.004 35.0932 132 35.0932 132H36.1692C36.1692 132 35.9518 129.004 35.5439 129.004Z" fill="#66757F"/>
<path d="M24.3383 130.21C28.9332 128.015 30.6706 121.859 30.6706 121.859H18.0059C18.0059 121.859 19.7434 128.015 24.3383 130.21Z" fill="#9266CC"/>
<path d="M18.7046 121.859H29.8313C29.8313 121.859 28.4161 125.803 24.2674 125.803C20.1187 125.803 18.7046 121.859 18.7046 121.859Z" fill="#744EAA"/>
<path d="M24.2752 97.1484C28.9016 97.1484 36.6109 99.4616 36.6109 109.484C36.6109 119.507 36.6109 121.82 34.2976 121.82C31.9833 121.82 28.9005 119.507 24.2741 119.507C19.6487 119.507 16.6302 121.82 14.2516 121.82C11.6747 121.82 11.9384 112.568 11.9384 109.484C11.9406 99.4616 19.6499 97.1484 24.2752 97.1484" fill="#292F33"/>
<path d="M20.201 121.882C20.201 123.549 22.6484 124.113 24.3385 124.113C26.0286 124.113 28.4624 123.549 28.4624 121.882V118.271H20.201V121.882V121.882Z" fill="#F7DECE"/>
<path d="M20.193 119.807C21.3456 121.109 22.7744 121.461 24.327 121.461C25.8808 121.461 27.3095 121.11 28.4622 119.807V116.499H20.193V119.807V119.807Z" fill="#EEC2AD"/>
<path d="M15.0245 109.146C15.0245 102.573 19.1665 97.2442 24.2752 97.2442C29.3839 97.2442 33.5269 102.573 33.5269 109.146C33.5269 115.718 29.3839 120.736 24.2752 120.736C19.1665 120.736 15.0245 115.72 15.0245 109.146" fill="#F7DECE"/>
<path d="M24.2753 117.964C22.4669 117.964 21.5193 117.069 21.4179 116.967C21.1159 116.666 21.1159 116.178 21.4179 115.877C21.7176 115.579 22.1976 115.576 22.4995 115.869C22.539 115.906 23.1226 116.423 24.2753 116.423C25.446 116.423 26.0297 115.89 26.0522 115.868C26.3598 115.58 26.8443 115.589 27.1372 115.891C27.4302 116.194 27.4302 116.669 27.1327 116.967C27.0325 117.069 26.086 117.964 24.2753 117.964" fill="#DF1F32"/>
<path d="M20.5163 111.59C19.9924 111.59 19.5631 111.161 19.5631 110.637V109.685C19.5631 109.161 19.9924 108.731 20.5163 108.731C21.0402 108.731 21.4707 109.161 21.4707 109.685V110.637C21.4707 111.161 21.0402 111.59 20.5163 111.59ZM28.1388 111.59C27.6148 111.59 27.1855 111.161 27.1855 110.637V109.685C27.1855 109.161 27.6148 108.731 28.1388 108.731C28.6627 108.731 29.092 109.161 29.092 109.685V110.637C29.092 111.161 28.6627 111.59 28.1388 111.59Z" fill="#662113"/>
<path d="M25.2814 114.535H23.3761C23.1135 114.535 22.8995 114.321 22.8995 114.059V113.886C22.8995 113.624 23.1124 113.409 23.3761 113.409H25.2814C25.5428 113.409 25.758 113.623 25.758 113.886V114.059C25.758 114.321 25.5428 114.535 25.2814 114.535Z" fill="#C1694F"/>
<path d="M12.761 112.845C12.7374 111.718 12.7114 112.593 12.7114 112.321C12.7114 108.466 15.0247 112.878 15.0247 110.132C15.0247 107.384 16.5661 107.109 18.1075 105.568C18.8793 104.796 20.4207 103.285 20.4207 103.285C20.4207 103.285 24.2753 105.614 27.3592 105.614C30.442 105.614 33.5271 107.163 33.5271 110.247C33.5271 113.331 35.8403 108.462 35.8403 112.317C35.8403 112.592 35.8144 111.718 35.7952 112.845H36.6042C36.6121 110.592 36.6121 110.677 36.6121 109.237C36.6121 99.2149 28.9017 95.4831 24.2764 95.4831C19.6511 95.4831 11.9419 99.1529 11.9419 109.175C11.9419 110.069 11.9193 110.592 11.9509 112.845H12.761V112.845Z" fill="#292F33"/>
<path d="M16.9513 109.393C16.9513 111.024 16.1243 112.347 15.1046 112.347C14.0849 112.347 13.2578 111.024 13.2578 109.393C13.2578 107.761 14.0849 106.437 15.1046 106.437C16.1243 106.436 16.9513 107.76 16.9513 109.393ZM35.4177 109.393C35.4177 111.024 34.5918 112.347 33.5709 112.347C32.5512 112.347 31.7242 111.024 31.7242 109.393C31.7242 107.761 32.5501 106.437 33.5709 106.437C34.5918 106.436 35.4177 107.76 35.4177 109.393Z" fill="#F7DECE"/>
<path d="M40.23 95.3929L24.4555 92.0127C24.3788 91.9958 24.2977 91.9958 24.22 92.0127L8.44544 95.3929C8.19305 95.447 8.00939 95.6667 8.00037 95.9248C7.99249 96.1828 8.16037 96.4138 8.40938 96.4859L13.98 98.078C13.7637 98.7484 13.6341 99.5225 13.6341 100.451C13.6341 103.031 17.3355 104.395 24.3383 104.395C31.3411 104.395 35.0424 103.031 35.0424 100.451C35.0424 99.5225 34.9129 98.7484 34.6965 98.078L40.2683 96.4859C40.5173 96.4149 40.6852 96.1828 40.6762 95.9248C40.6672 95.6667 40.4835 95.447 40.23 95.3929V95.3929Z" fill="#292F33"/>
<path d="M40.6537 95.7896C40.5681 95.491 40.2594 95.3197 39.9574 95.402L24.3384 99.865L8.7182 95.402C8.42299 95.3197 8.1075 95.4899 8.02186 95.7896C7.93623 96.0882 8.10975 96.4003 8.40947 96.4859L24.184 100.993C24.2347 101.008 24.2865 101.014 24.3372 101.014C24.3879 101.014 24.4409 101.008 24.4916 100.993L40.2661 96.4859C40.567 96.4003 40.7405 96.0882 40.6537 95.7896Z" fill="#66757F"/>
<path d="M24.2909 95.3828L10.7699 96.5096C10.7406 96.5118 10.2539 96.5738 10.2539 97.0707V103.938C9.91697 104.148 9.69049 104.772 9.69049 106.648C9.69049 109.448 10.1953 111.718 10.8172 111.718C11.4392 111.718 11.944 109.448 11.944 106.648C11.944 104.772 11.7175 104.148 11.3806 103.938V97.589L24.3856 96.5051C24.6943 96.4792 24.9253 96.2076 24.8994 95.8966C24.8735 95.5868 24.5974 95.3535 24.2909 95.3828V95.3828Z" fill="#FFCC4D"/>
<path d="M1029.99 476V472.056C1029.99 468.322 1025.83 465.859 1022.1 465.859H1008.58C1004.84 465.859 1000.69 468.322 1000.69 472.056V476H1029.99Z" fill="#292F33"/>
<path d="M1004.18 473.004C1004.47 473.004 1004.64 476 1004.64 476H1003.56C1003.56 476 1003.78 473.004 1004.18 473.004ZM1007.56 473.004C1007.85 473.004 1008.02 476 1008.02 476H1006.94C1006.94 476 1007.16 473.004 1007.56 473.004V473.004ZM1023.16 473.004C1022.88 473.004 1022.71 476 1022.71 476H1023.79C1023.79 476 1023.57 473.004 1023.16 473.004ZM1026.54 473.004C1026.26 473.004 1026.09 476 1026.09 476H1027.17C1027.17 476 1026.95 473.004 1026.54 473.004Z" fill="#66757F"/>
<path d="M1015.34 474.21C1019.93 472.015 1021.67 465.859 1021.67 465.859H1009.01C1009.01 465.859 1010.74 472.015 1015.34 474.21Z" fill="#9266CC"/>
<path d="M1009.7 465.859H1020.83C1020.83 465.859 1019.42 469.803 1015.27 469.803C1011.12 469.803 1009.7 465.859 1009.7 465.859Z" fill="#744EAA"/>
<path d="M1015.28 441.148C1019.9 441.148 1027.61 443.462 1027.61 453.484C1027.61 463.507 1027.61 465.82 1025.3 465.82C1022.98 465.82 1019.9 463.507 1015.27 463.507C1010.65 463.507 1007.63 465.82 1005.25 465.82C1002.67 465.82 1002.94 456.568 1002.94 453.484C1002.94 443.462 1010.65 441.148 1015.28 441.148" fill="#292F33"/>
<path d="M1011.2 465.882C1011.2 467.549 1013.65 468.113 1015.34 468.113C1017.03 468.113 1019.46 467.549 1019.46 465.882V462.271H1011.2V465.882V465.882Z" fill="#F7DECE"/>
<path d="M1011.19 463.807C1012.35 465.109 1013.77 465.461 1015.33 465.461C1016.88 465.461 1018.31 465.11 1019.46 463.807V460.499H1011.19V463.807V463.807Z" fill="#EEC2AD"/>
<path d="M1006.02 453.146C1006.02 446.573 1010.17 441.244 1015.28 441.244C1020.38 441.244 1024.53 446.573 1024.53 453.146C1024.53 459.718 1020.38 464.736 1015.28 464.736C1010.17 464.736 1006.02 459.72 1006.02 453.146" fill="#F7DECE"/>
<path d="M1015.28 461.964C1013.47 461.964 1012.52 461.069 1012.42 460.967C1012.12 460.666 1012.12 460.178 1012.42 459.877C1012.72 459.579 1013.2 459.576 1013.5 459.869C1013.54 459.906 1014.12 460.423 1015.28 460.423C1016.45 460.423 1017.03 459.89 1017.05 459.868C1017.36 459.58 1017.84 459.589 1018.14 459.891C1018.43 460.194 1018.43 460.669 1018.13 460.967C1018.03 461.069 1017.09 461.964 1015.28 461.964" fill="#DF1F32"/>
<path d="M1011.52 455.59C1010.99 455.59 1010.56 455.161 1010.56 454.637V453.685C1010.56 453.161 1010.99 452.731 1011.52 452.731C1012.04 452.731 1012.47 453.161 1012.47 453.685V454.637C1012.47 455.161 1012.04 455.59 1011.52 455.59ZM1019.14 455.59C1018.61 455.59 1018.19 455.161 1018.19 454.637V453.685C1018.19 453.161 1018.61 452.731 1019.14 452.731C1019.66 452.731 1020.09 453.161 1020.09 453.685V454.637C1020.09 455.161 1019.66 455.59 1019.14 455.59Z" fill="#662113"/>
<path d="M1016.28 458.535H1014.38C1014.11 458.535 1013.9 458.321 1013.9 458.059V457.886C1013.9 457.624 1014.11 457.409 1014.38 457.409H1016.28C1016.54 457.409 1016.76 457.623 1016.76 457.886V458.059C1016.76 458.321 1016.54 458.535 1016.28 458.535Z" fill="#C1694F"/>
<path d="M1003.76 456.845C1003.74 455.719 1003.71 456.593 1003.71 456.321C1003.71 452.466 1006.02 456.878 1006.02 454.132C1006.02 451.384 1007.57 451.109 1009.11 449.568C1009.88 448.796 1011.42 447.285 1011.42 447.285C1011.42 447.285 1015.28 449.614 1018.36 449.614C1021.44 449.614 1024.53 451.163 1024.53 454.247C1024.53 457.331 1026.84 452.462 1026.84 456.317C1026.84 456.592 1026.81 455.719 1026.8 456.845H1027.6C1027.61 454.592 1027.61 454.677 1027.61 453.237C1027.61 443.215 1019.9 439.483 1015.28 439.483C1010.65 439.483 1002.94 443.153 1002.94 453.175C1002.94 454.069 1002.92 454.592 1002.95 456.845H1003.76V456.845Z" fill="#292F33"/>
<path d="M1007.95 453.393C1007.95 455.024 1007.12 456.347 1006.1 456.347C1005.08 456.347 1004.26 455.024 1004.26 453.393C1004.26 451.761 1005.08 450.437 1006.1 450.437C1007.12 450.436 1007.95 451.76 1007.95 453.393ZM1026.42 453.393C1026.42 455.024 1025.59 456.347 1024.57 456.347C1023.55 456.347 1022.72 455.024 1022.72 453.393C1022.72 451.761 1023.55 450.437 1024.57 450.437C1025.59 450.436 1026.42 451.76 1026.42 453.393Z" fill="#F7DECE"/>
<path d="M1031.23 439.393L1015.46 436.013C1015.38 435.996 1015.3 435.996 1015.22 436.013L999.445 439.393C999.193 439.447 999.009 439.667 999 439.925C998.993 440.183 999.16 440.414 999.409 440.486L1004.98 442.078C1004.76 442.748 1004.63 443.522 1004.63 444.451C1004.63 447.031 1008.34 448.395 1015.34 448.395C1022.34 448.395 1026.04 447.031 1026.04 444.451C1026.04 443.522 1025.91 442.748 1025.7 442.078L1031.27 440.486C1031.52 440.415 1031.69 440.183 1031.68 439.925C1031.67 439.667 1031.48 439.447 1031.23 439.393V439.393Z" fill="#292F33"/>
<path d="M1031.65 439.79C1031.57 439.491 1031.26 439.32 1030.96 439.402L1015.34 443.865L999.718 439.402C999.423 439.32 999.107 439.49 999.022 439.79C998.936 440.088 999.11 440.4 999.409 440.486L1015.18 444.993C1015.23 445.008 1015.29 445.014 1015.34 445.014C1015.39 445.014 1015.44 445.008 1015.49 444.993L1031.27 440.486C1031.57 440.4 1031.74 440.088 1031.65 439.79Z" fill="#66757F"/>
<path d="M1015.29 439.383L1001.77 440.51C1001.74 440.512 1001.25 440.574 1001.25 441.071V447.938C1000.92 448.148 1000.69 448.772 1000.69 450.648C1000.69 453.448 1001.2 455.718 1001.82 455.718C1002.44 455.718 1002.94 453.448 1002.94 450.648C1002.94 448.772 1002.72 448.148 1002.38 447.938V441.589L1015.39 440.505C1015.69 440.479 1015.93 440.208 1015.9 439.897C1015.87 439.587 1015.6 439.354 1015.29 439.383V439.383Z" fill="#FFCC4D"/>
<path d="M1159.1 256.982C1159.1 253.31 1156.13 250.333 1152.45 250.333C1150.22 250.333 1148.26 251.434 1147.05 253.115C1145.84 251.434 1143.88 250.333 1141.65 250.333C1137.98 250.333 1135 253.31 1135 256.982C1135 257.503 1135.07 258.007 1135.18 258.492C1136.1 264.229 1142.48 270.28 1147.05 271.942C1151.62 270.28 1158 264.229 1158.92 258.493C1159.04 258.007 1159.1 257.503 1159.1 256.982V256.982Z" fill="#DD2E44"/>
<path d="M1158.07 265.109L1155.49 264.155L1154.53 261.579C1154.44 261.313 1154.18 261.138 1153.9 261.138C1153.62 261.138 1153.37 261.313 1153.27 261.578L1152.32 264.154L1149.74 265.109C1149.48 265.206 1149.3 265.458 1149.3 265.741C1149.3 266.022 1149.48 266.275 1149.74 266.373L1152.32 267.327L1153.27 269.903C1153.37 270.168 1153.62 270.343 1153.9 270.343C1154.18 270.343 1154.44 270.168 1154.53 269.903L1155.49 267.327L1158.07 266.373C1158.33 266.275 1158.51 266.022 1158.51 265.741C1158.51 265.459 1158.33 265.206 1158.07 265.109V265.109ZM1142.57 254.328L1140.97 253.738L1140.38 252.145C1140.29 251.88 1140.03 251.705 1139.75 251.705C1139.47 251.705 1139.22 251.88 1139.12 252.145L1138.53 253.738L1136.94 254.328C1136.67 254.426 1136.5 254.678 1136.5 254.96C1136.5 255.241 1136.67 255.493 1136.94 255.592L1138.53 256.181L1139.12 257.775C1139.22 258.04 1139.47 258.215 1139.75 258.215C1140.03 258.215 1140.29 258.04 1140.38 257.775L1140.97 256.181L1142.57 255.592C1142.83 255.493 1143.01 255.242 1143.01 254.96C1143.01 254.678 1142.83 254.426 1142.57 254.328V254.328Z" fill="#FDCB58"/>
<path d="M33.0765 354.987C33.0765 352.233 30.8439 350 28.0902 350C26.4185 350 24.9434 350.825 24.0383 352.087C23.1332 350.825 21.658 350 19.9868 350C17.2327 350 15 352.232 15 354.987C15 355.377 15.0495 355.755 15.1344 356.119C15.8268 360.421 20.6099 364.96 24.0383 366.206C27.4661 364.96 32.2498 360.421 32.9411 356.12C33.027 355.755 33.0765 355.377 33.0765 354.987Z" fill="#DD2E44"/>
<path d="M32.2993 361.082L30.3668 360.366L29.6512 358.434C29.578 358.235 29.3884 358.103 29.1772 358.103C28.966 358.103 28.7765 358.235 28.7032 358.433L27.9876 360.366L26.0551 361.081C25.8565 361.154 25.7251 361.344 25.7251 361.555C25.7251 361.767 25.857 361.956 26.0551 362.029L27.9876 362.745L28.7032 364.678C28.7765 364.876 28.966 365.008 29.1772 365.008C29.3884 365.008 29.578 364.876 29.6512 364.678L30.3668 362.745L32.2993 362.029C32.4974 361.956 32.6293 361.767 32.6293 361.555C32.6293 361.344 32.4974 361.155 32.2993 361.082ZM20.6761 352.996L19.481 352.554L19.0388 351.358C18.965 351.16 18.776 351.028 18.5648 351.028C18.353 351.028 18.164 351.16 18.0907 351.358L17.6481 352.554L16.4534 352.996C16.2548 353.07 16.1234 353.259 16.1234 353.47C16.1234 353.681 16.2548 353.87 16.4534 353.944L17.6486 354.386L18.0907 355.581C18.1645 355.78 18.3535 355.911 18.5648 355.911C18.776 355.911 18.965 355.78 19.0388 355.581L19.481 354.386L20.6761 353.944C20.8747 353.87 21.0061 353.682 21.0061 353.47C21.0061 353.259 20.8747 353.07 20.6761 352.996Z" fill="#FDCB58"/>
<path d="M867.496 670V667.222C867.496 665.381 866.004 663.889 864.163 663.889H855.274C853.433 663.889 851.941 665.381 851.941 667.222V670H867.496Z" fill="#77B255"/>
<path d="M857.296 663.948C857.296 664.444 858.607 665.055 859.718 665.055C860.829 665.055 862.14 664.444 862.14 663.948V661.828H857.296V663.948H857.296Z" fill="#F7DECE"/>
<path d="M857.292 662.763C857.967 663.526 858.805 663.733 859.716 663.733C860.627 663.733 861.464 663.526 862.14 662.763V660.823H857.291V662.763H857.292Z" fill="#EEC2AD"/>
<path d="M856.076 657.187C856.076 657.991 855.668 658.643 855.166 658.643C854.663 658.643 854.255 657.991 854.255 657.187C854.255 656.382 854.663 655.729 855.166 655.729C855.668 655.729 856.076 656.382 856.076 657.187ZM865.181 657.187C865.181 657.991 864.774 658.643 864.271 658.643C863.768 658.643 863.36 657.991 863.36 657.187C863.36 656.382 863.767 655.729 864.271 655.729C864.774 655.729 865.181 656.382 865.181 657.187Z" fill="#F7DECE"/>
<path d="M854.983 657.756C854.983 654.651 857.103 652.133 859.718 652.133C862.333 652.133 864.453 654.651 864.453 657.756C864.453 660.861 862.333 663.378 859.718 663.378C857.104 663.378 854.983 660.861 854.983 657.756Z" fill="#F7DECE"/>
<path d="M859.718 661.557C858.188 661.557 857.718 661.165 857.64 661.086C857.498 660.943 857.498 660.713 857.64 660.571C857.778 660.433 857.999 660.429 858.141 660.558C858.17 660.578 858.542 660.828 859.718 660.828C860.941 660.828 861.294 660.559 861.297 660.556C861.439 660.414 861.662 660.421 861.804 660.564C861.947 660.707 861.939 660.944 861.797 661.086C861.718 661.165 861.248 661.557 859.718 661.557Z" fill="#C1694F"/>
<path d="M859.718 650C862.856 650 864.817 652.582 864.817 654.512C864.817 656.441 864.425 657.213 864.033 656.441L863.248 654.898C863.248 654.898 860.896 654.898 860.111 654.126C860.111 654.126 861.288 656.441 858.935 654.126C858.935 654.126 859.327 655.669 856.973 653.74C856.973 653.74 855.797 654.512 855.405 656.441C855.296 656.977 854.62 656.441 854.62 654.512C854.62 652.582 856.188 650 859.718 650Z" fill="#292F33"/>
<path d="M857.496 657.778C857.191 657.778 856.941 657.528 856.941 657.222V656.667C856.941 656.361 857.191 656.111 857.496 656.111C857.802 656.111 858.052 656.361 858.052 656.667V657.222C858.052 657.528 857.802 657.778 857.496 657.778ZM861.941 657.778C861.635 657.778 861.385 657.528 861.385 657.222V656.667C861.385 656.361 861.635 656.111 861.941 656.111C862.246 656.111 862.496 656.361 862.496 656.667V657.222C862.496 657.528 862.246 657.778 861.941 657.778Z" fill="#662113"/>
<path d="M860.135 659.306H859.302C859.072 659.306 858.885 659.118 858.885 658.889C858.885 658.659 859.072 658.472 859.302 658.472H860.135C860.364 658.472 860.552 658.659 860.552 658.889C860.552 659.118 860.364 659.306 860.135 659.306Z" fill="#C1694F"/>
<path d="M866.385 669.444C866.385 669.752 866.137 670 865.829 670H860.274C859.967 670 859.718 669.752 859.718 669.444C859.718 669.137 859.967 668.889 860.274 668.889H865.829C866.137 668.889 866.385 669.137 866.385 669.444Z" fill="#E1E8ED"/>
<path d="M859.296 662.222H850.14C849.293 662.222 848.208 662.651 848.763 664.184L850.47 668.892C850.471 668.892 850.691 670 851.941 670H863.052L860.83 663.756C860.586 663.021 860.143 662.222 859.296 662.222Z" fill="#E1E8ED"/>
<path d="M858.741 662.222H849.584C848.738 662.222 847.652 662.651 848.208 664.184L849.914 668.892C849.915 668.892 850.135 670 851.385 670H862.496L860.274 663.756C860.031 663.021 859.588 662.222 858.741 662.222Z" fill="#99AAB5"/>
<path d="M855.84 666.268C856.131 667.142 855.895 668.007 855.313 668.201C854.731 668.396 854.023 667.845 853.732 666.972C853.441 666.098 853.677 665.233 854.259 665.039C854.841 664.845 855.549 665.395 855.84 666.268ZM858.607 663.75H849.718C849.488 663.75 849.302 663.563 849.302 663.333C849.302 663.103 849.488 662.917 849.718 662.917H858.607C858.837 662.917 859.024 663.103 859.024 663.333C859.024 663.563 858.837 663.75 858.607 663.75Z" fill="#E1E8ED"/>
<path d="M313.418 17.8824C313.031 17.8824 312.82 17.7217 312.711 17.5868C312.604 17.4544 312.492 17.2198 312.57 16.8558L314.281 8.88329L313.206 8.94415H313.198C312.873 8.94415 312.638 8.83874 312.491 8.65615C312.353 8.48548 312.303 8.26649 312.352 8.04123C312.446 7.60075 312.906 7.23432 313.398 7.20733L315.913 7.0649C315.962 7.06176 316.007 7.05988 316.049 7.05988C316.141 7.05988 316.385 7.05988 316.54 7.25188C316.698 7.44765 316.645 7.69676 316.627 7.77833L314.667 16.9123C314.55 17.467 314.091 17.8466 313.496 17.8799L313.418 17.8824ZM320.159 16.6275C319.256 16.6275 318.505 16.2892 317.988 15.6492C317.259 14.7463 317.068 13.3584 317.438 11.6353C318.085 8.61599 320.078 6.49893 322.396 6.36779C323.393 6.31194 324.219 6.6514 324.776 7.33973C325.505 8.24265 325.696 9.6306 325.327 11.3536C324.679 14.3717 322.686 16.4888 320.367 16.6205C320.297 16.6256 320.227 16.6275 320.159 16.6275V16.6275ZM322.301 8.00233L322.215 8.00484C320.998 8.07449 319.984 9.45052 319.504 11.6855C319.204 13.0835 319.265 14.132 319.675 14.639C319.861 14.8699 320.125 14.9873 320.459 14.9873L320.547 14.9848C321.764 14.9164 322.777 13.541 323.256 11.3053C323.556 9.90731 323.496 8.85819 323.087 8.3512C322.901 8.11967 322.636 8.00233 322.301 8.00233V8.00233ZM329.574 15.599C328.671 15.599 327.919 15.2608 327.402 14.6202C326.672 13.7173 326.481 12.3293 326.851 10.6063C327.499 7.58632 329.492 5.46989 331.81 5.33937C332.815 5.2829 333.631 5.62362 334.188 6.31132C334.917 7.21424 335.108 8.60219 334.739 10.3246C334.092 13.342 332.099 15.4591 329.78 15.5928C329.71 15.5978 329.642 15.599 329.574 15.599V15.599ZM331.714 6.97329L331.629 6.9758C330.411 7.04545 329.398 8.42148 328.918 10.6559C328.618 12.0545 328.679 13.1036 329.089 13.61C329.275 13.8409 329.54 13.9582 329.874 13.9582L329.962 13.9557C331.178 13.8873 332.192 12.5113 332.671 10.2763C332.972 8.8789 332.911 7.82978 332.502 7.32279C332.315 7.09063 332.05 6.97329 331.714 6.97329V6.97329ZM319.236 26.6675C318.728 26.6675 318.249 26.3563 318.061 25.8524C317.817 25.2036 318.146 24.4802 318.795 24.2367C319.006 24.1576 324.065 22.2865 331.68 21.6516C332.371 21.5913 332.977 22.1077 333.035 22.7979C333.093 23.4888 332.579 24.0949 331.889 24.1526C324.616 24.7588 319.725 26.569 319.676 26.5872C319.531 26.6411 319.382 26.6675 319.236 26.6675V26.6675ZM313.589 22.9021C313.085 22.9021 312.609 22.5959 312.417 22.0971C312.169 21.4501 312.491 20.7242 313.138 20.4763C313.478 20.3452 321.619 17.2599 333.601 16.6293C334.299 16.586 334.884 17.1244 334.921 17.8165C334.958 18.5086 334.425 19.0997 333.733 19.1361C322.174 19.7447 314.118 22.7885 314.038 22.8193C313.89 22.8751 313.739 22.9021 313.589 22.9021V22.9021Z" fill="#BB1A34"/>
<path d="M1191 623C1191 629.627 1185.63 635 1179 635C1172.37 635 1167 629.627 1167 623C1167 616.373 1172.37 611 1179 611C1185.63 611 1191 616.373 1191 623Z" fill="#FFCB4C"/>
<path d="M1175.12 623.277C1176.09 623.277 1176.88 622.171 1176.88 620.807C1176.88 619.442 1176.09 618.336 1175.12 618.336C1174.14 618.336 1173.35 619.442 1173.35 620.807C1173.35 622.171 1174.14 623.277 1175.12 623.277Z" fill="#65471B"/>
<path d="M1183.59 625.117C1186.12 625.117 1188.18 623.063 1188.18 620.529C1188.18 617.995 1186.12 615.941 1183.59 615.941C1181.05 615.941 1179 617.995 1179 620.529C1179 623.063 1181.05 625.117 1183.59 625.117Z" fill="#F4F7F9"/>
<path d="M1176.88 617.631C1176.67 617.631 1176.46 617.533 1176.32 617.349C1175.66 616.468 1174.97 615.996 1174.26 615.946C1173.34 615.883 1172.58 616.577 1172.44 616.718C1172.16 616.994 1171.72 616.994 1171.44 616.718C1171.17 616.442 1171.17 615.995 1171.44 615.72C1171.75 615.415 1172.86 614.429 1174.36 614.538C1175.49 614.618 1176.53 615.279 1177.45 616.501C1177.68 616.813 1177.62 617.256 1177.31 617.489C1177.18 617.585 1177.03 617.631 1176.88 617.631Z" fill="#65471B"/>
<path d="M1188.88 635C1188.49 635 1188.18 634.684 1188.18 634.294V620.883C1188.18 620.493 1188.49 620.177 1188.88 620.177C1189.27 620.177 1189.59 620.493 1189.59 620.883V634.295C1189.59 634.684 1189.27 635 1188.88 635Z" fill="#292F33"/>
<path d="M1188.88 619.471C1188.85 619.471 1188.81 619.479 1188.78 619.481C1188.29 617.063 1186.15 615.235 1183.59 615.235C1180.67 615.235 1178.29 617.61 1178.29 620.529C1178.29 623.449 1180.67 625.823 1183.59 625.823C1185.9 625.823 1187.87 624.331 1188.59 622.261C1188.68 622.282 1188.78 622.294 1188.88 622.294C1189.66 622.294 1190.29 621.662 1190.29 620.882C1190.29 620.103 1189.66 619.471 1188.88 619.471V619.471ZM1183.59 624.412C1181.45 624.412 1179.71 622.671 1179.71 620.529C1179.71 618.388 1181.45 616.647 1183.59 616.647C1185.73 616.647 1187.47 618.388 1187.47 620.529C1187.47 622.671 1185.73 624.412 1183.59 624.412Z" fill="#67757F"/>
<path d="M1181.12 630.059C1181.01 630.059 1180.9 630.035 1180.8 629.984C1179.59 629.377 1178.41 629.377 1177.2 629.984C1176.85 630.158 1176.42 630.017 1176.25 629.668C1176.08 629.319 1176.22 628.895 1176.57 628.721C1178.18 627.914 1179.82 627.914 1181.43 628.721C1181.78 628.895 1181.92 629.319 1181.75 629.668C1181.63 629.916 1181.38 630.059 1181.12 630.059V630.059Z" fill="#65471B"/>
<path d="M1185.7 617.274C1185.09 616.879 1184.37 616.647 1183.59 616.647C1181.44 616.647 1179.71 618.385 1179.71 620.53C1179.71 621.309 1179.94 622.033 1180.33 622.641L1185.7 617.274ZM1181.93 624.037C1182.43 624.275 1182.99 624.412 1183.59 624.412C1185.73 624.412 1187.47 622.674 1187.47 620.529C1187.47 619.936 1187.33 619.375 1187.1 618.873L1181.93 624.037Z" fill="#BDDDF4"/>
<path d="M528.518 74.5147C528.429 75.5605 528.882 75.8735 529.591 76.3703C530.292 76.8614 534.562 73.1185 535.958 72.5491C537.355 71.9798 550.462 69.2043 549.893 66.6705C549.325 64.1366 545.364 63.7624 542.313 64.2796C539.262 64.7968 533.423 67.4803 531.718 68.9287C530.012 70.376 528.518 74.5147 528.518 74.5147V74.5147ZM538.297 76.2127C538.297 76.2127 534.263 77.5227 534.263 80.9253C534.263 84.328 535.245 86.2471 535.71 87.1783C536.176 88.1083 537.625 89.0112 539.629 88.1435C541.956 87.1352 539.072 81.3337 546.434 83.9968C549.807 85.2161 553.306 86.8641 556.709 85.7299C559.937 84.6535 561.18 80.593 561.18 78.3246C561.18 73.6811 557.777 74.9219 556.643 76.0561C555.509 77.1904 546.435 79.4588 545.301 79.4588C544.167 79.4588 538.297 76.2127 538.297 76.2127Z" fill="#E0AA94"/>
<path d="M543.386 81.9404C543.386 81.9404 543.25 80.4477 541.827 80.2742C540.657 80.1324 538.814 80.5226 537.857 82.436C536.9 84.3506 535.198 84.0307 535.27 85.6254C535.34 87.2202 535.837 88.461 536.864 88.7797C537.893 89.0996 539.346 88.5324 539.523 86.8311C539.7 85.1298 539.913 83.5702 541.011 82.8965C542.111 82.2239 543.386 81.9404 543.386 81.9404Z" fill="#EEC2AD"/>
<path d="M541.898 79.4587C541.898 79.4587 540.764 78.3245 538.495 78.3245C536.227 78.3245 530.937 80.7438 532.541 85.5551C533.675 88.9578 536.901 87.3631 537.361 83.9956C537.823 80.6236 541.898 79.4587 541.898 79.4587Z" fill="#E0AA94"/>
<path d="M540.764 79.4587C540.764 79.4587 539.629 78.3245 537.361 78.3245C535.093 78.3245 531.82 80.0599 531.69 85.1298C531.583 89.2765 536.262 87.3983 536.227 83.9956C536.192 80.5929 540.764 79.4587 540.764 79.4587Z" fill="#EEC2AD"/>
<path d="M527.153 80.593C527.153 84.3325 527.672 86.5885 529.907 86.204C533.615 85.5665 532.207 80.9707 535.452 79.6777C537.808 78.7397 541.238 78.9631 544.549 80.9287C546.73 82.224 545.301 77.1903 543.032 76.0561C540.764 74.9219 533.959 76.0561 532.824 76.0561C531.69 76.0561 527.153 80.593 527.153 80.593Z" fill="#E0AA94"/>
<path d="M526.974 80.7904C525.17 83.8131 526.268 86.9379 529.422 86.2641C532.474 85.6131 530.945 81.6479 533.959 79.4588C535.648 78.2316 539.287 77.8199 541.556 78.9541C543.824 80.0883 544.167 77.1904 541.898 76.0562C539.63 74.922 532.212 76.0278 531.08 76.0981C528.915 76.2331 526.974 80.7904 526.974 80.7904Z" fill="#EEC2AD"/>
<path d="M532.164 82.9907C531.394 83.8731 530.055 83.965 529.171 83.1949L528.949 83.0009C528.065 82.2308 527.974 80.8924 528.745 80.0089L554.291 50.7268C555.061 49.8443 556.4 49.7525 557.284 50.5226L557.505 50.7165C558.389 51.4867 558.479 52.8262 557.71 53.7086L532.164 82.9907Z" fill="#3B88C3"/>
<path d="M533.38 81.5979C530.703 84.6659 523.951 90.6818 523.096 89.9366C522.242 89.1915 527.285 81.6852 529.962 78.616C532.638 75.5468 531.846 78.0013 532.789 78.8258C533.733 79.6493 536.057 78.5309 533.38 81.5979V81.5979Z" fill="#3B88C3"/>
<path d="M529.05 78.354C529.05 79.4883 531.796 80.5261 532.93 79.3918C534.064 78.2576 536.719 76.8648 540.21 78.3245C548.381 81.7385 545.301 77.1903 541.898 76.0561C538.496 74.9219 532.824 76.0561 531.69 76.0561C530.556 76.0561 529.05 78.354 529.05 78.354V78.354Z" fill="#E0AA94"/>
<path d="M528.509 74.9707C528.103 73.7083 530.99 66.7147 532.298 65.6315C533.945 64.2682 540.316 62.1574 542.584 62.1574C544.853 62.1574 561.18 70.385 561.18 76.0561C561.18 81.7272 558.911 82.4361 555.65 83.3219C553.043 84.0308 547.581 83.5964 545.194 81.3722C543.103 79.4236 541.65 78.0762 539.63 77.1904C535.884 75.548 533.388 77.6713 532.254 78.8055C529.985 81.0739 525.712 78.6251 529.276 74.745C531.827 71.9673 534.074 71.1019 536.227 70.385C543.032 68.1166 547.569 68.1166 545.301 65.8482C544.499 65.0463 544.062 66.2406 542.946 66.4436C540.7 66.852 538.913 67.1264 535.954 68.1132C534.931 68.4535 530.087 71.542 528.509 74.9707Z" fill="#F7DECE"/>
<path d="M536.449 68.4285C537.656 67.9884 542.917 67.0312 545.654 66.083C547.864 65.3162 549.804 66.8043 545.608 68.3831C541.559 69.9064 537.352 69.7816 534.284 70.9998C533.124 71.4603 532.118 70.0073 536.449 68.4285V68.4285Z" fill="#E0AA94"/>
<path d="M546.987 59.0689C546.987 59.0689 540.264 66.7759 537.408 70.0266C539.964 68.9763 542.252 69.1759 544.438 67.8897C546.623 66.6046 547.62 65.2334 550.937 61.4303C552.168 60.0194 546.987 59.0689 546.987 59.0689V59.0689Z" fill="#3B88C3"/>
<path d="M493.418 690.882C493.031 690.882 492.82 690.722 492.711 690.587C492.604 690.454 492.492 690.22 492.57 689.856L494.281 681.883L493.206 681.944H493.198C492.873 681.944 492.638 681.839 492.491 681.656C492.353 681.485 492.303 681.266 492.352 681.041C492.446 680.601 492.906 680.234 493.398 680.207L495.913 680.065C495.962 680.062 496.007 680.06 496.049 680.06C496.141 680.06 496.385 680.06 496.54 680.252C496.698 680.448 496.645 680.697 496.627 680.778L494.667 689.912C494.55 690.467 494.091 690.847 493.496 690.88L493.418 690.882ZM500.159 689.627C499.256 689.627 498.505 689.289 497.988 688.649C497.259 687.746 497.068 686.358 497.438 684.635C498.085 681.616 500.078 679.499 502.396 679.368C503.393 679.312 504.219 679.651 504.776 680.34C505.505 681.243 505.696 682.631 505.327 684.354C504.679 687.372 502.686 689.489 500.367 689.621C500.297 689.626 500.227 689.627 500.159 689.627V689.627ZM502.301 681.002L502.215 681.005C500.998 681.074 499.984 682.45 499.504 684.686C499.204 686.084 499.265 687.132 499.675 687.639C499.861 687.87 500.125 687.987 500.459 687.987L500.547 687.985C501.764 687.916 502.777 686.541 503.256 684.305C503.556 682.907 503.496 681.858 503.087 681.351C502.901 681.12 502.636 681.002 502.301 681.002V681.002ZM509.574 688.599C508.671 688.599 507.919 688.261 507.402 687.62C506.672 686.717 506.481 685.329 506.851 683.606C507.499 680.586 509.492 678.47 511.81 678.339C512.815 678.283 513.631 678.624 514.188 679.311C514.917 680.214 515.108 681.602 514.739 683.325C514.092 686.342 512.099 688.459 509.78 688.593C509.71 688.598 509.642 688.599 509.574 688.599V688.599ZM511.714 679.973L511.629 679.976C510.411 680.045 509.398 681.421 508.918 683.656C508.618 685.054 508.679 686.104 509.089 686.61C509.275 686.841 509.54 686.958 509.874 686.958L509.962 686.956C511.178 686.887 512.192 685.511 512.671 683.276C512.972 681.879 512.911 680.83 512.502 680.323C512.315 680.091 512.05 679.973 511.714 679.973V679.973ZM499.236 699.667C498.728 699.667 498.249 699.356 498.061 698.852C497.817 698.204 498.146 697.48 498.795 697.237C499.006 697.158 504.065 695.287 511.68 694.652C512.371 694.591 512.977 695.108 513.035 695.798C513.093 696.489 512.579 697.095 511.889 697.153C504.616 697.759 499.725 699.569 499.676 699.587C499.531 699.641 499.382 699.667 499.236 699.667V699.667ZM493.589 695.902C493.085 695.902 492.609 695.596 492.417 695.097C492.169 694.45 492.491 693.724 493.138 693.476C493.478 693.345 501.619 690.26 513.601 689.629C514.299 689.586 514.884 690.124 514.921 690.816C514.958 691.509 514.425 692.1 513.733 692.136C502.174 692.745 494.118 695.788 494.038 695.819C493.89 695.875 493.739 695.902 493.589 695.902V695.902Z" fill="#BB1A34"/>
</svg>
