<svg width="875" height="488" viewBox="0 0 875 488" fill="none" xmlns="http://www.w3.org/2000/svg">
<path d="M43.5556 116.37C43.5556 119.234 41.2339 121.556 38.3704 121.556H9.85185C6.98833 121.556 4.66667 119.234 4.66667 116.37V87.8518C4.66667 84.9883 6.98833 82.6666 9.85185 82.6666H38.3704C41.2339 82.6666 43.5556 84.9883 43.5556 87.8518V116.37Z" fill="#D99E82"/>
<path d="M40.9629 116.37C40.9629 117.801 39.8014 118.963 38.3703 118.963H9.85181C8.4207 118.963 7.25922 117.801 7.25922 116.37V87.8517C7.25922 86.4193 8.4207 85.2592 9.85181 85.2592H38.3703C39.8014 85.2592 40.9629 86.4193 40.9629 87.8517V116.37Z" fill="#5C913B"/>
<path d="M14.4082 94.2011C14.3045 94.3255 14.1697 94.5122 14.1697 94.73C14.1697 95.207 14.5223 95.4144 14.9786 95.4144H18.4397C18.8337 95.4144 19.1863 95.207 19.1863 94.73C19.1863 94.2529 18.835 94.0455 18.3775 94.0455H16.481C17.3612 92.9372 18.9686 91.5074 18.9686 90.0659C18.9686 88.7502 17.9419 87.9102 16.6676 87.9102C15.3934 87.9102 14.2319 88.9563 14.2319 90.2629C14.2319 90.6661 14.4912 91.0187 14.9889 91.0187C15.9845 91.0187 15.4141 89.34 16.6054 89.34C17.0306 89.34 17.3521 89.7133 17.3521 90.1385C17.3521 90.5118 17.1758 90.8333 16.9891 91.1029C16.201 92.2424 15.2689 93.1757 14.4082 94.2011V94.2011ZM12.7139 101.244H11.2115V99.7402C11.2115 99.3668 10.973 99.1192 10.5893 99.1192C10.2069 99.1192 9.96838 99.3681 9.96838 99.7402V101.244H8.46597C8.08227 101.244 7.84375 101.493 7.84375 101.865C7.84375 102.238 8.08227 102.487 8.46597 102.487H9.96838V103.989C9.96838 104.363 10.2069 104.61 10.5893 104.61C10.973 104.61 11.2115 104.363 11.2115 103.989V102.487H12.7139C13.0976 102.487 13.3362 102.238 13.3362 101.865C13.3362 101.493 13.0976 101.244 12.7139 101.244V101.244ZM18.3775 103.12H16.4797C17.3612 102.011 18.9673 100.581 18.9673 99.14C18.9673 97.8242 17.9406 96.9842 16.6663 96.9842C15.3921 96.9842 14.2306 98.0316 14.2306 99.337C14.2306 99.7402 14.4899 100.093 14.9863 100.093C15.9819 100.093 15.4115 98.414 16.6041 98.414C17.0293 98.414 17.3508 98.7874 17.3508 99.2126C17.3508 99.5859 17.1745 99.9074 16.9878 100.177C16.1997 101.316 15.2676 102.25 14.4069 103.276C14.3032 103.401 14.1684 103.588 14.1684 103.805C14.1684 104.282 14.521 104.49 14.9773 104.49H18.4384C18.8325 104.49 19.185 104.282 19.185 103.805C19.185 103.327 18.8337 103.12 18.3775 103.12V103.12ZM19.4663 107.257H8.66301C8.30523 107.257 8.01486 106.967 8.01486 106.609C8.01486 106.251 8.30523 105.961 8.66301 105.961H19.465C19.8228 105.961 20.1132 106.251 20.1132 106.609C20.1145 106.967 19.8241 107.257 19.4663 107.257Z" fill="white"/>
<path d="M50.037 129.333V124.796C50.037 120.5 45.2602 117.667 40.963 117.667H25.4074C21.1128 117.667 16.3333 120.5 16.3333 124.796V129.333H50.037Z" fill="#9266CC"/>
<path d="M33.1125 89.2377C38.4351 89.2377 47.3043 91.899 47.3043 103.43C47.3043 114.96 47.3043 117.621 44.643 117.621C41.9805 117.621 38.4338 114.96 33.1112 114.96C27.7899 114.96 24.3171 117.621 21.5806 117.621C18.616 117.621 18.9193 106.977 18.9193 103.43C18.9219 91.899 27.7912 89.2377 33.1125 89.2377V89.2377ZM26.7036 117.667H39.5045C39.5045 117.667 37.8764 122.204 33.1034 122.204C28.3304 122.204 26.7036 117.667 26.7036 117.667Z" fill="#292F33"/>
<path d="M28.4251 117.693C28.4251 119.611 31.2406 120.907 33.1851 120.907C35.1295 120.907 37.9295 119.611 37.9295 117.693V113.538H28.4251V117.693V117.693Z" fill="#F7DECE"/>
<path d="M28.416 115.306C29.7421 116.803 31.3858 117.209 33.1721 117.209C34.9597 117.209 36.6034 116.805 37.9295 115.306V111.5H28.416V115.306V115.306Z" fill="#EEC2AD"/>
<path d="M22.4698 103.04C22.4698 95.4778 27.235 89.3477 33.1124 89.3477C38.9898 89.3477 43.7563 95.4778 43.7563 103.04C43.7563 110.602 38.9898 116.374 33.1124 116.374C27.235 116.374 22.4698 110.603 22.4698 103.04" fill="#F7DECE"/>
<path d="M33.1127 113.185C31.0322 113.185 29.942 112.156 29.8253 112.038C29.4779 111.692 29.4779 111.131 29.8253 110.785C30.1701 110.441 30.7223 110.438 31.0698 110.775C31.1151 110.817 31.7866 111.412 33.1127 111.412C34.4596 111.412 35.1311 110.799 35.157 110.774C35.5109 110.442 36.0683 110.453 36.4053 110.8C36.7423 111.149 36.7423 111.696 36.4001 112.038C36.2848 112.156 35.1959 113.185 33.1127 113.185" fill="#DF1F32"/>
<path d="M19.8658 107.296C19.8386 106 19.8088 107.006 19.8088 106.694C19.8088 102.258 22.4701 107.334 22.4701 104.175C22.4701 101.013 24.2434 100.697 26.0167 98.9235C26.9047 98.0355 28.678 96.2972 28.678 96.2972C28.678 96.2972 33.1127 98.9767 36.6606 98.9767C40.2073 98.9767 43.7565 100.759 43.7565 104.307C43.7565 107.855 46.4178 102.254 46.4178 106.688C46.4178 107.005 46.3893 106 46.366 107.296H47.2967C47.3058 104.704 47.3058 104.802 47.3058 103.146C47.3058 91.615 38.4353 87.3217 33.114 87.3217C27.7927 87.3217 18.9234 91.5437 18.9234 103.074C18.9234 104.102 18.8975 104.704 18.9338 107.296H19.8658V107.296Z" fill="#292F33"/>
<path d="M28.788 105.852C28.1852 105.852 27.6913 105.358 27.6913 104.756V103.66C27.6913 103.057 28.1852 102.563 28.788 102.563C29.3908 102.563 29.886 103.057 29.886 103.66V104.756C29.886 105.358 29.3908 105.852 28.788 105.852ZM37.5575 105.852C36.9547 105.852 36.4608 105.358 36.4608 104.756V103.66C36.4608 103.057 36.9547 102.563 37.5575 102.563C38.1602 102.563 38.6541 103.057 38.6541 103.66V104.756C38.6541 105.358 38.1602 105.852 37.5575 105.852Z" fill="#662113"/>
<path d="M34.2701 109.241H32.078C31.776 109.241 31.5297 108.994 31.5297 108.692V108.494C31.5297 108.192 31.7747 107.944 32.078 107.944H34.2701C34.5708 107.944 34.8184 108.191 34.8184 108.494V108.692C34.8184 108.994 34.5708 109.241 34.2701 109.241Z" fill="#C1694F"/>
<path d="M24.6865 103.324C24.6865 105.201 23.7351 106.723 22.5619 106.723C21.3888 106.723 20.4373 105.201 20.4373 103.324C20.4373 101.447 21.3888 99.9242 22.5619 99.9242C23.7351 99.9229 24.6865 101.446 24.6865 103.324ZM45.9315 103.324C45.9315 105.201 44.9813 106.723 43.8069 106.723C42.6338 106.723 41.6823 105.201 41.6823 103.324C41.6823 101.447 42.6325 99.9242 43.8069 99.9242C44.9813 99.9229 45.9315 101.446 45.9315 103.324Z" fill="#F7DECE"/>
<path d="M33.1852 121.843C33.1852 121.843 37.568 125.076 38.4923 125.443C38.6945 125.523 38.0165 120.704 38.0165 120.704H28.3552C28.3552 120.704 27.6773 125.605 28.0519 125.403C28.8815 124.96 33.1852 121.843 33.1852 121.843" fill="#744EAA"/>
<path d="M27.0808 116.263C27.8119 116.996 33.185 120.648 33.185 120.648C33.185 120.648 30.4304 122.258 27.8884 125.23C27.6356 125.529 25.8882 119.235 25.835 117.83C25.8195 117.437 26.7295 115.911 27.0808 116.263ZM39.3165 116.263C38.5828 116.996 33.2122 120.648 33.2122 120.648C33.2122 120.648 35.9669 122.258 38.5063 125.23C38.7591 125.529 40.5039 119.235 40.5571 117.83C40.5726 117.437 39.6665 115.911 39.3165 116.263Z" fill="#CBB7EA"/>
<path d="M31.889 121.555H34.4816V129.333H31.889V121.555Z" fill="#744EAA"/>
<path d="M33.1853 128.685C33.9012 128.685 34.4816 128.105 34.4816 127.389C34.4816 126.673 33.9012 126.093 33.1853 126.093C32.4694 126.093 31.889 126.673 31.889 127.389C31.889 128.105 32.4694 128.685 33.1853 128.685Z" fill="#CBB7EA"/>
<path d="M33.1853 124.796C33.9012 124.796 34.4816 124.216 34.4816 123.5C34.4816 122.784 33.9012 122.204 33.1853 122.204C32.4694 122.204 31.889 122.784 31.889 123.5C31.889 124.216 32.4694 124.796 33.1853 124.796Z" fill="#CBB7EA"/>
<path d="M11.2315 385.294C10.5539 385.294 10.185 385.013 9.99394 384.777C9.80617 384.545 9.61181 384.135 9.74687 383.498L12.7424 369.546L10.8603 369.652H10.846C10.2783 369.652 9.86656 369.468 9.60852 369.148C9.36694 368.85 9.2802 368.466 9.36584 368.072C9.53055 367.301 10.3354 366.66 11.1963 366.613L15.5973 366.364C15.683 366.358 15.7621 366.355 15.8356 366.355C15.997 366.355 16.4242 366.355 16.6954 366.691C16.9721 367.033 16.8788 367.469 16.848 367.612L13.4177 383.597C13.2124 384.567 12.4086 385.232 11.3687 385.29L11.2315 385.294ZM23.0279 383.098C21.4478 383.098 20.1345 382.506 19.2297 381.386C17.9527 379.806 17.6189 377.377 18.2656 374.362C19.3988 369.078 22.8863 365.373 26.9425 365.144C28.6884 365.046 30.1335 365.64 31.1075 366.845C32.3845 368.425 32.7183 370.854 32.0716 373.869C30.9384 379.151 27.4509 382.855 23.3925 383.086C23.2695 383.095 23.1476 383.098 23.0279 383.098V383.098ZM26.7767 368.004L26.6263 368.009C24.496 368.13 22.7227 370.538 21.8827 374.45C21.3578 376.896 21.4643 378.731 22.1813 379.618C22.5074 380.022 22.9686 380.228 23.5528 380.228L23.7065 380.223C25.8368 380.104 27.609 377.697 28.448 373.784C28.9728 371.338 28.8674 369.502 28.1515 368.615C27.8265 368.209 27.3631 368.004 26.7767 368.004V368.004ZM39.5044 381.298C37.9242 381.298 36.6088 380.706 35.7029 379.585C34.4258 378.005 34.092 375.576 34.7388 372.561C35.8731 367.276 39.3605 363.572 43.4167 363.344C45.1769 363.245 46.6044 363.841 47.5784 365.045C48.8554 366.625 49.1893 369.054 48.5425 372.068C47.4104 377.349 43.9241 381.053 39.8656 381.287C39.7426 381.296 39.6229 381.298 39.5044 381.298V381.298ZM43.2498 366.203L43.1005 366.208C40.9692 366.33 39.1958 368.738 38.3569 372.648C37.832 375.095 37.9385 376.931 38.6555 377.817C38.9817 378.222 39.4451 378.427 40.0292 378.427L40.183 378.423C42.3121 378.303 44.0855 375.895 44.9244 371.983C45.4504 369.538 45.3449 367.702 44.6279 366.815C44.3007 366.409 43.8373 366.203 43.2498 366.203V366.203ZM21.4127 400.668C20.5233 400.668 19.6865 400.124 19.356 399.242C18.93 398.106 19.5053 396.84 20.6407 396.414C21.0108 396.276 29.8634 393.001 43.1905 391.89C44.3995 391.785 45.4602 392.689 45.5613 393.896C45.6623 395.105 44.763 396.166 43.5551 396.267C30.8286 397.328 22.2681 400.496 22.1824 400.528C21.9299 400.622 21.6685 400.668 21.4127 400.668V400.668ZM11.5312 394.079C10.6484 394.079 9.81495 393.543 9.48004 392.67C9.04521 391.538 9.60961 390.267 10.7417 389.834C11.3369 389.604 25.5831 384.205 46.5517 383.101C47.7739 383.026 48.7972 383.968 48.8609 385.179C48.9257 386.39 47.9946 387.424 46.7834 387.488C26.5538 388.553 12.4569 393.88 12.3163 393.934C12.0583 394.031 11.7926 394.079 11.5312 394.079V394.079Z" fill="#BB1A34"/>
<path d="M322.179 20.9693C322.179 14.5429 316.969 9.33337 310.544 9.33337C306.643 9.33337 303.201 11.2589 301.089 14.2021C298.977 11.2589 295.535 9.33337 291.636 9.33337C285.21 9.33337 280 14.5417 280 20.9693C280 21.8796 280.116 22.7616 280.314 23.6118C281.929 33.65 293.09 44.24 301.089 47.1479C309.088 44.24 320.249 33.65 321.863 23.613C322.063 22.7628 322.179 21.8808 322.179 20.9693V20.9693Z" fill="#DD2E44"/>
<path d="M320.365 35.1912L315.856 33.5216L314.186 29.0124C314.015 28.5479 313.573 28.2413 313.08 28.2413C312.587 28.2413 312.145 28.5479 311.974 29.0113L310.304 33.5204L305.795 35.1901C305.332 35.3599 305.025 35.802 305.025 36.2961C305.025 36.789 305.333 37.2312 305.795 37.4022L310.304 39.0719L311.974 43.581C312.145 44.0444 312.587 44.351 313.08 44.351C313.573 44.351 314.015 44.0432 314.186 43.581L315.856 39.0719L320.365 37.4022C320.827 37.2312 321.135 36.789 321.135 36.2961C321.135 35.8032 320.827 35.361 320.365 35.1912V35.1912ZM293.244 16.3235L290.455 15.2917L289.424 12.503C289.252 12.0396 288.811 11.733 288.318 11.733C287.824 11.733 287.383 12.0396 287.212 12.503L286.179 15.2917L283.391 16.3235C282.928 16.4957 282.621 16.9367 282.621 17.4296C282.621 17.9224 282.928 18.3634 283.391 18.5356L286.18 19.5674L287.212 22.3561C287.384 22.8195 287.825 23.1261 288.318 23.1261C288.811 23.1261 289.252 22.8195 289.424 22.3561L290.455 19.5674L293.244 18.5356C293.708 18.3634 294.014 17.9236 294.014 17.4296C294.014 16.9367 293.708 16.4957 293.244 16.3235V16.3235Z" fill="#FDCB58"/>
<path d="M318.484 483.333V478.732C318.484 474.376 313.64 471.502 309.282 471.502H293.507C289.152 471.502 284.306 474.376 284.306 478.732V483.333H318.484Z" fill="#292F33"/>
<path d="M288.381 479.838C288.711 479.838 288.908 483.333 288.908 483.333H287.651C287.651 483.333 287.905 479.838 288.381 479.838ZM292.324 479.838C292.654 479.838 292.852 483.333 292.852 483.333H291.594C291.595 483.333 291.849 479.838 292.324 479.838V479.838ZM310.524 479.838C310.196 479.838 309.998 483.333 309.998 483.333H311.254C311.254 483.333 311 479.838 310.524 479.838ZM314.468 479.838C314.139 479.838 313.942 483.333 313.942 483.333H315.197C315.197 483.333 314.944 479.838 314.468 479.838Z" fill="#66757F"/>
<path d="M301.395 481.244C306.755 478.684 308.782 471.502 308.782 471.502H294.007C294.007 471.502 296.034 478.684 301.395 481.244Z" fill="#9266CC"/>
<path d="M294.822 471.502H307.803C307.803 471.502 306.152 476.103 301.312 476.103C296.472 476.103 294.822 471.502 294.822 471.502Z" fill="#744EAA"/>
<path d="M301.321 442.673C306.719 442.673 315.713 445.372 315.713 457.065C315.713 468.758 315.713 471.456 313.014 471.456C310.314 471.456 306.717 468.758 301.32 468.758C295.924 468.758 292.402 471.456 289.627 471.456C286.62 471.456 286.928 460.663 286.928 457.065C286.931 445.372 295.925 442.673 301.321 442.673" fill="#292F33"/>
<path d="M296.568 471.529C296.568 473.474 299.423 474.131 301.395 474.131C303.367 474.131 306.206 473.474 306.206 471.529V467.316H296.568V471.529V471.529Z" fill="#F7DECE"/>
<path d="M296.558 469.109C297.903 470.627 299.57 471.038 301.382 471.038C303.194 471.038 304.861 470.628 306.206 469.109V465.249H296.558V469.109V469.109Z" fill="#EEC2AD"/>
<path d="M290.529 456.67C290.529 449.001 295.361 442.785 301.321 442.785C307.281 442.785 312.115 449.001 312.115 456.67C312.115 464.338 307.281 470.192 301.321 470.192C295.361 470.192 290.529 464.339 290.529 456.67" fill="#F7DECE"/>
<path d="M301.321 466.958C299.211 466.958 298.106 465.914 297.988 465.795C297.635 465.444 297.635 464.875 297.988 464.524C298.337 464.175 298.897 464.173 299.249 464.514C299.295 464.556 299.976 465.16 301.321 465.16C302.687 465.16 303.368 464.538 303.394 464.513C303.753 464.177 304.318 464.187 304.66 464.539C305.002 464.893 305.002 465.448 304.655 465.795C304.538 465.914 303.434 466.958 301.321 466.958" fill="#DF1F32"/>
<path d="M296.936 459.522C296.324 459.522 295.824 459.021 295.824 458.41V457.299C295.824 456.687 296.324 456.187 296.936 456.187C297.547 456.187 298.049 456.687 298.049 457.299V458.41C298.049 459.021 297.547 459.522 296.936 459.522ZM305.829 459.522C305.217 459.522 304.716 459.021 304.716 458.41V457.299C304.716 456.687 305.217 456.187 305.829 456.187C306.44 456.187 306.941 456.687 306.941 457.299V458.41C306.941 459.021 306.44 459.522 305.829 459.522Z" fill="#662113"/>
<path d="M302.495 462.958H300.272C299.966 462.958 299.716 462.708 299.716 462.402V462.201C299.716 461.895 299.964 461.643 300.272 461.643H302.495C302.8 461.643 303.051 461.893 303.051 462.201V462.402C303.051 462.708 302.8 462.958 302.495 462.958Z" fill="#C1694F"/>
<path d="M287.888 460.986C287.86 459.672 287.83 460.692 287.83 460.375C287.83 455.876 290.529 461.024 290.529 457.821C290.529 454.614 292.327 454.294 294.125 452.495C295.026 451.595 296.824 449.832 296.824 449.832C296.824 449.832 301.321 452.549 304.919 452.549C308.516 452.549 312.115 454.357 312.115 457.955C312.115 461.553 314.814 455.872 314.814 460.37C314.814 460.69 314.783 459.672 314.761 460.986H315.705C315.714 458.357 315.714 458.457 315.714 456.777C315.714 445.084 306.719 440.73 301.323 440.73C295.926 440.73 286.932 445.012 286.932 456.705C286.932 457.747 286.906 458.357 286.943 460.986H287.888V460.986Z" fill="#292F33"/>
<path d="M292.777 456.958C292.777 458.862 291.812 460.405 290.622 460.405C289.432 460.405 288.467 458.862 288.467 456.958C288.467 455.055 289.432 453.51 290.622 453.51C291.812 453.509 292.777 455.053 292.777 456.958ZM314.321 456.958C314.321 458.862 313.357 460.405 312.166 460.405C310.976 460.405 310.012 458.862 310.012 456.958C310.012 455.055 310.975 453.51 312.166 453.51C313.357 453.509 314.321 455.053 314.321 456.958Z" fill="#F7DECE"/>
<path d="M319.935 440.625L301.531 436.681C301.442 436.662 301.347 436.662 301.257 436.681L282.853 440.625C282.559 440.688 282.344 440.944 282.334 441.246C282.325 441.547 282.52 441.816 282.811 441.9L289.31 443.758C289.058 444.54 288.906 445.443 288.906 446.526C288.906 449.536 293.225 451.127 301.395 451.127C309.565 451.127 313.883 449.536 313.883 446.526C313.883 445.443 313.732 444.54 313.479 443.758L319.98 441.9C320.27 441.817 320.466 441.547 320.456 441.246C320.445 440.944 320.231 440.688 319.935 440.625V440.625Z" fill="#292F33"/>
<path d="M320.429 441.088C320.329 440.739 319.969 440.54 319.617 440.636L301.395 445.842L283.171 440.636C282.827 440.54 282.459 440.738 282.359 441.088C282.259 441.436 282.461 441.8 282.811 441.9L301.215 447.158C301.274 447.175 301.334 447.183 301.393 447.183C301.453 447.183 301.514 447.175 301.574 447.158L319.977 441.9C320.328 441.8 320.531 441.436 320.429 441.088Z" fill="#66757F"/>
<path d="M301.339 440.613L285.565 441.928C285.531 441.93 284.963 442.003 284.963 442.582V450.595C284.57 450.839 284.306 451.567 284.306 453.756C284.306 457.023 284.894 459.672 285.62 459.672C286.346 459.672 286.935 457.023 286.935 453.756C286.935 451.567 286.67 450.839 286.277 450.595V443.187L301.45 441.923C301.81 441.892 302.08 441.575 302.049 441.213C302.019 440.851 301.697 440.579 301.339 440.613V440.613Z" fill="#FFCC4D"/>
<path d="M557.104 33.2672C557.001 34.4872 557.529 34.8524 558.356 35.432C559.174 36.005 564.156 31.6383 565.785 30.974C567.414 30.3097 582.705 27.0717 582.042 24.1156C581.379 21.1594 576.759 20.7227 573.199 21.3261C569.639 21.9295 562.827 25.0604 560.837 26.7502C558.847 28.4386 557.104 33.2672 557.104 33.2672V33.2672ZM568.513 35.2481C568.513 35.2481 563.806 36.7765 563.806 40.7462C563.806 44.716 564.952 46.9549 565.495 48.0413C566.039 49.1264 567.729 50.1797 570.067 49.1674C572.782 47.991 569.417 41.2226 578.006 44.3296C581.942 45.7521 586.024 47.6748 589.994 46.3515C593.76 45.0958 595.21 40.3585 595.21 37.712C595.21 32.2946 591.24 33.7422 589.917 35.0655C588.594 36.3887 578.008 39.0353 576.684 39.0353C575.361 39.0353 568.513 35.2481 568.513 35.2481Z" fill="#E0AA94"/>
<path d="M574.451 41.9304C574.451 41.9304 574.292 40.189 572.631 39.9865C571.267 39.8211 569.117 40.2763 568 42.5087C566.883 44.7423 564.898 44.3692 564.981 46.2297C565.063 48.0902 565.643 49.5378 566.842 49.9096C568.042 50.2828 569.737 49.6212 569.944 47.6363C570.15 45.6514 570.399 43.8319 571.68 43.0459C572.963 42.2612 574.451 41.9304 574.451 41.9304Z" fill="#EEC2AD"/>
<path d="M572.714 39.0352C572.714 39.0352 571.391 37.7119 568.744 37.7119C566.098 37.7119 559.926 40.5344 561.797 46.1477C563.121 50.1174 566.884 48.2569 567.421 44.3282C567.96 40.3941 572.714 39.0352 572.714 39.0352Z" fill="#E0AA94"/>
<path d="M571.391 39.0352C571.391 39.0352 570.068 37.7119 567.421 37.7119C564.775 37.7119 560.957 39.7365 560.805 45.6514C560.681 50.4893 566.139 48.2979 566.098 44.3282C566.057 40.3584 571.391 39.0352 571.391 39.0352Z" fill="#EEC2AD"/>
<path d="M555.512 40.3584C555.512 44.7212 556.117 47.3532 558.725 46.9046C563.051 46.1609 561.409 40.7991 565.194 39.2906C567.943 38.1962 571.944 38.4569 575.807 40.7501C578.352 42.2613 576.684 36.3887 574.038 35.0654C571.391 33.7422 563.452 35.0654 562.128 35.0654C560.805 35.0654 555.512 40.3584 555.512 40.3584Z" fill="#E0AA94"/>
<path d="M555.303 40.5887C553.198 44.1152 554.479 47.7608 558.159 46.9748C561.72 46.2152 559.936 41.5891 563.452 39.0352C565.422 37.6035 569.668 37.1231 572.315 38.4464C574.962 39.7696 575.361 36.3887 572.715 35.0655C570.068 33.7422 561.414 35.0324 560.093 35.1144C557.567 35.2719 555.303 40.5887 555.303 40.5887Z" fill="#EEC2AD"/>
<path d="M561.358 43.1558C560.46 44.1853 558.897 44.2925 557.866 43.394L557.607 43.1677C556.576 42.2692 556.47 40.7078 557.369 39.677L587.172 5.5145C588.071 4.48501 589.634 4.37783 590.664 5.27632L590.923 5.5026C591.953 6.40108 592.059 7.96385 591.162 8.99334L561.358 43.1558Z" fill="#3B88C3"/>
<path d="M562.777 41.5308C559.654 45.1102 551.777 52.1287 550.779 51.2593C549.782 50.39 555.666 41.6327 558.789 38.0519C561.911 34.4712 560.986 37.3347 562.087 38.2967C563.188 39.2574 565.9 37.9527 562.777 41.5308V41.5308Z" fill="#3B88C3"/>
<path d="M557.725 37.7463C557.725 39.0696 560.928 40.2804 562.252 38.9571C563.575 37.6338 566.673 36.0089 570.746 37.7119C580.278 41.6949 576.684 36.3887 572.715 35.0654C568.745 33.7422 562.129 35.0654 560.805 35.0654C559.482 35.0654 557.725 37.7463 557.725 37.7463V37.7463Z" fill="#E0AA94"/>
<path d="M557.093 33.7991C556.62 32.3264 559.989 24.1672 561.514 22.9035C563.436 21.3129 570.869 18.8503 573.515 18.8503C576.162 18.8503 595.21 28.4492 595.21 35.0655C595.21 41.6818 592.563 42.5088 588.759 43.5423C585.717 44.3693 579.344 43.8625 576.56 41.2676C574.12 38.9942 572.425 37.4222 570.068 36.3888C565.699 34.4727 562.786 36.9498 561.463 38.2731C558.816 40.9196 553.83 38.0627 557.989 33.5358C560.965 30.2952 563.587 29.2855 566.098 28.4492C574.038 25.8027 579.331 25.8027 576.684 23.1562C575.749 22.2207 575.239 23.6141 573.937 23.8509C571.317 24.3273 569.232 24.6475 565.779 25.7987C564.586 26.1957 558.935 29.7989 557.093 33.7991Z" fill="#F7DECE"/>
<path d="M566.358 26.1666C567.766 25.6532 573.903 24.5363 577.096 23.4301C579.675 22.5356 581.938 24.2717 577.043 26.1137C572.319 27.8908 567.411 27.7452 563.832 29.1664C562.478 29.7037 561.304 28.0086 566.358 26.1666V26.1666Z" fill="#E0AA94"/>
<path d="M578.652 15.2469C578.652 15.2469 570.808 24.2385 567.476 28.0309C570.458 26.8056 573.127 27.0385 575.677 25.5379C578.227 24.0387 579.39 22.4388 583.26 18.002C584.697 16.3558 578.652 15.2469 578.652 15.2469V15.2469Z" fill="#3B88C3"/>
<path d="M589.142 473.009C589.146 473.403 589.044 473.918 588.938 474.343C588.199 477.328 584.918 480.678 580.298 480.373C576.112 480.098 572.702 478.088 572.702 475.27C572.702 472.451 576.103 470.166 580.298 470.166C584.493 470.166 589.115 470.191 589.142 473.009V473.009Z" fill="#EA596E"/>
<path d="M580.298 470.639C578.045 470.639 572.902 471.263 571.722 471.263C569.637 471.263 567.946 472.571 567.946 474.185C567.946 474.962 568.344 475.663 568.982 476.187C568.982 476.187 570.382 477.591 572.904 476.917C574.007 476.622 575.803 474.432 578.964 474.084C580.538 473.91 583.487 475.128 588.67 475.157C588.893 474.678 588.939 474.345 588.939 474.345C588.939 471.524 584.493 470.639 580.298 470.639Z" fill="#DD2E44"/>
<path d="M588.938 474.343C588.938 474.343 591.978 473.726 593.868 471.24C596.071 468.341 595.782 465.239 595.782 465.239C598.014 461.064 595.086 457.149 595.086 457.149C594.795 452.741 592.07 450.915 592.07 450.915C590.301 446.71 586.387 445.58 586.387 445.58C583.314 441.985 577.863 442.101 577.863 442.101C577.863 442.101 572.755 440.229 565.743 442.333C564.584 442.681 560.698 443.492 557.856 445.232C548.898 450.716 548.22 459.267 548.346 460.657C549.04 468.428 554.492 469.819 557.971 470.631C558.783 472.834 561.769 476.894 567.133 475.387C573.744 474.227 576.528 472.255 578.152 472.255C579.776 472.255 584.3 473.995 588.938 474.343Z" fill="#F4ABBA"/>
<path d="M572.219 461.849C575.459 460.102 577.215 460.265 578.766 460.405C579.259 460.45 579.725 460.485 580.197 460.482C582.958 460.419 585.195 459.256 586.184 458.13C586.437 457.84 586.408 457.402 586.12 457.147C585.833 456.894 585.395 456.92 585.138 457.21C584.375 458.078 582.495 459.037 580.165 459.09C579.747 459.103 579.328 459.061 578.894 459.02C577.231 458.866 575.165 458.677 571.558 460.624C570.632 461.123 569.363 461.309 567.988 461.448C564.93 457.034 566.77 453.19 567.296 452.274C567.348 452.277 567.398 452.294 567.451 452.294C568.007 452.294 568.567 452.158 569.073 451.871C569.408 451.682 569.526 451.257 569.337 450.923C569.147 450.589 568.723 450.471 568.389 450.66C567.498 451.164 566.326 450.873 565.772 450.01C565.565 449.686 565.135 449.591 564.812 449.8C564.489 450.007 564.394 450.437 564.602 450.76C564.932 451.277 565.396 451.665 565.921 451.925C565.196 453.398 563.819 457.27 566.439 461.599C564.596 461.78 562.751 462.041 561.306 462.972C560.373 463.573 559.42 464.453 558.692 465.464C557.817 465.314 554.611 464.525 554.052 460.968C554.4 460.698 554.681 460.341 554.855 459.901C554.997 459.544 554.822 459.14 554.464 458.998C554.106 458.856 553.703 459.032 553.561 459.389C553.437 459.702 553.213 459.931 552.929 460.031C552.648 460.131 552.329 460.098 552.034 459.933C551.696 459.746 551.274 459.869 551.087 460.203C550.901 460.539 551.022 460.963 551.357 461.15C551.753 461.37 552.176 461.481 552.596 461.481C552.648 461.481 552.696 461.457 552.748 461.455C553.41 464.813 556.064 466.288 557.942 466.735C557.697 467.275 557.531 467.832 557.481 468.394C557.448 468.775 557.73 469.115 558.113 469.148L558.176 469.151C558.532 469.151 558.837 468.88 558.869 468.517C559.019 466.828 560.63 465.065 562.06 464.139C563.402 463.275 565.366 463.093 567.267 462.916C569.111 462.748 570.854 462.586 572.219 461.849ZM590.126 459.755C589.943 460.092 590.069 460.515 590.404 460.698C590.51 460.756 590.625 460.784 590.738 460.784C590.983 460.784 591.221 460.654 591.348 460.423C591.374 460.376 593.911 455.623 589.161 452.429C588.844 452.217 588.411 452.299 588.195 452.618C587.981 452.937 588.066 453.37 588.385 453.584C592.064 456.059 590.206 459.605 590.126 459.755V459.755ZM561.278 448.518C561.495 448.518 561.708 448.418 561.843 448.228C563.861 445.421 566.656 446.382 566.774 446.426C567.135 446.557 567.531 446.373 567.665 446.014C567.799 445.654 567.615 445.254 567.254 445.121C565.918 444.625 562.833 444.469 560.713 447.417C560.489 447.727 560.56 448.163 560.872 448.387C560.996 448.476 561.138 448.518 561.278 448.518V448.518ZM579.472 445.89C582.568 445.638 583.977 447.883 584.041 447.989C584.172 448.209 584.403 448.331 584.641 448.331C584.76 448.331 584.883 448.301 584.993 448.235C585.324 448.041 585.435 447.615 585.242 447.283C585.167 447.157 583.377 444.196 579.363 444.503C578.98 444.532 578.695 444.867 578.724 445.251C578.755 445.634 579.101 445.925 579.472 445.89V445.89ZM592.206 466.226C591.864 466.206 591.487 466.478 591.456 466.862C591.453 466.887 591.232 469.254 588.798 470.055C588.433 470.174 588.234 470.567 588.355 470.933C588.45 471.225 588.724 471.411 589.016 471.411C589.089 471.411 589.161 471.4 589.234 471.377C592.535 470.294 592.833 467.112 592.844 466.977C592.873 466.593 592.589 466.256 592.206 466.226V466.226Z" fill="#EA596E"/>
<path d="M557.758 459.463C557.658 459.835 557.878 460.216 558.249 460.316C558.309 460.333 558.371 460.34 558.43 460.34C558.738 460.34 559.018 460.135 559.101 459.825C559.366 458.835 560.391 458.201 561.4 458.414C561.778 458.49 562.145 458.252 562.224 457.875C562.304 457.499 562.063 457.13 561.686 457.051C561.093 456.926 560.497 456.984 559.949 457.171C558.326 454.395 558.642 451.659 558.646 451.63C558.696 451.25 558.429 450.901 558.049 450.848C557.67 450.802 557.32 451.062 557.267 451.442C557.249 451.577 556.877 454.665 558.746 457.864C558.281 458.283 557.928 458.83 557.758 459.463V459.463ZM573.317 456.025C573.883 455.501 574.792 455.51 575.342 456.046C575.478 456.177 575.652 456.242 575.828 456.242C576.01 456.242 576.191 456.171 576.326 456.031C576.593 455.755 576.588 455.314 576.312 455.047C575.992 454.736 575.609 454.529 575.203 454.4C575.615 452.986 575.452 452.358 575.069 451.182C575.002 450.977 574.929 450.749 574.851 450.489L574.809 450.349C574.302 448.668 573.967 447.559 574.93 445.993C575.132 445.666 575.029 445.237 574.702 445.036C574.38 444.835 573.947 444.934 573.744 445.264C572.453 447.363 572.927 448.934 573.477 450.753L573.519 450.892C573.601 451.162 573.676 451.399 573.746 451.612C574.089 452.671 574.194 453.026 573.773 454.306C573.26 454.402 572.769 454.635 572.368 455.008C572.087 455.269 572.071 455.711 572.333 455.992C572.596 456.273 573.037 456.287 573.317 456.025ZM582.176 451.871C582.581 451.871 582.99 451.786 583.371 451.605C583.719 451.441 583.868 451.026 583.704 450.678C583.541 450.33 583.121 450.185 582.778 450.345C582.08 450.674 581.218 450.388 580.852 449.709C580.67 449.37 580.245 449.246 579.91 449.424C579.572 449.605 579.444 450.028 579.626 450.366C579.876 450.834 580.249 451.203 580.684 451.459C579.936 453.275 580.361 455.204 580.707 456.227C580.805 456.518 581.076 456.7 581.367 456.7C581.441 456.7 581.515 456.689 581.59 456.664C581.954 456.542 582.149 456.146 582.025 455.783C581.792 455.09 581.338 453.339 582.023 451.85C582.075 451.853 582.124 451.871 582.176 451.871V451.871ZM588.852 464.994C588.826 464.611 588.494 464.309 588.113 464.344C586.702 464.444 585.499 463.374 585.403 461.974C585.375 461.591 585.034 461.306 584.661 461.327C584.279 461.353 583.989 461.686 584.014 462.068C584.071 462.89 584.384 463.63 584.86 464.233C583.741 465.549 582.276 465.924 581.459 466.02C580.737 466.106 580.105 466.032 579.374 465.946C578.705 465.869 577.947 465.782 577.011 465.809L577.004 465.811C576.976 465.413 576.881 464.832 576.579 464.349C576.376 464.025 575.946 463.926 575.62 464.13C575.296 464.333 575.196 464.763 575.4 465.089C575.587 465.388 575.622 465.865 575.622 466.098C574.92 466.349 574.313 466.72 573.765 467.077C572.785 467.715 572.013 468.219 570.851 467.957C569.799 467.716 568.745 467.668 567.851 467.793C567.712 467.443 567.492 467.026 567.153 466.704C566.873 466.44 566.433 466.451 566.169 466.732C565.906 467.011 565.917 467.452 566.197 467.716C566.316 467.829 566.411 467.993 566.487 468.157C564.952 468.789 564.183 469.846 564.146 469.897C563.924 470.209 563.998 470.639 564.307 470.863C564.429 470.951 564.571 470.994 564.713 470.994C564.929 470.994 565.142 470.895 565.278 470.709C565.285 470.697 566.049 469.674 567.556 469.261C568.336 469.047 569.453 469.065 570.543 469.313C570.848 469.382 571.13 469.406 571.405 469.41C571.534 469.713 571.584 470.074 571.591 470.208C571.613 470.578 571.92 470.864 572.286 470.864L572.323 470.863C572.706 470.842 573 470.518 572.982 470.135C572.977 470.066 572.95 469.654 572.801 469.18C573.442 468.948 574 468.585 574.525 468.244C575.321 467.725 576.074 467.233 577.058 467.201C577.882 467.172 578.561 467.251 579.217 467.328C579.876 467.404 580.525 467.455 581.24 467.413C581.367 467.765 581.357 468.235 581.338 468.393C581.292 468.773 581.561 469.121 581.942 469.171C581.971 469.175 582 469.176 582.03 469.176C582.373 469.176 582.673 468.922 582.718 468.571C582.73 468.484 582.801 467.858 582.636 467.205C583.636 466.937 584.874 466.354 585.9 465.158C586.5 465.526 587.2 465.741 587.945 465.741C588.031 465.741 588.119 465.738 588.205 465.733C588.588 465.708 588.877 465.378 588.852 464.994V464.994Z" fill="#EA596E"/>
<path d="M868 106C868 117.598 858.598 127 847 127C835.403 127 826 117.598 826 106C826 94.4033 835.403 85 847 85C858.598 85 868 94.4033 868 106Z" fill="#FFCB4C"/>
<path d="M840.205 106.485C841.911 106.485 843.293 104.549 843.293 102.162C843.293 99.7737 841.911 97.8379 840.205 97.8379C838.5 97.8379 837.117 99.7737 837.117 102.162C837.117 104.549 838.5 106.485 840.205 106.485Z" fill="#65471B"/>
<path d="M855.029 109.705C859.463 109.705 863.058 106.111 863.058 101.676C863.058 97.2422 859.463 93.6475 855.029 93.6475C850.595 93.6475 847 97.2422 847 101.676C847 106.111 850.595 109.705 855.029 109.705Z" fill="#F4F7F9"/>
<path d="M843.296 96.6036C842.92 96.6036 842.549 96.4333 842.307 96.1101C841.15 94.5689 839.941 93.7429 838.71 93.6554C837.088 93.5446 835.766 94.7603 835.52 95.0064C835.037 95.4894 834.255 95.4894 833.774 95.0064C833.291 94.5234 833.291 93.7418 833.774 93.2599C834.307 92.7268 836.257 91.0013 838.885 91.1914C840.862 91.3314 842.678 92.4876 844.283 94.6273C844.692 95.1733 844.582 95.9479 844.037 96.3563C843.813 96.5231 843.553 96.6036 843.296 96.6036Z" fill="#65471B"/>
<path d="M864.295 127C863.612 127 863.059 126.447 863.059 125.764V102.295C863.059 101.612 863.612 101.059 864.295 101.059C864.977 101.059 865.53 101.612 865.53 102.295V125.766C865.529 126.447 864.977 127 864.295 127Z" fill="#292F33"/>
<path d="M864.295 99.8237C864.232 99.8237 864.172 99.8377 864.11 99.8424C863.256 95.6097 859.51 92.4119 855.029 92.4119C849.92 92.4119 845.764 96.5675 845.764 101.676C845.764 106.785 849.92 110.941 855.029 110.941C859.075 110.941 862.514 108.33 863.774 104.707C863.942 104.744 864.115 104.765 864.293 104.765C865.658 104.765 866.764 103.659 866.764 102.294C866.764 100.93 865.658 99.8237 864.295 99.8237V99.8237ZM855.029 108.471C851.283 108.471 848.235 105.424 848.235 101.676C848.235 97.929 851.284 94.8817 855.029 94.8817C858.775 94.8817 861.824 97.929 861.824 101.676C861.824 105.424 858.775 108.471 855.029 108.471Z" fill="#67757F"/>
<path d="M850.704 118.353C850.519 118.353 850.33 118.311 850.152 118.222C848.03 117.16 845.967 117.16 843.845 118.222C843.234 118.527 842.492 118.28 842.187 117.669C841.882 117.059 842.129 116.317 842.74 116.011C845.565 114.6 848.43 114.6 851.257 116.011C851.867 116.317 852.115 117.059 851.81 117.669C851.594 118.103 851.158 118.353 850.704 118.353V118.353Z" fill="#65471B"/>
<path d="M858.724 95.9795C857.66 95.2876 856.393 94.8828 855.029 94.8828C851.277 94.8828 848.234 97.9243 848.234 101.677C848.234 103.041 848.64 104.308 849.331 105.372L858.724 95.9795ZM852.13 107.814C853.011 108.231 853.991 108.471 855.029 108.471C858.781 108.471 861.824 105.429 861.824 101.676C861.824 100.638 861.583 99.6568 861.167 98.7771L852.13 107.814Z" fill="#BDDDF4"/>
<path d="M869.157 405.333V398.852C869.157 394.556 865.676 391.074 861.38 391.074H840.639C836.344 391.074 832.861 394.556 832.861 398.852V405.333H869.157Z" fill="#77B255"/>
<path d="M845.357 391.211C845.357 392.37 848.417 393.795 851.009 393.795C853.602 393.795 856.66 392.37 856.66 391.213V386.265H845.356V391.211H845.357Z" fill="#F7DECE"/>
<path d="M845.347 388.447C846.923 390.228 848.878 390.71 851.004 390.71C853.129 390.71 855.082 390.226 856.66 388.447V383.921H845.346V388.447H845.347Z" fill="#EEC2AD"/>
<path d="M842.511 375.436C842.511 377.313 841.559 378.834 840.386 378.834C839.213 378.834 838.262 377.313 838.262 375.436C838.262 373.559 839.213 372.035 840.386 372.035C841.559 372.034 842.511 373.557 842.511 375.436ZM863.756 375.436C863.756 377.313 862.806 378.834 861.631 378.834C860.458 378.834 859.507 377.313 859.507 375.436C859.507 373.559 860.457 372.035 861.631 372.035C862.806 372.034 863.756 373.557 863.756 375.436Z" fill="#F7DECE"/>
<path d="M839.961 376.763C839.961 369.518 844.908 363.643 851.01 363.643C857.111 363.643 862.057 369.518 862.057 376.763C862.057 384.008 857.111 389.883 851.01 389.883C844.909 389.882 839.961 384.008 839.961 376.763" fill="#F7DECE"/>
<path d="M851.009 385.632C847.439 385.632 846.343 384.718 846.16 384.533C845.828 384.201 845.828 383.663 846.16 383.331C846.481 383.01 846.997 383.001 847.329 383.301C847.397 383.349 848.264 383.933 851.009 383.933C853.861 383.933 854.686 383.304 854.693 383.298C855.025 382.967 855.545 382.983 855.877 383.317C856.209 383.649 856.191 384.202 855.859 384.533C855.676 384.718 854.579 385.632 851.009 385.632Z" fill="#C1694F"/>
<path d="M851.009 358.667C858.331 358.667 862.907 364.692 862.907 369.194C862.907 373.696 861.992 375.498 861.076 373.696L859.246 370.095C859.246 370.095 853.756 370.095 851.926 368.293C851.926 368.293 854.671 373.696 849.18 368.293C849.18 368.293 850.095 371.895 844.604 367.393C844.604 367.393 841.859 369.194 840.944 373.696C840.69 374.946 839.113 373.696 839.113 369.194C839.112 364.692 842.773 358.667 851.009 358.667Z" fill="#292F33"/>
<path d="M845.824 376.815C845.111 376.815 844.528 376.231 844.528 375.518V374.222C844.528 373.509 845.111 372.926 845.824 372.926C846.537 372.926 847.12 373.509 847.12 374.222V375.518C847.12 376.231 846.537 376.815 845.824 376.815ZM856.194 376.815C855.481 376.815 854.898 376.231 854.898 375.518V374.222C854.898 373.509 855.481 372.926 856.194 372.926C856.907 372.926 857.491 373.509 857.491 374.222V375.518C857.491 376.231 856.907 376.815 856.194 376.815Z" fill="#662113"/>
<path d="M851.982 380.38H850.037C849.502 380.38 849.065 379.943 849.065 379.407C849.065 378.872 849.502 378.435 850.037 378.435H851.982C852.517 378.435 852.954 378.872 852.954 379.407C852.954 379.943 852.517 380.38 851.982 380.38Z" fill="#C1694F"/>
<path d="M866.565 404.037C866.565 404.754 865.985 405.333 865.269 405.333H852.306C851.589 405.333 851.009 404.754 851.009 404.037C851.009 403.32 851.589 402.741 852.306 402.741H865.269C865.985 402.741 866.565 403.32 866.565 404.037Z" fill="#E1E8ED"/>
<path d="M850.024 387.185H828.66C826.685 387.185 824.152 388.185 825.448 391.762L829.43 402.748C829.431 402.748 829.945 405.333 832.861 405.333H858.787L853.602 390.763C853.034 389.049 852.001 387.185 850.024 387.185V387.185Z" fill="#E1E8ED"/>
<path d="M848.728 387.185H827.364C825.388 387.185 822.855 388.185 824.151 391.762L828.134 402.748C828.135 402.748 828.648 405.333 831.565 405.333H857.491L852.306 390.763C851.738 389.049 850.705 387.185 848.728 387.185V387.185Z" fill="#99AAB5"/>
<path d="M841.96 396.626C842.639 398.664 842.088 400.683 840.73 401.136C839.371 401.589 837.72 400.305 837.041 398.267C836.361 396.229 836.912 394.21 838.271 393.757C839.629 393.305 841.282 394.588 841.96 396.626ZM848.417 390.75H827.676C827.14 390.75 826.704 390.314 826.704 389.778C826.704 389.241 827.14 388.805 827.676 388.805H848.417C848.954 388.805 849.389 389.241 849.389 389.778C849.389 390.314 848.954 390.75 848.417 390.75Z" fill="#E1E8ED"/>
</svg>
