<svg width="875" height="488" viewBox="0 0 875 488" fill="none" xmlns="http://www.w3.org/2000/svg">
<path d="M52.9241 105.457C49.2503 100.106 41.6553 107.981 27.7941 109.582C22.662 110.174 18.0378 114.459 12.0761 114.051C9.6317 113.883 6.21834 106.85 3.66294 107.971C2.34825 108.549 1.74497 110.477 3.09665 111.925L18.1046 129.833C18.1046 129.833 18.8673 130.712 21.4369 130.103C22.0701 130.29 31.5888 126.475 37.0923 118.839C38.4098 117.01 39.9806 115.488 41.6069 114.216C46.887 110.312 52.6267 108.951 52.6267 108.951C53.3609 108.345 53.533 107.701 53.4932 107.142C53.5416 106.208 52.9241 105.457 52.9241 105.457V105.457Z" fill="#5C913B"/>
<path d="M18.5968 96.9117C13.2143 104.382 3.78804 107.92 3.78804 107.92C2.02943 109.41 3.51486 111.166 3.51486 111.166L18.3663 128.75C18.3663 128.75 19.109 129.628 21.6104 129.019C21.6104 129.019 31.0366 125.488 36.4177 118.018C41.9654 110.32 51.9693 107.89 51.9693 107.89C53.7264 106.401 52.2424 104.642 52.2424 104.642L37.391 87.06C37.391 87.06 36.6482 86.1807 34.1469 86.7869C34.1469 86.7869 24.1444 89.2114 18.5968 96.9117V96.9117Z" fill="#A7D28B"/>
<path d="M33.5708 110.039C37.8927 110.039 41.3963 106.535 41.3963 102.213C41.3963 97.8913 37.8927 94.3877 33.5708 94.3877C29.2489 94.3877 25.7452 97.8913 25.7452 102.213C25.7452 106.535 29.2489 110.039 33.5708 110.039Z" fill="#77B255"/>
<path d="M20.5848 127.723C19.3313 127.723 18.8717 127.256 18.8091 127.185L5.42174 111.558C5.39613 111.528 4.71744 110.751 4.79997 109.764C4.84977 109.165 5.15994 108.631 5.72054 108.177L5.81018 108.123C5.89697 108.089 14.5791 104.521 19.4451 98.071L19.7297 98.2844L19.4451 98.071C24.5929 91.2471 33.4728 88.319 33.561 88.2905C36.0438 87.7128 36.8563 88.5381 36.9431 88.6348L50.154 104.349C50.1782 104.374 50.8555 105.154 50.773 106.143C50.7232 106.74 50.413 107.274 49.8524 107.728L49.7115 107.797C49.6247 107.819 40.991 109.964 35.9898 116.592C31.0113 123.194 22.3207 127.465 22.2339 127.506C21.5737 127.663 21.0302 127.723 20.5848 127.723V127.723ZM19.3455 126.717C19.347 126.717 19.9887 127.309 21.9991 126.842C22.0105 126.826 30.5489 122.628 35.4249 116.165C40.3152 109.684 48.5505 107.369 49.4639 107.129C49.8296 106.814 50.0317 106.466 50.0644 106.091C50.1241 105.409 49.6205 104.821 49.6162 104.815L36.4052 89.1001C36.4024 89.1001 35.765 88.5096 33.7531 88.9763C33.6948 88.9962 25.024 91.859 20.0143 98.4993C15.225 104.847 6.86876 108.452 6.13031 108.762C5.74899 109.082 5.54126 109.439 5.50854 109.822C5.45162 110.499 5.95246 111.084 5.95673 111.09L19.3455 126.717V126.717Z" fill="#5C913B"/>
<path d="M32.5407 113.832L32.5322 122.283L33.2393 123.123C34.618 121.865 35.9427 120.451 37.0881 118.86C38.2761 117.213 39.6563 115.802 41.1118 114.612L40.4246 113.793L32.5407 113.832V113.832Z" fill="#FFAC33"/>
<path d="M40.3977 113.763L22.6038 92.687C21.1582 93.8765 19.7695 95.2638 18.5886 96.9043C17.4347 98.5064 16.0915 99.9164 14.6971 101.16L16.7773 103.623L16.7759 103.624L32.5337 122.283C33.9281 121.038 35.2556 119.614 36.4109 118.01C37.5919 116.371 38.9791 114.986 40.4233 113.796L40.3963 113.763H40.3977V113.763Z" fill="#FFE8B6"/>
<path d="M22.8697 114.386C20.6544 111.762 15.9647 116.019 14.6273 114.435C13.9799 113.668 14.3968 112.674 15.2476 111.957C16.6776 110.747 17.7091 111.452 18.3565 110.904C18.8161 110.517 18.7919 110.043 18.5187 109.717C17.8841 108.967 16.2621 109.359 15.0015 110.087L14.3883 109.362C14.0055 108.909 13.3282 108.851 12.8758 109.234C12.4233 109.618 12.3664 110.292 12.7492 110.745L13.3837 111.497C12.4205 112.775 12.0932 114.471 13.2329 115.818C15.3615 118.337 20.1094 114.151 21.6034 115.921C22.1213 116.535 21.9762 117.708 20.8863 118.627C19.2529 120.009 17.7732 119.361 17.1087 119.922C16.7843 120.194 16.726 120.711 17.0717 121.123C17.6223 121.773 19.3767 121.633 21.0627 120.583C21.0656 120.586 21.0656 120.589 21.0656 120.592L21.7585 121.412C22.1412 121.864 22.8199 121.919 23.2724 121.54C23.7263 121.155 23.7818 120.478 23.399 120.026L22.7061 119.206C22.699 119.198 22.6876 119.192 22.6791 119.183C23.8159 117.792 24.2001 115.958 22.8697 114.386V114.386Z" fill="#5C913B"/>
<path d="M48.4479 128.66C48.4607 128.649 48.4749 128.64 48.4877 128.63C48.5845 128.534 48.6599 128.423 48.7453 128.316C48.805 128.242 48.8719 128.171 48.9274 128.096C48.9772 128.024 49.0185 127.952 49.064 127.879C51.0844 124.768 49.7612 119.492 45.7616 115.491C41.7606 111.49 36.4834 110.166 33.3731 112.188C33.2991 112.232 33.2265 112.274 33.1554 112.325C33.08 112.38 33.0074 112.447 32.9362 112.506C32.831 112.592 32.72 112.666 32.6218 112.765C32.609 112.777 32.6005 112.792 32.5905 112.804C32.5748 112.82 32.5564 112.83 32.5393 112.847L32.5478 112.854C31.125 114.365 31.1079 116.703 32.5393 118.136C33.9735 119.57 36.3098 119.55 37.8222 118.127L37.8379 118.144C37.808 118.173 37.7753 118.191 37.7468 118.22C36.24 119.726 36.2045 122.13 37.6629 123.591C39.1227 125.049 41.5287 125.014 43.034 123.507C43.0625 123.478 43.081 123.446 43.1095 123.416L43.1251 123.433C41.7023 124.944 41.6838 127.282 43.118 128.716C44.5508 130.147 46.8871 130.13 48.3981 128.707L48.4066 128.716C48.4209 128.696 48.4323 128.677 48.4479 128.66V128.66Z" fill="#E1E8ED"/>
<path d="M32.5421 118.193C33.8312 119.48 35.8445 119.586 37.337 118.564C37.9616 117.497 38.1409 116.483 38.1409 116.165C35.0007 118.507 32.1978 116.178 31.5703 114.785C31.3099 115.989 31.6258 117.275 32.5421 118.193ZM42.9273 123.656C43.3513 123.06 43.68 122.484 43.8337 122.094C41.8346 123.927 38.0129 122.585 36.8547 119.678C36.3453 121.03 36.6057 122.587 37.6671 123.648C39.0928 125.074 41.4148 125.062 42.9273 123.656ZM48.4109 128.772L48.4521 128.72C48.4664 128.709 48.4806 128.7 48.492 128.689C48.5902 128.592 48.6656 128.481 48.7495 128.376C48.8107 128.301 48.8762 128.231 48.9316 128.154C48.9829 128.084 49.0241 128.01 49.0697 127.938C49.1621 127.795 49.2119 127.628 49.2902 127.477C45.6933 129.086 43.0084 126.356 42.2557 124.994C41.836 126.299 42.1092 127.76 43.1222 128.774C44.5536 130.207 46.8899 130.19 48.4023 128.766L48.4109 128.772Z" fill="#CCD6DD"/>
<path d="M22.1255 100.076L22.1653 100.045C22.2635 99.9479 22.3389 99.8369 22.4228 99.7317C22.4826 99.6577 22.548 99.5879 22.6035 99.5111C22.6547 99.44 22.696 99.3674 22.7415 99.2948C24.762 96.1831 23.4373 90.9059 19.4377 86.9063C15.4367 82.9053 10.1609 81.5806 7.04918 83.6011C6.97661 83.6466 6.90263 83.6878 6.83148 83.7391C6.75465 83.7946 6.68493 83.86 6.61095 83.9198C6.50566 84.0051 6.39468 84.0791 6.29792 84.1773C6.28512 84.1901 6.27658 84.2058 6.26662 84.2171C6.25097 84.2314 6.23105 84.2442 6.2154 84.2598L6.22251 84.2669C4.79969 85.778 4.78261 88.1157 6.2154 89.5485C7.64819 90.9813 9.98589 90.9642 11.4969 89.5414L11.5126 89.557C11.4827 89.584 11.45 89.604 11.4215 89.6324C9.91475 91.1392 9.87918 93.5424 11.339 95.0036C12.7988 96.4648 15.2034 96.4278 16.7102 94.9211C16.7386 94.8926 16.7571 94.8599 16.7856 94.83L16.8012 94.8457C15.3784 96.3567 15.3599 98.6944 16.7941 100.127C18.2269 101.56 20.5632 101.543 22.0742 100.119L22.0813 100.127C22.097 100.112 22.1098 100.093 22.1255 100.076V100.076Z" fill="#E1E8ED"/>
<path d="M6.21407 89.5502C7.50315 90.8392 9.51645 90.9445 11.009 89.9201C11.6336 88.853 11.8115 87.8399 11.8115 87.5226C8.67272 89.8632 5.86832 87.5326 5.24228 86.1396C4.9819 87.3448 5.29777 88.6324 6.21407 89.5502V89.5502ZM16.6021 95.011C17.0247 94.4148 17.3534 93.8414 17.5056 93.4516C15.5051 95.2842 11.6834 93.941 10.5267 91.0342C10.0173 92.3859 10.2777 93.9424 11.3377 95.0039C12.7662 96.431 15.0897 96.4182 16.6021 95.011V95.011ZM22.0814 100.129C22.0971 100.113 22.1099 100.095 22.1241 100.078L22.164 100.046C22.2621 99.9496 22.3376 99.8386 22.4215 99.7333C22.4813 99.6594 22.5467 99.5896 22.6022 99.5128C22.6534 99.4417 22.6947 99.3691 22.7402 99.2965C22.8327 99.1542 22.8825 98.9849 22.9608 98.8341C19.3638 100.443 16.679 97.7143 15.9263 96.3527C15.5066 97.6574 15.7797 99.1187 16.7928 100.132C18.2256 101.565 20.5619 101.547 22.0729 100.123L22.0814 100.129V100.129Z" fill="#CCD6DD"/>
<path d="M8.08876 369.556C5.59987 369.556 5.59987 372.045 5.59987 372.045V398.178C5.59987 398.178 5.59987 400.667 8.08876 400.667H47.911C50.3999 400.667 50.3999 398.178 50.3999 398.178V372.045C50.3999 372.045 50.3999 369.556 47.911 369.556H8.08876Z" fill="#9266CC"/>
<path d="M8.08876 363.333C5.59987 363.333 5.59987 365.822 5.59987 365.822V390.711C5.59987 390.711 5.59987 393.2 8.08876 393.2H47.911C50.3999 393.2 50.3999 390.711 50.3999 390.711V365.822C50.3999 365.822 50.3999 363.333 47.911 363.333H8.08876Z" fill="#CBB8E9"/>
<path d="M36.711 386.356C41.1784 386.356 44.7999 382.734 44.7999 378.267C44.7999 373.799 41.1784 370.178 36.711 370.178C32.2437 370.178 28.6221 373.799 28.6221 378.267C28.6221 382.734 32.2437 386.356 36.711 386.356Z" fill="#AA8DD8"/>
<path d="M46.6666 391.334H9.33327C8.30411 391.334 7.4666 390.496 7.4666 389.467V367.067C7.4666 366.038 8.30411 365.2 9.33327 365.2H46.6666C47.6958 365.2 48.5333 366.038 48.5333 367.067V389.467C48.5333 390.496 47.6958 391.334 46.6666 391.334ZM9.33327 366.445C8.99105 366.445 8.71105 366.723 8.71105 367.067V389.467C8.71105 389.809 8.99105 390.089 9.33327 390.089H46.6666C47.0088 390.089 47.2888 389.809 47.2888 389.467V367.067C47.2888 366.723 47.0088 366.445 46.6666 366.445H9.33327Z" fill="#9266CC"/>
<path d="M23.0219 363.333H32.9775V393.277H23.0219V363.333Z" fill="#FFE8B6"/>
<path d="M23.0219 393.2H32.9775V400.667H23.0219V393.2Z" fill="#FFAC33"/>
<path d="M17.183 377.414C17.7293 377.414 18.1226 377.698 18.1226 378.31C18.1226 378.923 17.7293 379.206 17.183 379.206H14.7999C14.8659 379.578 14.953 379.993 14.953 380.649C14.953 381.677 14.276 383.25 13.0739 384.321H20.4397C20.9873 384.321 21.3805 384.605 21.3805 385.217C21.3805 385.829 20.9873 386.114 20.4397 386.114H11.6975C11.0865 386.114 10.5389 385.961 10.5389 385.196C10.5389 384.258 13.0303 383.23 13.0303 380.629C13.0303 380.236 13.0079 379.689 12.8772 379.208H10.6696C10.1233 379.208 9.73003 378.924 9.73003 378.312C9.73003 377.699 10.1233 377.416 10.6696 377.416H12.3533C11.8294 376.476 11.2831 375.448 11.2831 374.291C11.2831 371.995 13.5343 370.422 16.0033 370.422C18.6042 370.422 21.0084 372.565 21.0084 374.291C21.0084 374.881 20.6376 375.23 20.0913 375.23C18.6266 375.23 19.3919 372.214 16.0244 372.214C14.6033 372.214 13.2045 372.979 13.2045 374.422C13.2045 375.58 13.8603 376.454 14.3631 377.416H17.183V377.414Z" fill="#9266CC"/>
<path d="M281.089 15.5557C278.6 15.5557 278.6 18.0446 278.6 18.0446V44.1779C278.6 44.1779 278.6 46.6668 281.089 46.6668H320.911C323.4 46.6668 323.4 44.1779 323.4 44.1779V18.0446C323.4 18.0446 323.4 15.5557 320.911 15.5557H281.089Z" fill="#2A6797"/>
<path d="M281.089 9.3335C278.6 9.3335 278.6 11.8224 278.6 11.8224V36.7113C278.6 36.7113 278.6 39.2002 281.089 39.2002H320.911C323.4 39.2002 323.4 36.7113 323.4 36.7113V11.8224C323.4 11.8224 323.4 9.3335 320.911 9.3335H281.089Z" fill="#5DADEC"/>
<path d="M309.711 32.3555C314.178 32.3555 317.8 28.734 317.8 24.2666C317.8 19.7993 314.178 16.1777 309.711 16.1777C305.244 16.1777 301.622 19.7993 301.622 24.2666C301.622 28.734 305.244 32.3555 309.711 32.3555Z" fill="#4289C1"/>
<path d="M319.667 37.3335H282.333C281.304 37.3335 280.467 36.496 280.467 35.4669V13.0669C280.467 12.0377 281.304 11.2002 282.333 11.2002H319.667C320.696 11.2002 321.533 12.0377 321.533 13.0669V35.4669C321.533 36.496 320.696 37.3335 319.667 37.3335ZM282.333 12.4446C281.991 12.4446 281.711 12.7234 281.711 13.0669V35.4669C281.711 35.8091 281.991 36.0891 282.333 36.0891H319.667C320.009 36.0891 320.289 35.8091 320.289 35.4669V13.0669C320.289 12.7234 320.009 12.4446 319.667 12.4446H282.333Z" fill="#2A6797"/>
<path d="M296.022 9.3335H305.977V39.2773H296.022V9.3335Z" fill="#FFE8B6"/>
<path d="M296.022 39.2002H305.977V46.6669H296.022V39.2002Z" fill="#FFAC33"/>
<path d="M294.484 29.0455C294.484 29.8644 292.65 30.8463 290.376 30.8463C287.364 30.8463 285.551 28.7543 284.949 26.1895H283.339C282.947 26.1895 282.628 25.8722 282.628 25.4815C282.628 25.0895 282.947 24.7721 283.339 24.7721H284.744C284.734 24.6029 284.708 24.4361 284.708 24.2669C284.708 23.8935 284.74 23.5239 284.786 23.1593H283.339C282.947 23.1593 282.628 22.8407 282.628 22.4487C282.628 22.0567 282.947 21.7407 283.339 21.7407H285.101C285.839 19.4571 287.627 17.6875 290.468 17.6875C292.758 17.6875 294.211 18.9232 294.211 19.5778C294.211 19.9959 293.956 20.3394 293.557 20.3394C292.83 20.3394 292.467 19.0676 290.468 19.0676C288.589 19.0676 287.447 20.2399 286.87 21.7394H291.011C291.403 21.7394 291.72 22.0567 291.72 22.4475C291.72 22.8395 291.403 23.1581 291.011 23.1581H286.503C286.45 23.5277 286.414 23.8998 286.414 24.2669C286.414 24.4336 286.434 24.6029 286.445 24.7709H291.009C291.401 24.7709 291.719 25.0882 291.719 25.4802C291.719 25.871 291.401 26.1883 291.009 26.1883H286.67C287.154 27.9679 288.345 29.4624 290.376 29.4624C292.321 29.4624 293.176 28.3001 293.848 28.3001C294.23 28.3014 294.484 28.5926 294.484 29.0455Z" fill="#2A6797"/>
<path d="M281.089 447.556C278.6 447.556 278.6 450.045 278.6 450.045V476.178C278.6 476.178 278.6 478.667 281.089 478.667H320.911C323.4 478.667 323.4 476.178 323.4 476.178V450.045C323.4 450.045 323.4 447.556 320.911 447.556H281.089Z" fill="#5C913B"/>
<path d="M281.089 441.333C278.6 441.333 278.6 443.822 278.6 443.822V468.711C278.6 468.711 278.6 471.2 281.089 471.2H320.911C323.4 471.2 323.4 468.711 323.4 468.711V443.822C323.4 443.822 323.4 441.333 320.911 441.333H281.089Z" fill="#A7D28B"/>
<path d="M309.711 464.356C314.178 464.356 317.8 460.734 317.8 456.267C317.8 451.799 314.178 448.178 309.711 448.178C305.244 448.178 301.622 451.799 301.622 456.267C301.622 460.734 305.244 464.356 309.711 464.356Z" fill="#77B255"/>
<path d="M319.667 469.334H282.333C281.304 469.334 280.467 468.496 280.467 467.467V445.067C280.467 444.038 281.304 443.2 282.333 443.2H319.667C320.696 443.2 321.533 444.038 321.533 445.067V467.467C321.533 468.496 320.696 469.334 319.667 469.334ZM282.333 444.445C281.991 444.445 281.711 444.723 281.711 445.067V467.467C281.711 467.809 281.991 468.089 282.333 468.089H319.667C320.009 468.089 320.289 467.809 320.289 467.467V445.067C320.289 444.723 320.009 444.445 319.667 444.445H282.333Z" fill="#5C913B"/>
<path d="M296.022 441.333H305.977V471.277H296.022V441.333Z" fill="#FFE8B6"/>
<path d="M296.022 471.2H305.977V478.667H296.022V471.2Z" fill="#FFAC33"/>
<path d="M293.297 458.784C293.297 455.077 286.461 455.318 286.461 453.08C286.461 451.996 287.498 451.467 288.7 451.467C290.722 451.467 291.082 452.766 291.998 452.766C292.646 452.766 292.958 452.358 292.958 451.9C292.958 450.835 291.345 450.031 289.799 449.752V448.725C289.799 448.084 289.28 447.565 288.639 447.565C287.998 447.565 287.479 448.086 287.479 448.725V449.787C285.794 450.173 284.342 451.342 284.342 453.248C284.342 456.809 291.177 456.665 291.177 459.169C291.177 460.034 290.239 460.9 288.699 460.9C286.388 460.9 285.617 459.335 284.68 459.335C284.222 459.335 283.814 459.72 283.814 460.3C283.814 461.222 285.357 462.33 287.481 462.641L287.48 462.646V463.808C287.48 464.448 288 464.968 288.641 464.968C289.281 464.966 289.8 464.446 289.8 463.808V462.646C289.8 462.633 289.794 462.622 289.792 462.611C291.703 462.254 293.297 461.01 293.297 458.784V458.784Z" fill="#5C913B"/>
<path d="M554.089 15.5557C551.6 15.5557 551.6 18.0446 551.6 18.0446V44.1779C551.6 44.1779 551.6 46.6668 554.089 46.6668H593.911C596.4 46.6668 596.4 44.1779 596.4 44.1779V18.0446C596.4 18.0446 596.4 15.5557 593.911 15.5557H554.089Z" fill="#5C913B"/>
<path d="M554.089 9.3335C551.6 9.3335 551.6 11.8224 551.6 11.8224V36.7113C551.6 36.7113 551.6 39.2002 554.089 39.2002H593.911C596.4 39.2002 596.4 36.7113 596.4 36.7113V11.8224C596.4 11.8224 596.4 9.3335 593.911 9.3335H554.089Z" fill="#A7D28B"/>
<path d="M582.711 32.3555C587.178 32.3555 590.8 28.734 590.8 24.2666C590.8 19.7993 587.178 16.1777 582.711 16.1777C578.244 16.1777 574.622 19.7993 574.622 24.2666C574.622 28.734 578.244 32.3555 582.711 32.3555Z" fill="#77B255"/>
<path d="M592.667 37.3335H555.333C554.304 37.3335 553.467 36.496 553.467 35.4669V13.0669C553.467 12.0377 554.304 11.2002 555.333 11.2002H592.667C593.696 11.2002 594.533 12.0377 594.533 13.0669V35.4669C594.533 36.496 593.696 37.3335 592.667 37.3335ZM555.333 12.4446C554.991 12.4446 554.711 12.7234 554.711 13.0669V35.4669C554.711 35.8091 554.991 36.0891 555.333 36.0891H592.667C593.009 36.0891 593.289 35.8091 593.289 35.4669V13.0669C593.289 12.7234 593.009 12.4446 592.667 12.4446H555.333Z" fill="#5C913B"/>
<path d="M569.022 9.3335H578.977V39.2773H569.022V9.3335Z" fill="#FFE8B6"/>
<path d="M569.022 39.2002H578.977V46.6669H569.022V39.2002Z" fill="#FFAC33"/>
<path d="M566.297 26.7841C566.297 23.0769 559.461 23.3183 559.461 21.0796C559.461 19.9957 560.498 19.4668 561.7 19.4668C563.722 19.4668 564.082 20.766 564.997 20.766C565.646 20.766 565.958 20.3578 565.958 19.8998C565.958 18.8346 564.345 18.0307 562.799 17.7519V16.7253C562.799 16.0844 562.28 15.5654 561.639 15.5654C560.998 15.5654 560.479 16.0856 560.479 16.7253V17.7868C558.794 18.1725 557.342 19.3423 557.342 21.2476C557.342 24.8092 564.177 24.6648 564.177 27.1686C564.177 28.0335 563.239 28.8996 561.698 28.8996C559.388 28.8996 558.617 27.3354 557.68 27.3354C557.222 27.3354 556.814 27.7199 556.814 28.2998C556.814 29.222 558.357 30.3295 560.481 30.6406L560.48 30.6456V31.8079C560.48 32.4476 561 32.9677 561.641 32.9677C562.281 32.9665 562.8 32.4463 562.8 31.8079V30.6456C562.8 30.6332 562.794 30.622 562.792 30.6108C564.703 30.2536 566.297 29.0104 566.297 26.7841V26.7841Z" fill="#5C913B"/>
<path d="M554.089 447.556C551.6 447.556 551.6 450.045 551.6 450.045V476.178C551.6 476.178 551.6 478.667 554.089 478.667H593.911C596.4 478.667 596.4 476.178 596.4 476.178V450.045C596.4 450.045 596.4 447.556 593.911 447.556H554.089Z" fill="#2A6797"/>
<path d="M554.089 441.333C551.6 441.333 551.6 443.822 551.6 443.822V468.711C551.6 468.711 551.6 471.2 554.089 471.2H593.911C596.4 471.2 596.4 468.711 596.4 468.711V443.822C596.4 443.822 596.4 441.333 593.911 441.333H554.089Z" fill="#5DADEC"/>
<path d="M582.711 464.356C587.178 464.356 590.8 460.734 590.8 456.267C590.8 451.799 587.178 448.178 582.711 448.178C578.244 448.178 574.622 451.799 574.622 456.267C574.622 460.734 578.244 464.356 582.711 464.356Z" fill="#4289C1"/>
<path d="M592.667 469.334H555.333C554.304 469.334 553.467 468.496 553.467 467.467V445.067C553.467 444.038 554.304 443.2 555.333 443.2H592.667C593.696 443.2 594.533 444.038 594.533 445.067V467.467C594.533 468.496 593.696 469.334 592.667 469.334ZM555.333 444.445C554.991 444.445 554.711 444.723 554.711 445.067V467.467C554.711 467.809 554.991 468.089 555.333 468.089H592.667C593.009 468.089 593.289 467.809 593.289 467.467V445.067C593.289 444.723 593.009 444.445 592.667 444.445H555.333Z" fill="#2A6797"/>
<path d="M569.022 441.333H578.977V471.277H569.022V441.333Z" fill="#FFE8B6"/>
<path d="M569.022 471.2H578.977V478.667H569.022V471.2Z" fill="#FFAC33"/>
<path d="M567.484 461.046C567.484 461.864 565.65 462.846 563.376 462.846C560.364 462.846 558.551 460.754 557.949 458.19H556.339C555.947 458.19 555.628 457.872 555.628 457.481C555.628 457.089 555.947 456.772 556.339 456.772H557.744C557.734 456.603 557.707 456.436 557.707 456.267C557.707 455.894 557.74 455.524 557.786 455.159H556.339C555.947 455.159 555.628 454.841 555.628 454.449C555.628 454.057 555.947 453.741 556.339 453.741H558.101C558.839 451.457 560.627 449.688 563.468 449.688C565.758 449.688 567.211 450.923 567.211 451.578C567.211 451.996 566.956 452.339 566.557 452.339C565.83 452.339 565.467 451.068 563.468 451.068C561.589 451.068 560.446 452.24 559.87 453.739H564.011C564.403 453.739 564.72 454.057 564.72 454.447C564.72 454.839 564.403 455.158 564.011 455.158H559.503C559.45 455.528 559.414 455.9 559.414 456.267C559.414 456.434 559.434 456.603 559.445 456.771H564.009C564.401 456.771 564.719 457.088 564.719 457.48C564.719 457.871 564.401 458.188 564.009 458.188H559.67C560.154 459.968 561.345 461.462 563.376 461.462C565.321 461.462 566.176 460.3 566.848 460.3C567.23 460.301 567.484 460.593 567.484 461.046Z" fill="#2A6797"/>
<path d="M827.089 93.5557C824.6 93.5557 824.6 96.0446 824.6 96.0446V122.178C824.6 122.178 824.6 124.667 827.089 124.667H866.911C869.4 124.667 869.4 122.178 869.4 122.178V96.0446C869.4 96.0446 869.4 93.5557 866.911 93.5557H827.089Z" fill="#9266CC"/>
<path d="M827.089 87.3335C824.6 87.3335 824.6 89.8224 824.6 89.8224V114.711C824.6 114.711 824.6 117.2 827.089 117.2H866.911C869.4 117.2 869.4 114.711 869.4 114.711V89.8224C869.4 89.8224 869.4 87.3335 866.911 87.3335H827.089Z" fill="#CBB8E9"/>
<path d="M855.711 110.356C860.178 110.356 863.8 106.734 863.8 102.267C863.8 97.7993 860.178 94.1777 855.711 94.1777C851.244 94.1777 847.622 97.7993 847.622 102.267C847.622 106.734 851.244 110.356 855.711 110.356Z" fill="#AA8DD8"/>
<path d="M865.667 115.334H828.333C827.304 115.334 826.467 114.496 826.467 113.467V91.0669C826.467 90.0377 827.304 89.2002 828.333 89.2002H865.667C866.696 89.2002 867.533 90.0377 867.533 91.0669V113.467C867.533 114.496 866.696 115.334 865.667 115.334ZM828.333 90.4446C827.991 90.4446 827.711 90.7234 827.711 91.0669V113.467C827.711 113.809 827.991 114.089 828.333 114.089H865.667C866.009 114.089 866.289 113.809 866.289 113.467V91.0669C866.289 90.7234 866.009 90.4446 865.667 90.4446H828.333Z" fill="#9266CC"/>
<path d="M842.022 87.3335H851.977V117.277H842.022V87.3335Z" fill="#FFE8B6"/>
<path d="M842.022 117.2H851.977V124.667H842.022V117.2Z" fill="#FFAC33"/>
<path d="M836.183 101.414C836.729 101.414 837.123 101.698 837.123 102.31C837.123 102.923 836.729 103.206 836.183 103.206H833.8C833.866 103.578 833.953 103.993 833.953 104.649C833.953 105.677 833.276 107.25 832.074 108.321H839.44C839.987 108.321 840.381 108.605 840.381 109.217C840.381 109.829 839.987 110.114 839.44 110.114H830.698C830.086 110.114 829.539 109.961 829.539 109.196C829.539 108.258 832.03 107.23 832.03 104.629C832.03 104.236 832.008 103.689 831.877 103.208H829.67C829.123 103.208 828.73 102.924 828.73 102.312C828.73 101.699 829.123 101.416 829.67 101.416H831.353C830.829 100.476 830.283 99.4482 830.283 98.2909C830.283 95.9949 832.534 94.4219 835.003 94.4219C837.604 94.4219 840.008 96.5648 840.008 98.2909C840.008 98.8807 839.638 99.2304 839.091 99.2304C837.627 99.2304 838.392 96.2139 835.024 96.2139C833.603 96.2139 832.205 96.9792 832.205 98.4215C832.205 99.5801 832.86 100.454 833.363 101.416H836.183V101.414Z" fill="#9266CC"/>
<path d="M871.924 381.457C868.25 376.106 860.655 383.981 846.794 385.582C841.662 386.174 837.038 390.459 831.076 390.051C828.632 389.883 825.218 382.85 822.663 383.971C821.348 384.549 820.745 386.477 822.097 387.925L837.105 405.833C837.105 405.833 837.867 406.712 840.437 406.103C841.07 406.29 850.589 402.475 856.092 394.839C857.41 393.01 858.981 391.488 860.607 390.216C865.887 386.312 871.627 384.951 871.627 384.951C872.361 384.345 872.533 383.701 872.493 383.142C872.542 382.208 871.924 381.457 871.924 381.457V381.457Z" fill="#5C913B"/>
<path d="M837.597 372.912C832.214 380.382 822.788 383.92 822.788 383.92C821.029 385.41 822.515 387.166 822.515 387.166L837.366 404.75C837.366 404.75 838.109 405.628 840.61 405.019C840.61 405.019 850.037 401.488 855.418 394.018C860.965 386.32 870.969 383.89 870.969 383.89C872.726 382.401 871.242 380.642 871.242 380.642L856.391 363.06C856.391 363.06 855.648 362.181 853.147 362.787C853.147 362.787 843.144 365.211 837.597 372.912V372.912Z" fill="#A7D28B"/>
<path d="M852.571 386.039C856.893 386.039 860.396 382.535 860.396 378.213C860.396 373.891 856.893 370.388 852.571 370.388C848.249 370.388 844.745 373.891 844.745 378.213C844.745 382.535 848.249 386.039 852.571 386.039Z" fill="#77B255"/>
<path d="M839.585 403.723C838.331 403.723 837.872 403.256 837.809 403.185L824.422 387.558C824.396 387.528 823.717 386.751 823.8 385.764C823.85 385.165 824.16 384.631 824.72 384.177L824.81 384.123C824.897 384.089 833.579 380.521 838.445 374.071L838.73 374.284L838.445 374.071C843.593 367.247 852.473 364.319 852.561 364.29C855.044 363.713 855.856 364.538 855.943 364.635L869.154 380.349C869.178 380.374 869.855 381.154 869.773 382.143C869.723 382.74 869.413 383.274 868.852 383.728L868.711 383.797C868.625 383.819 859.991 385.964 854.99 392.592C850.011 399.194 841.321 403.465 841.234 403.506C840.574 403.663 840.03 403.723 839.585 403.723V403.723ZM838.345 402.717C838.347 402.717 838.989 403.309 840.999 402.842C841.01 402.826 849.549 398.628 854.425 392.165C859.315 385.684 867.55 383.369 868.464 383.129C868.83 382.814 869.032 382.466 869.064 382.091C869.124 381.409 868.62 380.821 868.616 380.815L855.405 365.1C855.402 365.1 854.765 364.51 852.753 364.976C852.695 364.996 844.024 367.859 839.014 374.499C834.225 380.847 825.869 384.452 825.13 384.762C824.749 385.082 824.541 385.439 824.508 385.822C824.452 386.499 824.952 387.084 824.957 387.09L838.345 402.717V402.717Z" fill="#5C913B"/>
<path d="M851.541 389.832L851.532 398.283L852.239 399.123C853.618 397.865 854.943 396.451 856.088 394.86C857.276 393.213 858.656 391.802 860.112 390.612L859.425 389.793L851.541 389.832V389.832Z" fill="#FFAC33"/>
<path d="M859.398 389.763L841.604 368.687C840.158 369.876 838.77 371.264 837.589 372.904C836.435 374.506 835.092 375.916 833.697 377.16L835.777 379.623L835.776 379.624L851.534 398.283C852.928 397.038 854.256 395.614 855.411 394.01C856.592 392.371 857.979 390.986 859.423 389.796L859.396 389.763H859.398V389.763Z" fill="#FFE8B6"/>
<path d="M841.87 390.386C839.654 387.762 834.965 392.019 833.627 390.435C832.98 389.668 833.397 388.674 834.248 387.957C835.678 386.747 836.709 387.452 837.357 386.904C837.816 386.517 837.792 386.043 837.519 385.717C836.884 384.967 835.262 385.359 834.001 386.087L833.388 385.362C833.005 384.909 832.328 384.851 831.876 385.234C831.423 385.618 831.366 386.292 831.749 386.745L832.384 387.497C831.42 388.775 831.093 390.471 832.233 391.818C834.361 394.337 839.109 390.151 840.603 391.921C841.121 392.535 840.976 393.708 839.886 394.627C838.253 396.009 836.773 395.361 836.109 395.922C835.784 396.194 835.726 396.711 836.072 397.123C836.622 397.773 838.377 397.633 840.063 396.583C840.066 396.586 840.066 396.589 840.066 396.592L840.758 397.412C841.141 397.864 841.82 397.919 842.272 397.54C842.726 397.155 842.782 396.478 842.399 396.026L841.706 395.206C841.699 395.198 841.688 395.192 841.679 395.183C842.816 393.792 843.2 391.958 841.87 390.386V390.386Z" fill="#5C913B"/>
<path d="M867.448 404.66C867.461 404.649 867.475 404.64 867.488 404.63C867.585 404.534 867.66 404.423 867.745 404.316C867.805 404.242 867.872 404.171 867.927 404.096C867.977 404.024 868.018 403.952 868.064 403.879C870.084 400.768 868.761 395.492 864.762 391.491C860.761 387.49 855.483 386.166 852.373 388.188C852.299 388.232 852.227 388.274 852.155 388.325C852.08 388.38 852.007 388.447 851.936 388.506C851.831 388.592 851.72 388.666 851.622 388.765C851.609 388.777 851.6 388.792 851.591 388.804C851.575 388.82 851.556 388.83 851.539 388.847L851.548 388.854C850.125 390.365 850.108 392.703 851.539 394.136C852.973 395.57 855.31 395.55 856.822 394.127L856.838 394.144C856.808 394.173 856.775 394.191 856.747 394.22C855.24 395.726 855.204 398.13 856.663 399.591C858.123 401.049 860.529 401.014 862.034 399.507C862.063 399.478 862.081 399.446 862.109 399.416L862.125 399.433C860.702 400.944 860.684 403.282 862.118 404.716C863.551 406.147 865.887 406.13 867.398 404.707L867.407 404.716C867.421 404.696 867.432 404.677 867.448 404.66V404.66Z" fill="#E1E8ED"/>
<path d="M851.542 394.193C852.831 395.48 854.844 395.586 856.337 394.564C856.962 393.497 857.141 392.483 857.141 392.165C854.001 394.507 851.198 392.178 850.57 390.785C850.31 391.989 850.626 393.275 851.542 394.193ZM861.927 399.656C862.351 399.06 862.68 398.484 862.834 398.094C860.835 399.927 857.013 398.585 855.855 395.678C855.345 397.03 855.606 398.587 856.667 399.648C858.093 401.074 860.415 401.062 861.927 399.656ZM867.411 404.772L867.452 404.72C867.466 404.709 867.481 404.7 867.492 404.689C867.59 404.592 867.666 404.481 867.749 404.376C867.811 404.301 867.876 404.231 867.932 404.154C867.983 404.084 868.024 404.01 868.07 403.938C868.162 403.795 868.212 403.628 868.29 403.477C864.693 405.086 862.008 402.356 861.256 400.994C860.836 402.299 861.109 403.76 862.122 404.774C863.554 406.207 865.89 406.19 867.402 404.766L867.411 404.772Z" fill="#CCD6DD"/>
<path d="M841.125 376.076L841.165 376.045C841.263 375.948 841.339 375.837 841.423 375.732C841.483 375.658 841.548 375.588 841.604 375.511C841.655 375.44 841.696 375.367 841.742 375.295C843.762 372.183 842.437 366.906 838.438 362.906C834.437 358.905 829.161 357.581 826.049 359.601C825.977 359.647 825.903 359.688 825.831 359.739C825.755 359.795 825.685 359.86 825.611 359.92C825.506 360.005 825.395 360.079 825.298 360.177C825.285 360.19 825.277 360.206 825.267 360.217C825.251 360.231 825.231 360.244 825.215 360.26L825.223 360.267C823.8 361.778 823.783 364.116 825.215 365.548C826.648 366.981 828.986 366.964 830.497 365.541L830.513 365.557C830.483 365.584 830.45 365.604 830.422 365.632C828.915 367.139 828.879 369.542 830.339 371.004C831.799 372.465 834.203 372.428 835.71 370.921C835.739 370.893 835.757 370.86 835.786 370.83L835.801 370.846C834.378 372.357 834.36 374.694 835.794 376.127C837.227 377.56 839.563 377.543 841.074 376.119L841.081 376.127C841.097 376.112 841.11 376.093 841.125 376.076V376.076Z" fill="#E1E8ED"/>
<path d="M825.214 365.55C826.503 366.839 828.516 366.945 830.009 365.92C830.634 364.853 830.811 363.84 830.811 363.523C827.673 365.863 824.868 363.533 824.242 362.14C823.982 363.345 824.298 364.632 825.214 365.55V365.55ZM835.602 371.011C836.025 370.415 836.353 369.841 836.506 369.452C834.505 371.284 830.683 369.941 829.527 367.034C829.017 368.386 829.278 369.942 830.338 371.004C831.766 372.431 834.09 372.418 835.602 371.011V371.011ZM841.081 376.129C841.097 376.113 841.11 376.095 841.124 376.078L841.164 376.046C841.262 375.95 841.338 375.839 841.421 375.733C841.481 375.659 841.547 375.59 841.602 375.513C841.653 375.442 841.695 375.369 841.74 375.297C841.833 375.154 841.882 374.985 841.961 374.834C838.364 376.443 835.679 373.714 834.926 372.353C834.507 373.657 834.78 375.119 835.793 376.132C837.226 377.565 839.562 377.547 841.073 376.123L841.081 376.129V376.129Z" fill="#CCD6DD"/>
</svg>
