<svg width="101" height="27" viewBox="0 0 101 27" fill="none" xmlns="http://www.w3.org/2000/svg">
<path d="M15.184 12.486C15.184 13.006 15.1493 13.474 15.08 13.89H4.55C4.63667 14.93 5.00067 15.7447 5.642 16.334C6.28334 16.9233 7.072 17.218 8.008 17.218C9.36 17.218 10.322 16.6373 10.894 15.476H14.82C14.404 16.8627 13.6067 18.0067 12.428 18.908C11.2493 19.792 9.802 20.234 8.086 20.234C6.69934 20.234 5.45133 19.9307 4.342 19.324C3.25 18.7 2.392 17.8247 1.768 16.698C1.16134 15.5713 0.858002 14.2713 0.858002 12.798C0.858002 11.3073 1.16134 9.99866 1.768 8.872C2.37467 7.74533 3.224 6.87866 4.316 6.272C5.408 5.66533 6.66467 5.362 8.086 5.362C9.45534 5.362 10.6773 5.65666 11.752 6.246C12.844 6.83533 13.6847 7.676 14.274 8.768C14.8807 9.84267 15.184 11.082 15.184 12.486ZM11.414 11.446C11.3967 10.51 11.0587 9.76466 10.4 9.21C9.74133 8.638 8.93534 8.352 7.982 8.352C7.08067 8.352 6.318 8.62933 5.694 9.184C5.08734 9.72133 4.71467 10.4753 4.576 11.446H11.414Z" fill="#1D62F5"/>
<path d="M16.9049 12.746C16.9049 11.29 17.1909 9.99866 17.7629 8.872C18.3522 7.74533 19.1495 6.87866 20.1549 6.272C21.1602 5.66533 22.2782 5.362 23.5089 5.362C24.4449 5.362 25.3375 5.57 26.1869 5.986C27.0362 6.38466 27.7122 6.922 28.2149 7.598V0.759998H31.9069V20H28.2149V17.868C27.7642 18.5787 27.1315 19.1507 26.3169 19.584C25.5022 20.0173 24.5575 20.234 23.4829 20.234C22.2695 20.234 21.1602 19.922 20.1549 19.298C19.1495 18.674 18.3522 17.7987 17.7629 16.672C17.1909 15.528 16.9049 14.2193 16.9049 12.746ZM28.2409 12.798C28.2409 11.914 28.0675 11.16 27.7209 10.536C27.3742 9.89466 26.9062 9.40933 26.3169 9.08C25.7275 8.73333 25.0949 8.56 24.4189 8.56C23.7429 8.56 23.1189 8.72466 22.5469 9.054C21.9749 9.38333 21.5069 9.86866 21.1429 10.51C20.7962 11.134 20.6229 11.8793 20.6229 12.746C20.6229 13.6127 20.7962 14.3753 21.1429 15.034C21.5069 15.6753 21.9749 16.1693 22.5469 16.516C23.1362 16.8627 23.7602 17.036 24.4189 17.036C25.0949 17.036 25.7275 16.8713 26.3169 16.542C26.9062 16.1953 27.3742 15.71 27.7209 15.086C28.0675 14.4447 28.2409 13.682 28.2409 12.798Z" fill="#1D62F5"/>
<path d="M39.102 7.702C39.57 7.00867 40.2113 6.44533 41.026 6.012C41.858 5.57866 42.8026 5.362 43.86 5.362C45.0906 5.362 46.2 5.66533 47.188 6.272C48.1933 6.87866 48.982 7.74533 49.554 8.872C50.1433 9.98133 50.438 11.2727 50.438 12.746C50.438 14.2193 50.1433 15.528 49.554 16.672C48.982 17.7987 48.1933 18.674 47.188 19.298C46.2 19.922 45.0906 20.234 43.86 20.234C42.7853 20.234 41.8406 20.026 41.026 19.61C40.2286 19.1767 39.5873 18.622 39.102 17.946V20H35.462V0.759998H39.102V7.702ZM46.72 12.746C46.72 11.8793 46.538 11.134 46.174 10.51C45.8273 9.86866 45.3593 9.38333 44.77 9.054C44.198 8.72466 43.574 8.56 42.898 8.56C42.2393 8.56 41.6153 8.73333 41.026 9.08C40.454 9.40933 39.986 9.89466 39.622 10.536C39.2753 11.1773 39.102 11.9313 39.102 12.798C39.102 13.6647 39.2753 14.4187 39.622 15.06C39.986 15.7013 40.454 16.1953 41.026 16.542C41.6153 16.8713 42.2393 17.036 42.898 17.036C43.574 17.036 44.198 16.8627 44.77 16.516C45.3593 16.1693 45.8273 15.6753 46.174 15.034C46.538 14.3927 46.72 13.63 46.72 12.746Z" fill="#1D62F5"/>
<path d="M66.4731 12.486C66.4731 13.006 66.4384 13.474 66.3691 13.89H55.8391C55.9257 14.93 56.2897 15.7447 56.9311 16.334C57.5724 16.9233 58.3611 17.218 59.2971 17.218C60.6491 17.218 61.6111 16.6373 62.1831 15.476H66.1091C65.6931 16.8627 64.8957 18.0067 63.7171 18.908C62.5384 19.792 61.0911 20.234 59.3751 20.234C57.9884 20.234 56.7404 19.9307 55.6311 19.324C54.5391 18.7 53.6811 17.8247 53.0571 16.698C52.4504 15.5713 52.1471 14.2713 52.1471 12.798C52.1471 11.3073 52.4504 9.99866 53.0571 8.872C53.6637 7.74533 54.5131 6.87866 55.6051 6.272C56.6971 5.66533 57.9537 5.362 59.3751 5.362C60.7444 5.362 61.9664 5.65666 63.0411 6.246C64.1331 6.83533 64.9737 7.676 65.5631 8.768C66.1697 9.84267 66.4731 11.082 66.4731 12.486ZM62.7031 11.446C62.6857 10.51 62.3477 9.76466 61.6891 9.21C61.0304 8.638 60.2244 8.352 59.2711 8.352C58.3697 8.352 57.6071 8.62933 56.9831 9.184C56.3764 9.72133 56.0037 10.4753 55.8651 11.446H62.7031Z" fill="#1D62F5"/>
<path d="M72.7699 7.832C73.2379 7.06933 73.8446 6.47133 74.5899 6.038C75.3526 5.60466 76.2193 5.388 77.1899 5.388V9.21H76.2279C75.0839 9.21 74.2173 9.47867 73.6279 10.016C73.0559 10.5533 72.7699 11.4893 72.7699 12.824V20H69.1299V5.596H72.7699V7.832Z" fill="#1D62F5"/>
<path d="M83.2817 0.759998V20H79.6417V0.759998H83.2817Z" fill="#1D62F5"/>
<path d="M100.658 5.596L91.74 26.812H87.866L90.986 19.636L85.214 5.596H89.296L93.014 15.658L96.784 5.596H100.658Z" fill="#1D62F5"/>
</svg>
