<svg width="24" height="24" viewBox="0 0 24 24" fill="none" xmlns="http://www.w3.org/2000/svg">
<path d="M4.81348 13.4118C4.52312 13.4118 4.365 13.2913 4.28312 13.1901C4.20264 13.0908 4.11935 12.9148 4.17723 12.6419L5.46102 6.66247L4.65442 6.70812H4.6483C4.405 6.70812 4.22853 6.62906 4.11794 6.49211C4.0144 6.36411 3.97723 6.19987 4.01393 6.03093C4.08452 5.70057 4.42947 5.42574 4.79842 5.4055L6.68458 5.29867C6.72128 5.29632 6.75517 5.29491 6.7867 5.29491C6.85587 5.29491 7.03894 5.29491 7.15517 5.43891C7.27377 5.58574 7.23376 5.77257 7.22059 5.83374L5.75044 12.6842C5.66244 13.1002 5.31796 13.385 4.8723 13.4099L4.81348 13.4118ZM9.86911 12.4706C9.19192 12.4706 8.62909 12.2169 8.24132 11.7369C7.69401 11.0597 7.55095 10.0188 7.82813 8.72651C8.31379 6.46199 9.80841 4.8742 11.5468 4.77584C12.295 4.73396 12.9144 4.98855 13.3318 5.5048C13.8791 6.18199 14.0221 7.22295 13.745 8.51521C13.2593 10.7788 11.7647 12.3666 10.0254 12.4654C9.97265 12.4692 9.92041 12.4706 9.86911 12.4706ZM11.4757 6.00175L11.4113 6.00363C10.4983 6.05587 9.73829 7.08789 9.37828 8.76416C9.15333 9.81265 9.19898 10.599 9.50628 10.9793C9.64605 11.1524 9.8437 11.2404 10.0941 11.2404L10.1599 11.2386C11.0729 11.1873 11.8324 10.1557 12.192 8.47898C12.4169 7.43048 12.3718 6.64364 12.0649 6.2634C11.9256 6.08975 11.727 6.00175 11.4757 6.00175ZM16.9304 11.6993C16.2532 11.6993 15.6895 11.4456 15.3012 10.9651C14.7539 10.288 14.6109 9.24699 14.888 7.95473C15.3742 5.68974 16.8688 4.10241 18.6072 4.00453C19.3615 3.96218 19.9733 4.21771 20.3907 4.73349C20.938 5.41068 21.0811 6.45164 20.8039 7.74343C20.3187 10.0065 18.8246 11.5943 17.0853 11.6946C17.0326 11.6983 16.9813 11.6993 16.9304 11.6993ZM18.5356 5.22997L18.4716 5.23185C17.5582 5.28409 16.7982 6.31611 16.4387 7.99191C16.2137 9.04087 16.2594 9.82771 16.5667 10.2075C16.7064 10.3807 16.905 10.4687 17.1554 10.4687L17.2213 10.4668C18.1338 10.4155 18.8938 9.38347 19.2533 7.7072C19.4787 6.65917 19.4335 5.87233 19.1262 5.49209C18.986 5.31797 18.7874 5.22997 18.5356 5.22997ZM9.17686 20.0006C8.79568 20.0006 8.43708 19.7672 8.29543 19.3893C8.11284 18.9027 8.35944 18.3601 8.84603 18.1775C9.00463 18.1182 12.7986 16.7149 18.5102 16.2387C19.0284 16.1935 19.483 16.5808 19.5263 17.0984C19.5696 17.6166 19.1841 18.0712 18.6665 18.1145C13.2122 18.5691 9.54346 19.9267 9.50675 19.9404C9.39852 19.9809 9.28651 20.0006 9.17686 20.0006ZM4.94195 17.1766C4.56359 17.1766 4.20641 16.9469 4.06288 16.5728C3.87652 16.0876 4.11841 15.5431 4.60359 15.3572C4.85866 15.2589 10.9642 12.945 19.9507 12.472C20.4745 12.4395 20.9131 12.8433 20.9404 13.3624C20.9682 13.8814 20.5691 14.3247 20.05 14.352C11.3802 14.8085 5.33867 17.0914 5.27843 17.1144C5.16784 17.1563 5.05395 17.1766 4.94195 17.1766Z" fill="#BB1A34"/>
</svg>
