<svg width="24" height="24" viewBox="0 0 24 24" fill="none" xmlns="http://www.w3.org/2000/svg">
<path d="M21.496 22V19.2222C21.496 17.3811 20.0038 15.8889 18.1627 15.8889H9.27376C7.43321 15.8889 5.94043 17.3811 5.94043 19.2222V22H21.496Z" fill="#77B255"/>
<path d="M11.296 15.9478C11.296 16.4444 12.6071 17.055 13.7182 17.055C14.8293 17.055 16.1399 16.4444 16.1399 15.9483V13.8278H11.2954V15.9478H11.296Z" fill="#F7DECE"/>
<path d="M11.2916 14.7628C11.9671 15.5261 12.8049 15.7328 13.716 15.7328C14.6266 15.7328 15.4638 15.5256 16.1399 14.7628V12.8234H11.291V14.7628H11.2916Z" fill="#EEC2AD"/>
<path d="M10.076 9.18671C10.076 9.99116 9.66822 10.6434 9.16544 10.6434C8.66266 10.6434 8.25488 9.99116 8.25488 9.18671C8.25488 8.38227 8.66266 7.72949 9.16544 7.72949C9.66822 7.72894 10.076 8.38171 10.076 9.18671ZM19.181 9.18671C19.181 9.99116 18.7738 10.6434 18.2704 10.6434C17.7677 10.6434 17.3599 9.99116 17.3599 9.18671C17.3599 8.38227 17.7671 7.72949 18.2704 7.72949C18.7738 7.72894 19.181 8.38171 19.181 9.18671Z" fill="#F7DECE"/>
<path d="M8.9834 9.75559C8.9834 6.65059 11.1034 4.13281 13.7184 4.13281C16.3334 4.13281 18.4528 6.65059 18.4528 9.75559C18.4528 12.8606 16.3334 15.3784 13.7184 15.3784C11.104 15.3778 8.9834 12.8606 8.9834 9.75559Z" fill="#F7DECE"/>
<path d="M13.7182 13.5567C12.1882 13.5567 11.7182 13.165 11.6399 13.0856C11.4976 12.9434 11.4976 12.7128 11.6399 12.5706C11.7776 12.4328 11.9988 12.4289 12.141 12.5578C12.1699 12.5784 12.5415 12.8284 13.7182 12.8284C14.9404 12.8284 15.2938 12.5589 15.2971 12.5562C15.4393 12.4145 15.6621 12.4212 15.8043 12.5645C15.9465 12.7067 15.9388 12.9439 15.7965 13.0856C15.7182 13.165 15.2482 13.5567 13.7182 13.5567Z" fill="#C1694F"/>
<path d="M13.7182 2C16.856 2 18.8171 4.58222 18.8171 6.51167C18.8171 8.44111 18.4249 9.21333 18.0327 8.44111L17.2482 6.89778C17.2482 6.89778 14.8954 6.89778 14.111 6.12556C14.111 6.12556 15.2877 8.44111 12.9343 6.12556C12.9343 6.12556 13.3265 7.66944 10.9732 5.74C10.9732 5.74 9.79654 6.51167 9.40432 8.44111C9.29543 8.97667 8.61987 8.44111 8.61987 6.51167C8.61932 4.58222 10.1882 2 13.7182 2Z" fill="#292F33"/>
<path d="M11.496 9.77775C11.1904 9.77775 10.9404 9.52775 10.9404 9.2222V8.66664C10.9404 8.36108 11.1904 8.11108 11.496 8.11108C11.8015 8.11108 12.0515 8.36108 12.0515 8.66664V9.2222C12.0515 9.52775 11.8015 9.77775 11.496 9.77775ZM15.9404 9.77775C15.6349 9.77775 15.3849 9.52775 15.3849 9.2222V8.66664C15.3849 8.36108 15.6349 8.11108 15.9404 8.11108C16.246 8.11108 16.496 8.36108 16.496 8.66664V9.2222C16.496 9.52775 16.246 9.77775 15.9404 9.77775Z" fill="#662113"/>
<path d="M14.135 11.3055H13.3017C13.0722 11.3055 12.885 11.1183 12.885 10.8888C12.885 10.6594 13.0722 10.4722 13.3017 10.4722H14.135C14.3645 10.4722 14.5517 10.6594 14.5517 10.8888C14.5517 11.1183 14.3645 11.3055 14.135 11.3055Z" fill="#C1694F"/>
<path d="M20.3849 21.4445C20.3849 21.7517 20.1366 22 19.8294 22H14.2738C13.9666 22 13.7183 21.7517 13.7183 21.4445C13.7183 21.1372 13.9666 20.8889 14.2738 20.8889H19.8294C20.1366 20.8889 20.3849 21.1372 20.3849 21.4445Z" fill="#E1E8ED"/>
<path d="M13.2962 14.2222H4.14007C3.2934 14.2222 2.20785 14.6505 2.7634 16.1838L4.47007 20.8922C4.47062 20.8922 4.69062 21.9999 5.94062 21.9999H17.0517L14.8295 15.7555C14.5862 15.0211 14.1434 14.2222 13.2962 14.2222Z" fill="#E1E8ED"/>
<path d="M12.7405 14.2222H3.5844C2.73774 14.2222 1.65218 14.6505 2.20774 16.1838L3.9144 20.8922C3.91496 20.8922 4.13496 21.9999 5.38496 21.9999H16.4961L14.2738 15.7555C14.0305 15.0211 13.5877 14.2222 12.7405 14.2222Z" fill="#99AAB5"/>
<path d="M9.84009 18.2683C10.1312 19.1416 9.89509 20.0072 9.31287 20.2011C8.73065 20.3955 8.02287 19.845 7.73176 18.9716C7.44065 18.0983 7.67676 17.2327 8.25898 17.0388C8.8412 16.845 9.54954 17.395 9.84009 18.2683ZM12.6073 15.75H3.71842C3.48842 15.75 3.30176 15.5633 3.30176 15.3333C3.30176 15.1033 3.48842 14.9166 3.71842 14.9166H12.6073C12.8373 14.9166 13.024 15.1033 13.024 15.3333C13.024 15.5633 12.8373 15.75 12.6073 15.75Z" fill="#E1E8ED"/>
</svg>
