<svg width="24" height="24" viewBox="0 0 24 24" fill="none" xmlns="http://www.w3.org/2000/svg">
<path d="M18.4892 17.5754C18.491 17.7442 18.4475 17.9649 18.4021 18.1468C18.0854 19.4263 16.6789 20.862 14.6992 20.7314C12.905 20.6133 11.4436 19.752 11.4436 18.5441C11.4436 17.3362 12.9014 16.3568 14.6992 16.3568C16.497 16.3568 18.4779 16.3675 18.4892 17.5754Z" fill="#EA596E"/>
<path d="M14.6993 16.5596C13.7336 16.5596 11.5296 16.8268 11.0238 16.8268C10.1302 16.8268 9.40552 17.3875 9.40552 18.0794C9.40552 18.4122 9.57611 18.7129 9.8493 18.9371C9.8493 18.9371 10.4494 19.539 11.5302 19.2503C12.0032 19.1238 12.7727 18.185 14.1273 18.0359C14.8019 17.9613 16.0658 18.4832 18.2871 18.4957C18.3826 18.2906 18.4022 18.148 18.4022 18.148C18.4022 16.9389 16.4971 16.5596 14.6993 16.5596Z" fill="#DD2E44"/>
<path d="M18.4022 18.1469C18.4022 18.1469 19.7049 17.8826 20.5149 16.8173C21.4592 15.5748 21.3351 14.2453 21.3351 14.2453C22.2919 12.4558 21.0369 10.7779 21.0369 10.7779C20.9122 8.88888 19.7443 8.1063 19.7443 8.1063C18.9862 6.30433 17.3089 5.81999 17.3089 5.81999C15.9918 4.27928 13.6554 4.32878 13.6554 4.32878C13.6554 4.32878 11.4663 3.52652 8.46126 4.4284C7.96439 4.57752 6.29902 4.92526 5.08101 5.67087C1.24206 8.021 0.951572 11.6858 1.00525 12.2817C1.3029 15.6118 3.63931 16.2083 5.13051 16.556C5.47826 17.5003 6.75831 19.2402 9.05715 18.5942C11.8904 18.0973 13.0834 17.2521 13.7795 17.2521C14.4756 17.2521 16.4141 17.9977 18.4022 18.1469Z" fill="#F4ABBA"/>
<path d="M11.2367 12.7922C12.6253 12.0436 13.3781 12.1134 14.0426 12.1737C14.2537 12.1927 14.4536 12.2077 14.6558 12.2065C15.8392 12.1796 16.7977 11.681 17.2218 11.1984C17.3304 11.0743 17.3179 10.8865 17.1944 10.7773C17.0715 10.6687 16.8836 10.6801 16.7733 10.8041C16.4464 11.1763 15.6405 11.5873 14.642 11.61C14.4631 11.6154 14.2836 11.5975 14.0975 11.5802C13.3847 11.5139 12.4995 11.4328 10.9534 12.2673C10.5567 12.4814 10.0128 12.5608 9.42343 12.6204C8.11296 10.729 8.90151 9.0815 9.12698 8.68902C9.14905 8.69021 9.17052 8.69737 9.19319 8.69737C9.43178 8.69737 9.67157 8.63891 9.88869 8.51604C10.0318 8.43492 10.0825 8.25299 10.0014 8.10983C9.9203 7.96668 9.73837 7.91598 9.59522 7.9971C9.21347 8.21302 8.71123 8.08836 8.47383 7.71854C8.38496 7.57956 8.20065 7.539 8.06226 7.62847C7.92388 7.71735 7.88332 7.90166 7.97219 8.04005C8.11356 8.26134 8.31278 8.42776 8.53766 8.5393C8.22689 9.17038 7.63697 10.8298 8.75955 12.6854C7.96981 12.763 7.17887 12.8745 6.55973 13.2736C6.16009 13.5312 5.7515 13.9082 5.43954 14.3419C5.06435 14.2774 3.69066 13.9392 3.45087 12.4146C3.59999 12.2989 3.72048 12.1462 3.79504 11.9577C3.85588 11.8044 3.78073 11.6315 3.62743 11.5706C3.47413 11.5098 3.30115 11.5849 3.24031 11.7382C3.18723 11.8724 3.09119 11.9703 2.96951 12.0132C2.84902 12.0561 2.71243 12.0418 2.58597 11.9714C2.44103 11.8909 2.2603 11.944 2.18037 12.0872C2.10044 12.2309 2.15233 12.4128 2.29609 12.4928C2.46549 12.587 2.64682 12.6347 2.82695 12.6347C2.84902 12.6347 2.8699 12.6246 2.89197 12.6234C3.17589 14.0627 4.31338 14.695 5.11803 14.8864C5.01305 15.1179 4.94207 15.3565 4.9206 15.5975C4.90628 15.7609 5.02737 15.9064 5.1914 15.9207L5.21824 15.9219C5.37094 15.9219 5.50157 15.8056 5.51529 15.6499C5.57971 14.9264 6.26984 14.1707 6.88302 13.774C7.45803 13.4036 8.29966 13.3255 9.11445 13.2497C9.90479 13.1775 10.6516 13.1083 11.2367 12.7922ZM18.9111 11.8951C18.8329 12.0394 18.8866 12.2208 19.0303 12.2989C19.0757 12.324 19.1252 12.3359 19.1735 12.3359C19.2785 12.3359 19.3805 12.2804 19.4348 12.1814C19.4461 12.1611 20.5335 10.1241 18.4977 8.75523C18.3617 8.66456 18.1762 8.69975 18.0837 8.83635C17.9919 8.97294 18.0283 9.15845 18.1649 9.2503C19.7419 10.3108 18.9456 11.8307 18.9111 11.8951ZM6.5478 7.07912C6.64085 7.07912 6.73211 7.03617 6.78997 6.95505C7.65487 5.75195 8.8526 6.16352 8.9033 6.18261C9.05779 6.23867 9.22779 6.15994 9.28505 6.00605C9.34231 5.85156 9.26357 5.68037 9.10909 5.62311C8.53646 5.41076 7.21407 5.34395 6.30563 6.6073C6.20959 6.74031 6.24001 6.92701 6.37363 7.02305C6.42671 7.06122 6.48755 7.07912 6.5478 7.07912ZM14.345 5.95296C15.6722 5.845 16.2758 6.80712 16.3032 6.85245C16.3593 6.9467 16.4583 6.99919 16.5603 6.99919C16.6116 6.99919 16.6641 6.98606 16.7112 6.95803C16.8532 6.87452 16.9009 6.692 16.818 6.55004C16.7858 6.49576 16.0187 5.22704 14.2985 5.35827C14.1344 5.3708 14.0122 5.51455 14.0247 5.67918C14.0378 5.84321 14.1863 5.96787 14.345 5.95296ZM19.8028 14.6681C19.6561 14.6598 19.4944 14.7761 19.4813 14.9407C19.4801 14.9515 19.3853 15.9661 18.342 16.3091C18.1857 16.3604 18.1004 16.5286 18.1523 16.6854C18.1929 16.8107 18.3104 16.8906 18.4357 16.8906C18.4667 16.8906 18.4977 16.8859 18.5287 16.8757C19.9436 16.4116 20.0712 15.0481 20.076 14.9902C20.0885 14.8256 19.9668 14.6813 19.8028 14.6681Z" fill="#EA596E"/>
<path d="M5.03922 11.7698C4.99628 11.929 5.09052 12.0925 5.24978 12.1354C5.27543 12.1426 5.30167 12.1456 5.32732 12.1456C5.45914 12.1456 5.57904 12.0579 5.61483 11.9249C5.72816 11.5008 6.16776 11.2288 6.60021 11.32C6.76186 11.3528 6.91933 11.2509 6.95333 11.0892C6.98733 10.9282 6.88414 10.7701 6.72249 10.7361C6.46839 10.6824 6.2131 10.7075 5.97808 10.7874C5.28259 9.598 5.41799 8.42532 5.41978 8.4128C5.44125 8.24996 5.32673 8.10024 5.16389 8.07757C5.00164 8.05789 4.85133 8.16943 4.82867 8.33227C4.82091 8.39013 4.66165 9.71372 5.46272 11.0844C5.2635 11.264 5.11199 11.4984 5.03922 11.7698ZM11.7073 10.2965C11.95 10.0716 12.3395 10.0758 12.5752 10.3054C12.6336 10.3615 12.7082 10.3895 12.7833 10.3895C12.8615 10.3895 12.939 10.3591 12.9969 10.2989C13.1114 10.1808 13.109 9.99168 12.9909 9.87715C12.8537 9.74414 12.6897 9.65526 12.5155 9.59979C12.6921 8.99377 12.6223 8.72476 12.4582 8.22073C12.4296 8.13305 12.398 8.03522 12.3646 7.92368L12.3467 7.86403C12.1296 7.14348 11.9858 6.66809 12.3986 5.99705C12.4851 5.85688 12.4409 5.67316 12.3008 5.58667C12.163 5.50078 11.9775 5.54313 11.8904 5.68449C11.3369 6.58399 11.5403 7.25741 11.7759 8.03701L11.7938 8.09666C11.829 8.21238 11.8612 8.31378 11.891 8.40504C12.0383 8.85896 12.0831 9.01107 11.9029 9.55983C11.6828 9.60098 11.4723 9.7006 11.3005 9.86045C11.18 9.97259 11.1734 10.1617 11.2856 10.2822C11.3983 10.4027 11.5874 10.4086 11.7073 10.2965ZM15.5039 8.51599C15.6775 8.51599 15.8528 8.4796 16.0163 8.40206C16.1654 8.33167 16.2292 8.15392 16.1588 8.0048C16.089 7.85568 15.9089 7.79365 15.7622 7.86224C15.4627 8.00301 15.0935 7.88073 14.9366 7.58965C14.8585 7.44411 14.6766 7.39102 14.5328 7.46737C14.3879 7.54492 14.333 7.72625 14.4111 7.87119C14.5185 8.07161 14.6783 8.22968 14.8644 8.33943C14.5441 9.11784 14.7261 9.94456 14.8746 10.383C14.9163 10.5076 15.0327 10.5858 15.1573 10.5858C15.1889 10.5858 15.2205 10.581 15.2528 10.5703C15.409 10.5178 15.4925 10.3484 15.4395 10.1927C15.3392 9.89565 15.1448 9.14527 15.4383 8.50704C15.4609 8.50823 15.4818 8.51599 15.5039 8.51599ZM18.3652 14.1402C18.3539 13.9762 18.2119 13.8467 18.0485 13.8616C17.4436 13.9046 16.9283 13.4459 16.8871 12.8458C16.8752 12.6818 16.729 12.5595 16.5692 12.5685C16.4052 12.5798 16.2811 12.7224 16.2918 12.8864C16.3163 13.2383 16.4505 13.5557 16.6545 13.8139C16.1749 14.3782 15.5468 14.5387 15.1967 14.5798C14.8871 14.6168 14.6163 14.5852 14.3032 14.5482C14.0163 14.5154 13.6918 14.4778 13.2903 14.4897L13.2874 14.4903C13.2754 14.3197 13.2349 14.071 13.1054 13.864C13.0183 13.7251 12.834 13.6827 12.6945 13.7698C12.5555 13.8569 12.5125 14.0412 12.6002 14.1808C12.6801 14.309 12.6951 14.5136 12.6951 14.6132C12.3944 14.7212 12.1344 14.8798 11.8993 15.0331C11.4794 15.3063 11.1484 15.5222 10.6503 15.4101C10.1994 15.3069 9.74784 15.286 9.3649 15.3397C9.30525 15.19 9.21101 15.0111 9.06547 14.8733C8.94557 14.7599 8.75709 14.7647 8.64375 14.8852C8.53102 15.0045 8.53579 15.1936 8.65568 15.3069C8.70698 15.3552 8.74754 15.4256 8.78035 15.496C8.12243 15.7668 7.79258 16.2195 7.77707 16.2416C7.68163 16.3752 7.71325 16.5595 7.84566 16.6556C7.89815 16.6931 7.95899 16.7116 8.01984 16.7116C8.11229 16.7116 8.20355 16.6693 8.26201 16.5893C8.26499 16.5846 8.59246 16.1462 9.23845 15.969C9.57247 15.8772 10.0514 15.8849 10.5185 15.9911C10.6491 16.0209 10.7702 16.031 10.8877 16.0328C10.9432 16.1629 10.9647 16.3174 10.9676 16.3746C10.9772 16.5333 11.1084 16.6562 11.2653 16.6562L11.2814 16.6556C11.4454 16.6466 11.5713 16.5076 11.5635 16.3436C11.5617 16.3138 11.5498 16.1372 11.486 15.9344C11.761 15.8348 12.0002 15.6791 12.225 15.533C12.5662 15.3105 12.8889 15.0999 13.3106 15.0862C13.6637 15.0737 13.9548 15.1077 14.2358 15.1405C14.5185 15.1733 14.7965 15.1948 15.103 15.1769C15.1573 15.3278 15.1531 15.5294 15.1448 15.5968C15.1251 15.7596 15.2402 15.9088 15.4037 15.9302C15.4162 15.932 15.4287 15.9326 15.4412 15.9326C15.5886 15.9326 15.7168 15.8235 15.7365 15.6732C15.7413 15.6362 15.7717 15.3678 15.7013 15.088C16.1296 14.9729 16.6605 14.723 17.1001 14.2106C17.3571 14.3681 17.6572 14.4605 17.9763 14.4605C18.0133 14.4605 18.0508 14.4593 18.0878 14.4569C18.2519 14.4462 18.3759 14.3048 18.3652 14.1402Z" fill="#EA596E"/>
</svg>
