<svg width="24" height="24" viewBox="0 0 24 24" fill="none" xmlns="http://www.w3.org/2000/svg">
<path d="M7.88232 5.29321V11.4282C7.88232 14.1851 10.1168 16.4196 12.8737 16.4196C15.6306 16.4196 17.8651 14.1851 17.8651 11.4282V5.46625L7.88232 5.29321Z" fill="#F7DECE"/>
<path d="M10.6553 14.2012H15.0921C15.0921 14.2012 14.5375 15.3104 12.8737 15.3104C11.2099 15.3104 10.6553 14.2012 10.6553 14.2012Z" fill="#C1694F"/>
<path d="M10.6552 10.8735C10.349 10.8735 10.1006 10.6251 10.1006 10.3189V9.76431C10.1006 9.45818 10.349 9.20972 10.6552 9.20972C10.9613 9.20972 11.2098 9.45818 11.2098 9.76431V10.3189C11.2098 10.6251 10.9613 10.8735 10.6552 10.8735ZM15.092 10.8735C14.7858 10.8735 14.5374 10.6251 14.5374 10.3189V9.76431C14.5374 9.45818 14.7858 9.20972 15.092 9.20972C15.3981 9.20972 15.6466 9.45818 15.6466 9.76431V10.3189C15.6466 10.6251 15.3981 10.8735 15.092 10.8735Z" fill="#662113"/>
<path d="M13.4282 12.8146H12.319C12.166 12.8146 12.0417 12.6904 12.0417 12.5373C12.0417 12.3842 12.166 12.26 12.319 12.26H13.4282C13.5813 12.26 13.7055 12.3842 13.7055 12.5373C13.7055 12.6904 13.5813 12.8146 13.4282 12.8146Z" fill="#C1694F"/>
<path d="M8.90658 9.60636C8.90658 10.4826 8.4629 11.1931 7.91496 11.1931C7.36702 11.1931 6.92334 10.4826 6.92334 9.60636C6.92334 8.73009 7.36757 8.01965 7.91496 8.01965C8.46235 8.01965 8.90658 8.73009 8.90658 9.60636ZM18.8239 9.60636C18.8239 10.4826 18.3802 11.1931 17.8323 11.1931C17.2843 11.1931 16.8407 10.4826 16.8407 9.60636C16.8407 8.73009 17.2843 8.01965 17.8323 8.01965C18.3802 8.01965 18.8239 8.73009 18.8239 9.60636Z" fill="#F7DECE"/>
<path d="M12.8736 2.45642C8.98083 2.45642 7.25049 5.05416 7.25049 7.21931C7.25049 9.3839 7.99531 9.98453 8.11566 9.3839C8.54825 7.21931 9.84601 6.5549 9.84601 6.5549C12.4415 8.72005 12.0089 6.98804 12.0089 6.98804C14.6039 9.58577 13.3067 6.98804 13.3067 6.98804C14.1719 7.85432 16.7668 7.85432 16.7668 7.85432C16.7668 7.85432 17.1994 8.51873 17.6314 9.38446C18.064 10.2507 18.4966 9.38446 18.4966 7.21986C18.4966 5.05416 16.3337 2.45642 12.8736 2.45642Z" fill="#292F33"/>
<path d="M9.77946 3.62774C9.4517 3.41201 9.01024 3.50351 8.7945 3.83128L8.43678 4.3759V3.1092C8.43678 2.49636 7.93986 2 7.32759 2H5.1092C4.49692 2 4 2.49692 4 3.1092V7.54598C4 7.54598 4 8.10057 4.5546 8.10057H7.88218L8.43678 7.54598V6.96753L9.98355 4.61271C10.1993 4.28439 10.1083 3.84348 9.77946 3.62774Z" fill="#F7DECE"/>
<path d="M5.10913 2H5.66373V4.77299H5.10913V2ZM6.77292 2H7.32752V4.77299H6.77292V2Z" fill="#E0AA94"/>
<path d="M17.8649 16.9742H7.88218L8.43678 7.54602H4V16.9742C4 16.9742 4 21.9656 8.43678 21.9656H20.0833V19.1926C20.0833 17.9675 19.09 16.9742 17.8649 16.9742Z" fill="#4289C1"/>
<path d="M17.3103 19.7471H17.8649V21.9655H17.3103V19.7471Z" fill="#2A6797"/>
<path d="M11.2097 15.3103V17.5287C11.2097 18.4477 11.9545 19.1925 12.8735 19.1925C13.7925 19.1925 14.5373 18.4477 14.5373 17.5287V15.3103H11.2097Z" fill="#F7DECE"/>
</svg>
