<svg width="24" height="24" viewBox="0 0 24 24" fill="none" xmlns="http://www.w3.org/2000/svg">
<path d="M21.0765 8.98684C21.0765 6.23266 18.8439 4 16.0902 4C14.4185 4 12.9434 4.82524 12.0383 6.08661C11.1332 4.82524 9.65804 4 7.98684 4C5.23266 4 3 6.23215 3 8.98684C3 9.37697 3.04952 9.75497 3.13442 10.1193C3.82676 14.4214 8.60994 18.96 12.0383 20.2062C15.4661 18.96 20.2498 14.4214 20.9411 10.1198C21.027 9.75548 21.0765 9.37747 21.0765 8.98684Z" fill="#DD2E44"/>
<path d="M20.2992 15.082L18.3667 14.3664L17.6511 12.4339C17.5778 12.2348 17.3883 12.1034 17.1771 12.1034C16.9659 12.1034 16.7764 12.2348 16.7031 12.4334L15.9875 14.3659L14.055 15.0815C13.8564 15.1542 13.725 15.3437 13.725 15.5555C13.725 15.7667 13.8569 15.9562 14.055 16.0295L15.9875 16.7451L16.7031 18.6776C16.7764 18.8762 16.9659 19.0076 17.1771 19.0076C17.3883 19.0076 17.5778 18.8757 17.6511 18.6776L18.3667 16.7451L20.2992 16.0295C20.4973 15.9562 20.6292 15.7667 20.6292 15.5555C20.6292 15.3442 20.4973 15.1547 20.2992 15.082ZM8.67603 6.99579L7.48087 6.5536L7.03868 5.35844C6.9649 5.15983 6.7759 5.02844 6.56466 5.02844C6.35291 5.02844 6.16391 5.15983 6.09064 5.35844L5.64794 6.5536L4.45329 6.99579C4.25468 7.06957 4.12329 7.25857 4.12329 7.46981C4.12329 7.68105 4.25468 7.87005 4.45329 7.94383L5.64845 8.38602L6.09064 9.58118C6.16442 9.77978 6.35342 9.91118 6.56466 9.91118C6.7759 9.91118 6.9649 9.77978 7.03868 9.58118L7.48087 8.38602L8.67603 7.94383C8.87463 7.87005 9.00602 7.68155 9.00602 7.46981C9.00602 7.25857 8.87463 7.06957 8.67603 6.99579Z" fill="#FDCB58"/>
</svg>
