<svg width="24" height="24" viewBox="0 0 24 24" fill="none" xmlns="http://www.w3.org/2000/svg">
<path d="M3.46657 6.66663C2.3999 6.66663 2.3999 7.73329 2.3999 7.73329V18.9333C2.3999 18.9333 2.3999 20 3.46657 20H20.5332C21.5999 20 21.5999 18.9333 21.5999 18.9333V7.73329C21.5999 7.73329 21.5999 6.66663 20.5332 6.66663H3.46657Z" fill="#9266CC"/>
<path d="M3.46657 4C2.3999 4 2.3999 5.06667 2.3999 5.06667V15.7333C2.3999 15.7333 2.3999 16.8 3.46657 16.8H20.5332C21.5999 16.8 21.5999 15.7333 21.5999 15.7333V5.06667C21.5999 5.06667 21.5999 4 20.5332 4H3.46657Z" fill="#CBB8E9"/>
<path d="M15.7333 13.8667C17.6479 13.8667 19.1999 12.3146 19.1999 10.4C19.1999 8.48543 17.6479 6.93335 15.7333 6.93335C13.8187 6.93335 12.2666 8.48543 12.2666 10.4C12.2666 12.3146 13.8187 13.8667 15.7333 13.8667Z" fill="#AA8DD8"/>
<path d="M20 16H3.99995C3.55888 16 3.19995 15.6411 3.19995 15.2V5.60005C3.19995 5.15898 3.55888 4.80005 3.99995 4.80005H20C20.441 4.80005 20.8 5.15898 20.8 5.60005V15.2C20.8 15.6411 20.441 16 20 16ZM3.99995 5.33338C3.85328 5.33338 3.73328 5.45285 3.73328 5.60005V15.2C3.73328 15.3467 3.85328 15.4667 3.99995 15.4667H20C20.1466 15.4667 20.2666 15.3467 20.2666 15.2V5.60005C20.2666 5.45285 20.1466 5.33338 20 5.33338H3.99995Z" fill="#9266CC"/>
<path d="M9.86646 4H14.1331V16.8331H9.86646V4Z" fill="#FFE8B6"/>
<path d="M9.86646 16.8H14.1331V20H9.86646V16.8Z" fill="#FFAC33"/>
<path d="M7.36405 10.0346C7.59819 10.0346 7.76672 10.1562 7.76672 10.4186C7.76672 10.681 7.59819 10.8026 7.36405 10.8026H6.34272C6.37099 10.9621 6.40832 11.1397 6.40832 11.4208C6.40832 11.8613 6.11819 12.5354 5.60299 12.9946H8.75979C8.99445 12.9946 9.16299 13.1162 9.16299 13.3786C9.16299 13.641 8.99445 13.7632 8.75979 13.7632H5.01312C4.75126 13.7632 4.51659 13.6976 4.51659 13.3696C4.51659 12.9674 5.58432 12.5269 5.58432 11.4122C5.58432 11.2437 5.57472 11.0096 5.51872 10.8032H4.57259C4.33846 10.8032 4.16992 10.6816 4.16992 10.4192C4.16992 10.1568 4.33846 10.0352 4.57259 10.0352H5.29419C5.06966 9.63251 4.83552 9.19198 4.83552 8.69598C4.83552 7.71198 5.80032 7.03784 6.85845 7.03784C7.97312 7.03784 9.00352 7.95624 9.00352 8.69598C9.00352 8.94878 8.84459 9.09864 8.61046 9.09864C7.98272 9.09864 8.31072 7.80584 6.86752 7.80584C6.25845 7.80584 5.65899 8.13384 5.65899 8.75198C5.65899 9.24851 5.94006 9.62291 6.15552 10.0352H7.36405V10.0346Z" fill="#9266CC"/>
</svg>
