<svg width="24" height="24" viewBox="0 0 24 24" fill="none" xmlns="http://www.w3.org/2000/svg">
<path d="M3.46657 6.66663C2.3999 6.66663 2.3999 7.73329 2.3999 7.73329V18.9333C2.3999 18.9333 2.3999 20 3.46657 20H20.5332C21.5999 20 21.5999 18.9333 21.5999 18.9333V7.73329C21.5999 7.73329 21.5999 6.66663 20.5332 6.66663H3.46657Z" fill="#5C913B"/>
<path d="M3.46657 4C2.3999 4 2.3999 5.06667 2.3999 5.06667V15.7333C2.3999 15.7333 2.3999 16.8 3.46657 16.8H20.5332C21.5999 16.8 21.5999 15.7333 21.5999 15.7333V5.06667C21.5999 5.06667 21.5999 4 20.5332 4H3.46657Z" fill="#A7D28B"/>
<path d="M15.7333 13.8667C17.6479 13.8667 19.1999 12.3146 19.1999 10.4C19.1999 8.48543 17.6479 6.93335 15.7333 6.93335C13.8187 6.93335 12.2666 8.48543 12.2666 10.4C12.2666 12.3146 13.8187 13.8667 15.7333 13.8667Z" fill="#77B255"/>
<path d="M20 16H3.99995C3.55888 16 3.19995 15.6411 3.19995 15.2V5.60005C3.19995 5.15898 3.55888 4.80005 3.99995 4.80005H20C20.441 4.80005 20.8 5.15898 20.8 5.60005V15.2C20.8 15.6411 20.441 16 20 16ZM3.99995 5.33338C3.85328 5.33338 3.73328 5.45285 3.73328 5.60005V15.2C3.73328 15.3467 3.85328 15.4667 3.99995 15.4667H20C20.1466 15.4667 20.2666 15.3467 20.2666 15.2V5.60005C20.2666 5.45285 20.1466 5.33338 20 5.33338H3.99995Z" fill="#5C913B"/>
<path d="M9.86646 4H14.1331V16.8331H9.86646V4Z" fill="#FFE8B6"/>
<path d="M9.86646 16.8H14.1331V20H9.86646V16.8Z" fill="#FFAC33"/>
<path d="M8.69852 11.4789C8.69852 9.8901 5.76892 9.99356 5.76892 9.0341C5.76892 8.56956 6.21319 8.3429 6.72839 8.3429C7.59505 8.3429 7.74919 8.8997 8.14172 8.8997C8.41959 8.8997 8.55345 8.72476 8.55345 8.5285C8.55345 8.07196 7.86225 7.72743 7.19932 7.60797V7.16796C7.19932 6.8933 6.97692 6.6709 6.70225 6.6709C6.42759 6.6709 6.20519 6.89383 6.20519 7.16796V7.6229C5.48305 7.78823 4.86065 8.28956 4.86065 9.1061C4.86065 10.6325 7.79025 10.5706 7.79025 11.6437C7.79025 12.0144 7.38812 12.3856 6.72785 12.3856C5.73745 12.3856 5.40732 11.7152 5.00572 11.7152C4.80945 11.7152 4.63452 11.88 4.63452 12.1285C4.63452 12.5237 5.29585 12.9984 6.20625 13.1317L6.20572 13.1338V13.632C6.20572 13.9061 6.42865 14.129 6.70332 14.129C6.97745 14.1285 7.19985 13.9056 7.19985 13.632V13.1338C7.19985 13.1285 7.19719 13.1237 7.19665 13.1189C8.01532 12.9658 8.69852 12.433 8.69852 11.4789Z" fill="#5C913B"/>
</svg>
