<svg width="24" height="24" viewBox="0 0 24 24" fill="none" xmlns="http://www.w3.org/2000/svg">
<path d="M3.46657 6.66663C2.3999 6.66663 2.3999 7.73329 2.3999 7.73329V18.9333C2.3999 18.9333 2.3999 20 3.46657 20H20.5332C21.5999 20 21.5999 18.9333 21.5999 18.9333V7.73329C21.5999 7.73329 21.5999 6.66663 20.5332 6.66663H3.46657Z" fill="#2A6797"/>
<path d="M3.46657 4C2.3999 4 2.3999 5.06667 2.3999 5.06667V15.7333C2.3999 15.7333 2.3999 16.8 3.46657 16.8H20.5332C21.5999 16.8 21.5999 15.7333 21.5999 15.7333V5.06667C21.5999 5.06667 21.5999 4 20.5332 4H3.46657Z" fill="#5DADEC"/>
<path d="M15.7333 13.8667C17.6479 13.8667 19.1999 12.3146 19.1999 10.4C19.1999 8.48543 17.6479 6.93335 15.7333 6.93335C13.8187 6.93335 12.2666 8.48543 12.2666 10.4C12.2666 12.3146 13.8187 13.8667 15.7333 13.8667Z" fill="#4289C1"/>
<path d="M20 16H3.99995C3.55888 16 3.19995 15.6411 3.19995 15.2V5.60005C3.19995 5.15898 3.55888 4.80005 3.99995 4.80005H20C20.441 4.80005 20.8 5.15898 20.8 5.60005V15.2C20.8 15.6411 20.441 16 20 16ZM3.99995 5.33338C3.85328 5.33338 3.73328 5.45285 3.73328 5.60005V15.2C3.73328 15.3467 3.85328 15.4667 3.99995 15.4667H20C20.1466 15.4667 20.2666 15.3467 20.2666 15.2V5.60005C20.2666 5.45285 20.1466 5.33338 20 5.33338H3.99995Z" fill="#2A6797"/>
<path d="M9.86646 4H14.1331V16.8331H9.86646V4Z" fill="#FFE8B6"/>
<path d="M9.86646 16.8H14.1331V20H9.86646V16.8Z" fill="#FFAC33"/>
<path d="M9.20729 12.4481C9.20729 12.799 8.42115 13.2198 7.44675 13.2198C6.15609 13.2198 5.37902 12.3233 5.12089 11.2241H4.43075C4.26275 11.2241 4.12622 11.0881 4.12622 10.9206C4.12622 10.7526 4.26275 10.6166 4.43075 10.6166H5.03289C5.02862 10.5441 5.01742 10.4726 5.01742 10.4001C5.01742 10.2401 5.03129 10.0817 5.05102 9.92539H4.43075C4.26275 9.92539 4.12622 9.78886 4.12622 9.62086C4.12622 9.45286 4.26275 9.31739 4.43075 9.31739H5.18595C5.50222 8.33872 6.26862 7.58032 7.48622 7.58032C8.46755 7.58032 9.09049 8.10992 9.09049 8.39046C9.09049 8.56966 8.98115 8.71686 8.80995 8.71686C8.49849 8.71686 8.34275 8.17179 7.48622 8.17179C6.68089 8.17179 6.19129 8.67419 5.94435 9.31686H7.71875C7.88675 9.31686 8.02275 9.45286 8.02275 9.62032C8.02275 9.78832 7.88675 9.92485 7.71875 9.92485H5.78702C5.76409 10.0833 5.74862 10.2427 5.74862 10.4001C5.74862 10.4715 5.75715 10.5441 5.76195 10.6161H7.71822C7.88622 10.6161 8.02222 10.7521 8.02222 10.9201C8.02222 11.0875 7.88622 11.2235 7.71822 11.2235H5.85849C6.06595 11.9862 6.57635 12.6267 7.44675 12.6267C8.28035 12.6267 8.64675 12.1286 8.93475 12.1286C9.09849 12.1291 9.20729 12.2539 9.20729 12.4481Z" fill="#2A6797"/>
</svg>
