<svg width="24" height="24" viewBox="0 0 24 24" fill="none" xmlns="http://www.w3.org/2000/svg">
<path d="M22.6817 11.7673C21.1073 9.47395 17.8523 12.8491 11.9118 13.5351C9.71227 13.7888 7.73047 15.6254 5.17548 15.4504C4.12787 15.3785 2.665 12.3643 1.56983 12.8448C1.00639 13.0924 0.747842 13.9187 1.32714 14.5394L7.75913 22.2142C7.75913 22.2142 8.08597 22.591 9.18724 22.33C9.4586 22.4099 13.538 20.7751 15.8967 17.5024C16.4613 16.7188 17.1345 16.0663 17.8315 15.5212C20.0944 13.8479 22.5543 13.265 22.5543 13.265C22.8689 13.0052 22.9427 12.729 22.9257 12.4893C22.9464 12.0893 22.6817 11.7673 22.6817 11.7673Z" fill="#5C913B"/>
<path d="M7.97003 8.105C5.66322 11.3064 1.6234 12.8229 1.6234 12.8229C0.869711 13.4613 1.50632 14.2138 1.50632 14.2138L7.87124 21.7501C7.87124 21.7501 8.18955 22.1264 9.26155 21.8654C9.26155 21.8654 13.3014 20.3519 15.6076 17.1505C17.9851 13.8516 22.2725 12.8101 22.2725 12.8101C23.0256 12.1716 22.3896 11.4179 22.3896 11.4179L16.0247 3.88286C16.0247 3.88286 15.7063 3.50601 14.6343 3.76578C14.6343 3.76578 10.3476 4.80485 7.97003 8.105Z" fill="#A7D28B"/>
<path d="M14.3875 13.7309C16.2398 13.7309 17.7413 12.2294 17.7413 10.3771C17.7413 8.52487 16.2398 7.02332 14.3875 7.02332C12.5352 7.02332 11.0337 8.52487 11.0337 10.3771C11.0337 12.2294 12.5352 13.7309 14.3875 13.7309Z" fill="#77B255"/>
<path d="M8.82211 21.3099C8.2849 21.3099 8.08794 21.1099 8.06111 21.0794L2.32365 14.3822C2.31268 14.3694 2.02181 14.0364 2.05718 13.6132C2.07852 13.3565 2.21145 13.1278 2.45171 12.9333L2.49013 12.9101C2.52732 12.8955 6.24822 11.3662 8.33368 8.60202L8.45564 8.69349L8.33368 8.60202C10.5399 5.6775 14.3455 4.42257 14.3833 4.41037C15.4474 4.1628 15.7956 4.51647 15.8328 4.55794L21.4946 11.2924C21.505 11.3034 21.7953 11.6375 21.7599 12.0613C21.7385 12.3174 21.6056 12.5461 21.3654 12.7406L21.305 12.7705C21.2678 12.7796 17.5676 13.6992 15.4242 16.5396C13.2906 19.369 9.56605 21.1995 9.52885 21.2172C9.24591 21.2843 9.01298 21.3099 8.82211 21.3099ZM8.29099 20.8788C8.2916 20.8788 8.56662 21.1325 9.42824 20.9324C9.43312 20.9257 13.0924 19.1263 15.1822 16.3566C17.278 13.5791 20.8074 12.587 21.1989 12.4839C21.3556 12.3491 21.4422 12.1997 21.4562 12.0394C21.4818 11.7467 21.266 11.4948 21.2641 11.4924L15.6023 4.75734C15.6011 4.75734 15.3279 4.50428 14.4657 4.70429C14.4407 4.71282 10.7246 5.93971 8.57759 8.78557C6.52506 11.5058 2.9438 13.051 2.62733 13.1839C2.4639 13.3211 2.37488 13.4742 2.36085 13.6382C2.33646 13.9285 2.5511 14.1791 2.55293 14.1815L8.29099 20.8788Z" fill="#5C913B"/>
<path d="M13.946 15.3566L13.9424 18.9787L14.2454 19.3384C14.8363 18.7994 15.404 18.1933 15.8949 17.5115C16.4041 16.8054 16.9956 16.2011 17.6194 15.6907L17.3248 15.3401L13.946 15.3566Z" fill="#FFAC33"/>
<path d="M17.3133 15.3273L9.68739 6.29456C9.06785 6.80433 8.47271 7.39887 7.96659 8.10195C7.47205 8.78857 6.89642 9.39286 6.29883 9.92582L7.19033 10.9813L7.18972 10.982L13.9431 18.9787C14.5407 18.4451 15.1096 17.8347 15.6047 17.1475C16.1109 16.445 16.7054 15.8511 17.3243 15.3413L17.3127 15.3273H17.3133Z" fill="#FFE8B6"/>
<path d="M9.80132 15.5938C8.85189 14.4694 6.84205 16.2939 6.26885 15.6152C5.9914 15.2865 6.17006 14.8603 6.53471 14.5529C7.14755 14.0346 7.58964 14.3365 7.86709 14.1017C8.06405 13.9358 8.05368 13.7328 7.93661 13.5931C7.66464 13.2718 6.96949 13.4395 6.42922 13.7517L6.16641 13.4407C6.00237 13.2468 5.71212 13.2218 5.51821 13.3858C5.32429 13.5504 5.2999 13.8395 5.46394 14.0334L5.7359 14.356C5.32308 14.9036 5.18283 15.6304 5.67126 16.2079C6.5835 17.2872 8.61834 15.4932 9.25862 16.2518C9.48058 16.5152 9.41838 17.0177 8.95129 17.4116C8.25125 18.0037 7.61708 17.7262 7.33231 17.9665C7.19328 18.083 7.16828 18.3049 7.31646 18.4811C7.55244 18.7598 8.30431 18.7001 9.0269 18.25C9.02812 18.2513 9.02812 18.2525 9.02812 18.2537L9.32508 18.6049C9.48911 18.7988 9.77998 18.8226 9.97389 18.6598C10.1684 18.4952 10.1922 18.2049 10.0282 18.011L9.7312 17.6598C9.72815 17.6561 9.72327 17.6537 9.71961 17.65C10.2068 17.0536 10.3715 16.2676 9.80132 15.5938Z" fill="#5C913B"/>
<path d="M20.7634 21.7118C20.7689 21.7069 20.775 21.7032 20.7805 21.699C20.8219 21.6575 20.8543 21.6099 20.8908 21.5642C20.9165 21.5325 20.9451 21.502 20.9689 21.4697C20.9902 21.4392 21.0079 21.4081 21.0274 21.377C21.8933 20.0434 21.3262 17.7823 19.6121 16.0676C17.8974 14.3529 15.6357 13.7858 14.3027 14.6523C14.271 14.6712 14.2399 14.6889 14.2095 14.7108C14.1771 14.7346 14.146 14.7633 14.1155 14.7883C14.0704 14.8255 14.0229 14.8572 13.9808 14.8993C13.9753 14.9047 13.9716 14.9108 13.9674 14.9163C13.9607 14.923 13.9527 14.9273 13.9454 14.9346L13.9491 14.9377C13.3393 15.5853 13.332 16.5871 13.9454 17.2012C14.5601 17.8159 15.5613 17.8073 16.2095 17.1975L16.2162 17.2048C16.2034 17.217 16.1894 17.225 16.1772 17.2372C15.5315 17.8829 15.5162 18.9129 16.1412 19.5391C16.7669 20.1641 17.798 20.1489 18.4432 19.5031C18.4554 19.4909 18.4633 19.4769 18.4755 19.4641L18.4822 19.4714C17.8724 20.119 17.8645 21.1209 18.4792 21.7355C19.0932 22.349 20.0945 22.3417 20.7421 21.7319L20.7457 21.7355C20.7518 21.727 20.7567 21.7191 20.7634 21.7118Z" fill="#E1E8ED"/>
<path d="M13.9466 17.2256C14.4991 17.7774 15.3619 17.8225 16.0016 17.3847C16.2693 16.9274 16.3461 16.4926 16.3461 16.3566C15.0003 17.3603 13.799 16.3621 13.5301 15.7651C13.4185 16.281 13.5539 16.8323 13.9466 17.2256ZM18.3974 19.5671C18.5791 19.3116 18.72 19.0647 18.7859 18.8976C17.9291 19.683 16.2912 19.108 15.7949 17.8622C15.5766 18.4415 15.6882 19.1086 16.1431 19.5635C16.7541 20.1745 17.7492 20.1696 18.3974 19.5671ZM20.7475 21.7593L20.7652 21.7374C20.7713 21.7325 20.7774 21.7288 20.7823 21.7239C20.8244 21.6825 20.8567 21.6349 20.8927 21.5898C20.9189 21.5575 20.9469 21.5276 20.9707 21.4947C20.9927 21.4648 21.0103 21.4331 21.0299 21.402C21.0695 21.341 21.0908 21.269 21.1244 21.2044C19.5828 21.8941 18.4322 20.7239 18.1096 20.1403C17.9297 20.6995 18.0468 21.3257 18.481 21.7605C19.0944 22.3746 20.0957 22.3673 20.7439 21.7569L20.7475 21.7593Z" fill="#CCD6DD"/>
<path d="M9.48232 9.4612L9.49939 9.44779C9.54147 9.40632 9.57378 9.35876 9.60976 9.31363C9.63537 9.28193 9.66342 9.25205 9.6872 9.21912C9.70916 9.18863 9.72684 9.15753 9.74635 9.12643C10.6122 7.79284 10.0445 5.53115 8.33044 3.81705C6.61573 2.10234 4.35465 1.53463 3.02105 2.40052C2.98995 2.42004 2.95825 2.43772 2.92776 2.45967C2.89483 2.48345 2.86495 2.5115 2.83324 2.53711C2.78812 2.5737 2.74055 2.60541 2.69909 2.64748C2.6936 2.65297 2.68994 2.65968 2.68567 2.66456C2.67897 2.67066 2.67043 2.67614 2.66372 2.68285L2.66677 2.6859C2.05699 3.33349 2.04967 4.33536 2.66372 4.94942C3.27777 5.56347 4.27965 5.55615 4.92724 4.94637L4.93394 4.95308C4.92114 4.96466 4.90711 4.9732 4.89492 4.98539C4.24916 5.63115 4.23391 6.66108 4.85955 7.28733C5.48519 7.91357 6.51572 7.89772 7.16148 7.25196C7.17368 7.23976 7.1816 7.22574 7.1938 7.21293L7.20051 7.21964C6.59072 7.86723 6.5828 8.8691 7.19746 9.48316C7.81151 10.0972 8.81277 10.0899 9.46036 9.4795L9.46341 9.48316C9.47012 9.47645 9.47561 9.46852 9.48232 9.4612Z" fill="#E1E8ED"/>
<path d="M2.66316 4.95005C3.21563 5.50252 4.07847 5.54764 4.71813 5.1086C4.98583 4.65126 5.06205 4.21709 5.06205 4.08111C3.71687 5.08421 2.51499 4.08538 2.24668 3.4884C2.13509 4.00489 2.27046 4.55674 2.66316 4.95005ZM7.11519 7.2904C7.2963 7.0349 7.43716 6.78916 7.5024 6.62208C6.64505 7.40748 5.00717 6.83184 4.51142 5.58606C4.29311 6.16535 4.40471 6.83245 4.85899 7.28735C5.47122 7.89897 6.46699 7.89348 7.11519 7.2904ZM9.46347 9.48379C9.47017 9.47708 9.47566 9.46916 9.48176 9.46184L9.49883 9.44842C9.54091 9.40696 9.57323 9.3594 9.6092 9.31427C9.63482 9.28256 9.66287 9.25268 9.68665 9.21976C9.7086 9.18927 9.72628 9.15817 9.7458 9.12707C9.78543 9.06609 9.80678 8.99353 9.84031 8.92889C8.29878 9.61855 7.14812 8.44899 6.82554 7.86543C6.64566 8.4246 6.76274 9.05085 7.1969 9.48501C7.81095 10.0991 8.81222 10.0917 9.45981 9.48135L9.46347 9.48379Z" fill="#CCD6DD"/>
</svg>
