<svg width="24" height="24" viewBox="0 0 24 24" fill="none" xmlns="http://www.w3.org/2000/svg">
<path d="M21 12C21 16.9705 16.9705 21 12 21C7.03 21 3 16.9705 3 12C3 7.03 7.03 3 12 3C16.9705 3 21 7.03 21 12Z" fill="#FFCB4C"/>
<path d="M9.0879 12.208C9.81885 12.208 10.4114 11.3783 10.4114 10.355C10.4114 9.33157 9.81885 8.50195 9.0879 8.50195C8.35696 8.50195 7.7644 9.33157 7.7644 10.355C7.7644 11.3783 8.35696 12.208 9.0879 12.208Z" fill="#65471B"/>
<path d="M15.441 13.5881C17.3414 13.5881 18.882 12.0475 18.882 10.1471C18.882 8.24664 17.3414 6.70605 15.441 6.70605C13.5406 6.70605 12 8.24664 12 10.1471C12 12.0475 13.5406 13.5881 15.441 13.5881Z" fill="#F4F7F9"/>
<path d="M10.4125 7.97296C10.2515 7.97296 10.0925 7.89996 9.98852 7.76146C9.49302 7.10096 8.97452 6.74696 8.44702 6.70946C7.75202 6.66196 7.18552 7.18296 7.08002 7.28846C6.87302 7.49546 6.53802 7.49546 6.33152 7.28846C6.12452 7.08146 6.12452 6.74646 6.33152 6.53996C6.56002 6.31146 7.39602 5.57196 8.52202 5.65346C9.36952 5.71346 10.1475 6.20896 10.8355 7.12596C11.011 7.35996 10.9635 7.69196 10.73 7.86696C10.634 7.93846 10.5225 7.97296 10.4125 7.97296Z" fill="#65471B"/>
<path d="M19.4121 20.9999C19.1196 20.9999 18.8826 20.7629 18.8826 20.4704V10.4119C18.8826 10.1194 19.1196 9.88245 19.4121 9.88245C19.7046 9.88245 19.9416 10.1194 19.9416 10.4119V20.4709C19.9411 20.7629 19.7046 20.9999 19.4121 20.9999Z" fill="#292F33"/>
<path d="M19.412 9.35301C19.385 9.35301 19.3595 9.35901 19.333 9.36101C18.967 7.54701 17.3615 6.17651 15.441 6.17651C13.2515 6.17651 11.4705 7.95751 11.4705 10.147C11.4705 12.3365 13.2515 14.1175 15.441 14.1175C17.175 14.1175 18.649 12.9985 19.189 11.446C19.261 11.4615 19.335 11.4705 19.4115 11.4705C19.9965 11.4705 20.4705 10.9965 20.4705 10.4115C20.4705 9.82701 19.9965 9.35301 19.412 9.35301ZM15.441 13.059C13.8355 13.059 12.5295 11.753 12.5295 10.147C12.5295 8.54101 13.836 7.23501 15.441 7.23501C17.0465 7.23501 18.353 8.54101 18.353 10.147C18.353 11.753 17.0465 13.059 15.441 13.059Z" fill="#67757F"/>
<path d="M13.5875 17.294C13.508 17.294 13.427 17.276 13.351 17.238C12.4415 16.783 11.5575 16.783 10.648 17.238C10.386 17.3685 10.068 17.263 9.9375 17.001C9.8065 16.7395 9.9125 16.4215 10.1745 16.2905C11.385 15.6855 12.613 15.6855 13.8245 16.2905C14.086 16.4215 14.192 16.7395 14.0615 17.001C13.969 17.187 13.782 17.294 13.5875 17.294Z" fill="#65471B"/>
<path d="M17.0246 7.70547C16.5686 7.40897 16.0256 7.23547 15.4411 7.23547C13.8331 7.23547 12.5291 8.53897 12.5291 10.1475C12.5291 10.732 12.7031 11.275 12.9991 11.731L17.0246 7.70547ZM14.1986 12.7775C14.5761 12.956 14.9961 13.059 15.4411 13.059C17.0491 13.059 18.3531 11.7555 18.3531 10.147C18.3531 9.70197 18.2501 9.28147 18.0716 8.90447L14.1986 12.7775Z" fill="#BDDDF4"/>
</svg>
