<svg width="24" height="24" viewBox="0 0 24 24" fill="none" xmlns="http://www.w3.org/2000/svg">
<path d="M19.493 22V20.0281C19.493 18.1611 17.417 16.9296 15.5494 16.9296H8.78885C6.92238 16.9296 4.84521 18.1611 4.84521 20.0281V22H19.493Z" fill="#292F33"/>
<path d="M6.59173 20.502C6.73313 20.502 6.81764 22 6.81764 22H6.27905C6.27905 22 6.38778 20.502 6.59173 20.502ZM8.28186 20.502C8.42326 20.502 8.50777 22 8.50777 22H7.96862C7.96918 22 8.07791 20.502 8.28186 20.502ZM16.0818 20.502C15.941 20.502 15.8564 22 15.8564 22H16.3945C16.3945 22 16.2857 20.502 16.0818 20.502ZM17.7719 20.502C17.6311 20.502 17.5466 22 17.5466 22H18.0846C18.0846 22 17.9759 20.502 17.7719 20.502Z" fill="#66757F"/>
<path d="M12.1691 21.1047C14.4666 20.0073 15.3353 16.9296 15.3353 16.9296H9.00293C9.00293 16.9296 9.87166 20.0073 12.1691 21.1047Z" fill="#9266CC"/>
<path d="M9.35229 16.9296H14.9156C14.9156 16.9296 14.208 18.9014 12.1337 18.9014C10.0593 18.9014 9.35229 16.9296 9.35229 16.9296Z" fill="#744EAA"/>
<path d="M12.1375 4.57422C14.4508 4.57422 18.3054 5.73083 18.3054 10.7421C18.3054 15.7533 18.3054 16.9099 17.1488 16.9099C15.9916 16.9099 14.4502 15.7533 12.137 15.7533C9.82432 15.7533 8.31504 16.9099 7.12575 16.9099C5.83731 16.9099 5.96914 12.284 5.96914 10.7421C5.97026 5.73083 9.82488 4.57422 12.1375 4.57422Z" fill="#292F33"/>
<path d="M10.1006 16.9409C10.1006 17.7747 11.3242 18.0564 12.1693 18.0564C13.0144 18.0564 14.2313 17.7747 14.2313 16.9409V15.1353H10.1006V16.9409Z" fill="#F7DECE"/>
<path d="M10.0964 15.9037C10.6728 16.5544 11.3871 16.7307 12.1635 16.7307C12.9404 16.7307 13.6547 16.555 14.2311 15.9037V14.2496H10.0964V15.9037Z" fill="#EEC2AD"/>
<path d="M7.51221 10.573C7.51221 7.28628 9.58318 4.62207 12.1375 4.62207C14.6919 4.62207 16.7634 7.28628 16.7634 10.573C16.7634 13.8592 14.6919 16.3679 12.1375 16.3679C9.58318 16.3679 7.51221 13.8598 7.51221 10.573Z" fill="#F7DECE"/>
<path d="M12.1377 14.9821C11.2334 14.9821 10.7596 14.5348 10.7089 14.4835C10.558 14.3331 10.558 14.0891 10.7089 13.9387C10.8588 13.7894 11.0988 13.7883 11.2498 13.9348C11.2695 13.9528 11.5613 14.2114 12.1377 14.2114C12.723 14.2114 13.0148 13.9449 13.0261 13.9342C13.1799 13.79 13.4222 13.7945 13.5686 13.9455C13.7151 14.097 13.7151 14.3348 13.5664 14.4835C13.5162 14.5348 13.043 14.9821 12.1377 14.9821Z" fill="#DF1F32"/>
<path d="M10.2581 11.795C9.99614 11.795 9.78149 11.5804 9.78149 11.3184V10.8423C9.78149 10.5804 9.99614 10.3657 10.2581 10.3657C10.5201 10.3657 10.7353 10.5804 10.7353 10.8423V11.3184C10.7353 11.5804 10.5201 11.795 10.2581 11.795ZM14.0694 11.795C13.8074 11.795 13.5927 11.5804 13.5927 11.3184V10.8423C13.5927 10.5804 13.8074 10.3657 14.0694 10.3657C14.3313 10.3657 14.546 10.5804 14.546 10.8423V11.3184C14.546 11.5804 14.3313 11.795 14.0694 11.795Z" fill="#662113"/>
<path d="M12.6407 13.2677H11.688C11.5567 13.2677 11.4497 13.1607 11.4497 13.0294V12.9432C11.4497 12.812 11.5562 12.7043 11.688 12.7043H12.6407C12.7714 12.7043 12.879 12.8114 12.879 12.9432V13.0294C12.879 13.1607 12.7714 13.2677 12.6407 13.2677Z" fill="#C1694F"/>
<path d="M6.38051 12.4226C6.36868 11.8593 6.35573 12.2964 6.35573 12.1607C6.35573 10.2328 7.51234 12.439 7.51234 11.066C7.51234 9.69196 8.28304 9.55449 9.05374 8.7838C9.43965 8.39788 10.2103 7.64239 10.2103 7.64239C10.2103 7.64239 12.1377 8.80689 13.6796 8.80689C15.221 8.80689 16.7635 9.58154 16.7635 11.1235C16.7635 12.6655 17.9202 10.2311 17.9202 12.1584C17.9202 12.2959 17.9072 11.8593 17.8976 12.4226H18.3021C18.3061 11.2959 18.3061 11.3387 18.3061 10.6187C18.3061 5.60748 14.4509 3.74158 12.1382 3.74158C9.82556 3.74158 5.97094 5.57649 5.97094 10.5877C5.97094 11.0345 5.95967 11.2959 5.97545 12.4226H6.38051Z" fill="#292F33"/>
<path d="M8.47565 10.6964C8.47565 11.5121 8.06214 12.1735 7.55228 12.1735C7.04242 12.1735 6.62891 11.5121 6.62891 10.6964C6.62891 9.8806 7.04242 9.21863 7.55228 9.21863C8.06214 9.21806 8.47565 9.88003 8.47565 10.6964ZM17.7088 10.6964C17.7088 11.5121 17.2959 12.1735 16.7855 12.1735C16.2756 12.1735 15.8621 11.5121 15.8621 10.6964C15.8621 9.8806 16.275 9.21863 16.7855 9.21863C17.2959 9.21806 17.7088 9.88003 17.7088 10.6964Z" fill="#F7DECE"/>
<path d="M20.1149 3.69647L12.2277 2.00634C12.1894 1.99789 12.1488 1.99789 12.1099 2.00634L4.22267 3.69647C4.09647 3.72351 4.00464 3.83337 4.00013 3.96238C3.99619 4.09139 4.08013 4.20689 4.20464 4.24294L6.98997 5.03899C6.8818 5.3742 6.81701 5.76124 6.81701 6.22546C6.81701 7.51559 8.66771 8.19728 12.1691 8.19728C15.6705 8.19728 17.5212 7.51559 17.5212 6.22546C17.5212 5.76124 17.4564 5.3742 17.3482 5.03899L20.1341 4.24294C20.2586 4.20745 20.3426 4.09139 20.338 3.96238C20.3335 3.83337 20.2417 3.72351 20.1149 3.69647Z" fill="#292F33"/>
<path d="M20.3269 3.89481C20.2841 3.74552 20.1297 3.65988 19.9787 3.70101L12.1692 5.93254L4.3591 3.70101C4.21149 3.65988 4.05375 3.74495 4.01093 3.89481C3.96812 4.0441 4.05488 4.20016 4.20473 4.24298L12.092 6.49648C12.1174 6.50381 12.1433 6.50719 12.1686 6.50719C12.194 6.50719 12.2205 6.50381 12.2458 6.49648L20.1331 4.24298C20.2835 4.20016 20.3703 4.0441 20.3269 3.89481Z" fill="#66757F"/>
<path d="M12.1454 3.69143L5.38493 4.2548C5.37028 4.25593 5.1269 4.28692 5.1269 4.53537V7.96914C4.95845 8.07393 4.84521 8.38604 4.84521 9.32406C4.84521 10.7241 5.09761 11.8593 5.40859 11.8593C5.71957 11.8593 5.97197 10.7241 5.97197 9.32406C5.97197 8.38604 5.85873 8.07393 5.69028 7.96914V4.79452L12.1928 4.25255C12.3471 4.23959 12.4626 4.10382 12.4497 3.94833C12.4367 3.7934 12.2987 3.67678 12.1454 3.69143Z" fill="#FFCC4D"/>
</svg>
