<svg width="24" height="24" viewBox="0 0 24 24" fill="none" xmlns="http://www.w3.org/2000/svg">
<path d="M18.6667 16.4444C18.6667 17.6717 17.6717 18.6667 16.4444 18.6667H4.22222C2.995 18.6667 2 17.6717 2 16.4444V4.22222C2 2.995 2.995 2 4.22222 2H16.4444C17.6717 2 18.6667 2.995 18.6667 4.22222V16.4444Z" fill="#D99E82"/>
<path d="M17.5555 16.4444C17.5555 17.0577 17.0577 17.5555 16.4444 17.5555H4.2222C3.60886 17.5555 3.11108 17.0577 3.11108 16.4444V4.2222C3.11108 3.60831 3.60886 3.11108 4.2222 3.11108H16.4444C17.0577 3.11108 17.5555 3.60831 17.5555 4.2222V16.4444Z" fill="#5C913B"/>
<path d="M6.17491 6.9433C6.13046 6.99664 6.07268 7.07664 6.07268 7.16997C6.07268 7.37441 6.22379 7.4633 6.41935 7.4633H7.90268C8.07157 7.4633 8.22268 7.37441 8.22268 7.16997C8.22268 6.96553 8.07213 6.87664 7.87602 6.87664H7.06324C7.44046 6.40164 8.12935 5.78886 8.12935 5.17108C8.12935 4.60719 7.68935 4.24719 7.14324 4.24719C6.59713 4.24719 6.09935 4.69553 6.09935 5.25553C6.09935 5.4283 6.21046 5.57941 6.42379 5.57941C6.85046 5.57941 6.60602 4.85997 7.11657 4.85997C7.29879 4.85997 7.43657 5.01997 7.43657 5.20219C7.43657 5.36219 7.36102 5.49997 7.28102 5.61553C6.94324 6.10386 6.54379 6.50386 6.17491 6.9433ZM5.44879 9.96164H4.80491V9.31719C4.80491 9.15719 4.70268 9.05108 4.53824 9.05108C4.37435 9.05108 4.27213 9.15775 4.27213 9.31719V9.96164H3.62824C3.46379 9.96164 3.36157 10.0683 3.36157 10.2277C3.36157 10.3877 3.46379 10.4944 3.62824 10.4944H4.27213V11.1383C4.27213 11.2983 4.37435 11.4044 4.53824 11.4044C4.70268 11.4044 4.80491 11.2983 4.80491 11.1383V10.4944H5.44879C5.61324 10.4944 5.71546 10.3877 5.71546 10.2277C5.71546 10.0683 5.61324 9.96164 5.44879 9.96164ZM7.87602 10.7655H7.06268C7.44046 10.2905 8.12879 9.67775 8.12879 9.05997C8.12879 8.49608 7.68879 8.13608 7.14268 8.13608C6.59657 8.13608 6.09879 8.58497 6.09879 9.14441C6.09879 9.31719 6.20991 9.4683 6.42268 9.4683C6.84935 9.4683 6.60491 8.74886 7.11602 8.74886C7.29824 8.74886 7.43602 8.90886 7.43602 9.09108C7.43602 9.25108 7.36046 9.38886 7.28046 9.50441C6.94268 9.99275 6.54324 10.3927 6.17435 10.8327C6.12991 10.8861 6.07213 10.9661 6.07213 11.0594C6.07213 11.2639 6.22324 11.3527 6.41879 11.3527H7.90213C8.07102 11.3527 8.22213 11.2639 8.22213 11.0594C8.22213 10.8544 8.07157 10.7655 7.87602 10.7655ZM8.34268 12.5389H3.71268C3.55935 12.5389 3.43491 12.4144 3.43491 12.2611C3.43491 12.1077 3.55935 11.9833 3.71268 11.9833H8.34213C8.49546 11.9833 8.61991 12.1077 8.61991 12.2611C8.62046 12.4144 8.49602 12.5389 8.34268 12.5389Z" fill="white"/>
<path d="M21.4444 22V20.0556C21.4444 18.2144 19.3972 17 17.5556 17H10.8889C9.04833 17 7 18.2144 7 20.0556V22H21.4444Z" fill="#9266CC"/>
<path d="M14.191 4.81616C16.4721 4.81616 20.2732 5.95672 20.2732 10.8984C20.2732 15.8401 20.2732 16.9806 19.1327 16.9806C17.9916 16.9806 16.4716 15.8401 14.1905 15.8401C11.9099 15.8401 10.4216 16.9806 9.2488 16.9806C7.97824 16.9806 8.10824 12.4189 8.10824 10.8984C8.10935 5.95672 11.9105 4.81616 14.191 4.81616ZM11.4444 17.0001H16.9305C16.9305 17.0001 16.2327 18.9445 14.1871 18.9445C12.1416 18.9445 11.4444 17.0001 11.4444 17.0001Z" fill="#292F33"/>
<path d="M12.1821 17.0111C12.1821 17.8334 13.3888 18.3889 14.2221 18.3889C15.0555 18.3889 16.2555 17.8334 16.2555 17.0111V15.2306H12.1821V17.0111Z" fill="#F7DECE"/>
<path d="M12.1782 15.9883C12.7466 16.63 13.451 16.8038 14.2166 16.8038C14.9827 16.8038 15.6871 16.6305 16.2554 15.9883V14.3572H12.1782V15.9883Z" fill="#EEC2AD"/>
<path d="M9.62988 10.7316C9.62988 7.4905 11.6721 4.86328 14.191 4.86328C16.7099 4.86328 18.7527 7.4905 18.7527 10.7316C18.7527 13.9722 16.7099 16.4461 14.191 16.4461C11.6721 16.4461 9.62988 13.9727 9.62988 10.7316Z" fill="#F7DECE"/>
<path d="M14.1912 15.0794C13.2995 15.0794 12.8323 14.6383 12.7823 14.5878C12.6334 14.4394 12.6334 14.1989 12.7823 14.0505C12.9301 13.9033 13.1668 13.9022 13.3157 14.0466C13.3351 14.0644 13.6229 14.3194 14.1912 14.3194C14.7684 14.3194 15.0562 14.0566 15.0673 14.0461C15.219 13.9039 15.4579 13.9083 15.6023 14.0572C15.7468 14.2066 15.7468 14.4411 15.6001 14.5878C15.5507 14.6383 15.084 15.0794 14.1912 15.0794Z" fill="#DF1F32"/>
<path d="M8.51394 12.5556C8.50227 12 8.48949 12.4311 8.48949 12.2972C8.48949 10.3961 9.63005 12.5717 9.63005 11.2178C9.63005 9.86277 10.39 9.72722 11.15 8.96722C11.5306 8.58666 12.2906 7.84166 12.2906 7.84166C12.2906 7.84166 14.1912 8.98999 15.7117 8.98999C17.2317 8.98999 18.7528 9.75388 18.7528 11.2744C18.7528 12.795 19.8934 10.3944 19.8934 12.295C19.8934 12.4306 19.8812 12 19.8712 12.5556H20.27C20.2739 11.4444 20.2739 11.4867 20.2739 10.7767C20.2739 5.835 16.4723 3.995 14.1917 3.995C11.9112 3.995 8.11005 5.80444 8.11005 10.7461C8.11005 11.1867 8.09893 11.4444 8.11449 12.5556H8.51394Z" fill="#292F33"/>
<path d="M12.3377 11.9367C12.0793 11.9367 11.8677 11.725 11.8677 11.4667V10.9972C11.8677 10.7389 12.0793 10.5272 12.3377 10.5272C12.596 10.5272 12.8082 10.7389 12.8082 10.9972V11.4667C12.8082 11.725 12.596 11.9367 12.3377 11.9367ZM16.096 11.9367C15.8377 11.9367 15.626 11.725 15.626 11.4667V10.9972C15.626 10.7389 15.8377 10.5272 16.096 10.5272C16.3543 10.5272 16.566 10.7389 16.566 10.9972V11.4667C16.566 11.725 16.3543 11.9367 16.096 11.9367Z" fill="#662113"/>
<path d="M14.6871 13.3889H13.7477C13.6183 13.3889 13.5127 13.2834 13.5127 13.1539V13.0689C13.5127 12.9395 13.6177 12.8334 13.7477 12.8334H14.6871C14.816 12.8334 14.9221 12.9389 14.9221 13.0689V13.1539C14.9221 13.2834 14.816 13.3889 14.6871 13.3889Z" fill="#C1694F"/>
<path d="M10.5799 10.8533C10.5799 11.6578 10.1721 12.31 9.66934 12.31C9.16657 12.31 8.75879 11.6578 8.75879 10.8533C8.75879 10.0489 9.16657 9.39612 9.66934 9.39612C10.1721 9.39556 10.5799 10.0483 10.5799 10.8533ZM19.6849 10.8533C19.6849 11.6578 19.2777 12.31 18.7743 12.31C18.2716 12.31 17.8638 11.6578 17.8638 10.8533C17.8638 10.0489 18.271 9.39612 18.7743 9.39612C19.2777 9.39556 19.6849 10.0483 19.6849 10.8533Z" fill="#F7DECE"/>
<path d="M14.2222 18.79C14.2222 18.79 16.1006 20.1755 16.4967 20.3327C16.5834 20.3672 16.2928 18.3016 16.2928 18.3016H12.1522C12.1522 18.3016 11.8617 20.4022 12.0223 20.3155C12.3778 20.1255 14.2222 18.79 14.2222 18.79Z" fill="#744EAA"/>
<path d="M11.606 16.3983C11.9193 16.7128 14.2221 18.2778 14.2221 18.2778C14.2221 18.2778 13.0416 18.9678 11.9521 20.2416C11.8438 20.3694 11.0949 17.6722 11.0721 17.07C11.0654 16.9016 11.4554 16.2478 11.606 16.3983ZM16.8499 16.3983C16.5354 16.7128 14.2338 18.2778 14.2338 18.2778C14.2338 18.2778 15.4143 18.9678 16.5027 20.2416C16.611 20.3694 17.3588 17.6722 17.3816 17.07C17.3882 16.9016 16.9999 16.2478 16.8499 16.3983Z" fill="#CBB7EA"/>
<path d="M13.6667 18.6666H14.7779V22H13.6667V18.6666Z" fill="#744EAA"/>
<path d="M14.2223 21.7222C14.5291 21.7222 14.7779 21.4735 14.7779 21.1666C14.7779 20.8598 14.5291 20.6111 14.2223 20.6111C13.9155 20.6111 13.6667 20.8598 13.6667 21.1666C13.6667 21.4735 13.9155 21.7222 14.2223 21.7222Z" fill="#CBB7EA"/>
<path d="M14.2223 20.0556C14.5291 20.0556 14.7779 19.8068 14.7779 19.5C14.7779 19.1932 14.5291 18.9445 14.2223 18.9445C13.9155 18.9445 13.6667 19.1932 13.6667 19.5C13.6667 19.8068 13.9155 20.0556 14.2223 20.0556Z" fill="#CBB7EA"/>
</svg>
