<svg width="24" height="24" viewBox="0 0 24 24" fill="none" xmlns="http://www.w3.org/2000/svg">
<path d="M20.6919 9.7665C20.6919 9.48856 20.6256 9.22776 20.5145 8.99071C19.7735 6.60033 16.3045 6.77494 11.3702 6.65835C10.5452 6.63901 11.0171 5.66485 11.3066 3.52644C11.4951 2.13565 10.5983 0 9.09087 0C6.60546 0 8.99638 1.96048 6.79885 6.80865C5.62466 9.39905 3 7.94803 3 10.55V16.4729C3 17.4858 3.09946 18.4594 4.52396 18.6196C5.90481 18.7749 5.59427 19.759 7.58625 19.759H17.5566C18.5723 19.759 19.3983 18.9324 19.3983 17.9168C19.3983 17.4957 19.2508 17.1122 19.0126 16.8017C19.5763 16.4862 19.963 15.8905 19.963 15.1998C19.963 14.7799 19.8161 14.3964 19.5785 14.0864C20.1437 13.7715 20.5316 13.1752 20.5316 12.4834C20.5316 11.9812 20.3283 11.5259 20.0006 11.1927C20.4189 10.855 20.6919 10.3445 20.6919 9.7665Z" fill="#F6DDCD"/>
<path d="M14.0965 11.6082H18.8507C19.4972 11.6082 20.1039 11.2623 20.4344 10.7058C20.5703 10.4765 20.4946 10.1798 20.2647 10.0433C20.0354 9.90684 19.7387 9.98364 19.6022 10.213C19.4458 10.4776 19.1569 10.6412 18.8502 10.6412H13.9821C13.4997 10.6412 13.1074 10.2489 13.1074 9.76649C13.1074 9.2841 13.4997 8.89179 13.9821 8.89179H17.2351C17.5019 8.89179 17.7185 8.67518 17.7185 8.40829C17.7185 8.14141 17.5019 7.9248 17.2351 7.9248H13.9816C12.966 7.9248 12.1399 8.75088 12.1399 9.76649C12.1399 10.3329 12.4024 10.834 12.8057 11.1722C12.4659 11.5065 12.2543 11.9707 12.2543 12.4834C12.2543 13.0515 12.5184 13.5543 12.924 13.8919C12.5864 14.2256 12.3769 14.6881 12.3769 15.1998C12.3769 15.8187 12.6858 16.3646 13.1555 16.6989C12.866 17.0244 12.6847 17.4482 12.6847 17.9168C12.6847 18.9324 13.5108 19.7584 14.5264 19.7584H17.5566C18.2031 19.7584 18.8104 19.4131 19.1408 18.8567C19.2773 18.6273 19.2016 18.3306 18.9723 18.1941C18.7424 18.0588 18.4457 18.1334 18.3098 18.3627C18.1523 18.6273 17.8633 18.7915 17.5566 18.7915H14.5264C14.044 18.7915 13.6517 18.3991 13.6517 17.9168C13.6517 17.4344 14.044 17.042 14.5264 17.042H18.1214C18.7679 17.042 19.3757 16.6961 19.7055 16.1397C19.842 15.9099 19.7663 15.6131 19.537 15.4772C19.3055 15.3385 19.0099 15.4164 18.8745 15.6457C18.7148 15.9148 18.433 16.0751 18.1214 16.0751H14.2186C13.7362 16.0751 13.3439 15.6822 13.3439 15.1998C13.3439 14.7174 13.7362 14.3251 14.2186 14.3251H18.6894C19.3359 14.3251 19.9431 13.9798 20.2736 13.4233C20.4101 13.194 20.3344 12.8973 20.105 12.7608C19.8746 12.6249 19.5785 12.7 19.4425 12.9293C19.2828 13.1979 19.001 13.3581 18.6894 13.3581H14.0965C13.6141 13.3581 13.2218 12.9658 13.2218 12.4834C13.2218 12.001 13.6136 11.6082 14.0965 11.6082Z" fill="#DFA994"/>
</svg>
