<svg width="24" height="24" viewBox="0 0 24 24" fill="none" xmlns="http://www.w3.org/2000/svg">
<path d="M4.75892 14.2574C4.71469 14.7803 4.94097 14.9368 5.29541 15.1852C5.64588 15.4307 7.78105 13.5593 8.47916 13.2746C9.17727 12.9899 15.7308 11.6022 15.4467 10.3353C15.1625 9.06834 13.1822 8.88119 11.6567 9.13979C10.1311 9.39839 7.21167 10.7402 6.35874 11.4644C5.50581 12.188 4.75892 14.2574 4.75892 14.2574ZM9.64854 15.1063C9.64854 15.1063 7.63133 15.7614 7.63133 17.4627C7.63133 19.164 8.12245 20.1236 8.35496 20.5892C8.58804 21.0542 9.31224 21.5056 10.3143 21.0718C11.478 20.5676 10.0359 17.6668 13.717 18.9984C15.4036 19.6081 17.1531 20.4321 18.8544 19.865C20.4684 19.3268 21.09 17.2965 21.09 16.1623C21.09 13.8406 19.3886 14.461 18.8215 15.0281C18.2544 15.5952 13.7175 16.7294 13.1504 16.7294C12.5833 16.7294 9.64854 15.1063 9.64854 15.1063Z" fill="#E0AA94"/>
<path d="M12.1931 17.9702C12.1931 17.9702 12.1251 17.2238 11.4133 17.1371C10.8286 17.0662 9.9071 17.2613 9.42846 18.218C8.94982 19.1753 8.09915 19.0153 8.13488 19.8127C8.17004 20.6101 8.41843 21.2305 8.93223 21.3898C9.4466 21.5497 10.1731 21.2662 10.2615 20.4155C10.35 19.5649 10.4566 18.7851 11.0056 18.4482C11.5557 18.1119 12.1931 17.9702 12.1931 17.9702Z" fill="#EEC2AD"/>
<path d="M11.4489 16.7293C11.4489 16.7293 10.8818 16.1622 9.74756 16.1622C8.61334 16.1622 5.96835 17.3719 6.77024 19.7776C7.33735 21.4789 8.95021 20.6815 9.18045 18.9978C9.41127 17.3118 11.4489 16.7293 11.4489 16.7293Z" fill="#E0AA94"/>
<path d="M10.8818 16.7293C10.8818 16.7293 10.3147 16.1622 9.18044 16.1622C8.04622 16.1622 6.41011 17.0299 6.34489 19.5649C6.29158 21.6382 8.63091 20.6991 8.61333 18.9978C8.59575 17.2964 10.8818 16.7293 10.8818 16.7293Z" fill="#EEC2AD"/>
<path d="M4.07666 17.2965C4.07666 19.1662 4.33583 20.2942 5.4536 20.102C7.30748 19.7833 6.6037 17.4853 8.2262 16.8388C9.40408 16.3698 11.119 16.4815 12.7744 17.4643C13.865 18.112 13.1504 15.5952 12.0162 15.028C10.882 14.4609 7.47931 15.028 6.91221 15.028C6.3451 15.028 4.07666 17.2965 4.07666 17.2965Z" fill="#E0AA94"/>
<path d="M3.98712 17.3952C3.08485 18.9066 3.63381 20.469 5.21094 20.1321C6.73703 19.8066 5.97257 17.824 7.47938 16.7294C8.3238 16.1158 10.1437 15.91 11.2779 16.4771C12.4121 17.0442 12.5834 15.5952 11.4491 15.0281C10.3149 14.461 6.60603 15.0139 6.04005 15.0491C4.95744 15.1166 3.98712 17.3952 3.98712 17.3952Z" fill="#EEC2AD"/>
<path d="M6.58216 18.4954C6.1971 18.9366 5.52734 18.9825 5.08556 18.5974L4.97441 18.5005C4.53263 18.1154 4.48726 17.4462 4.87233 17.0044L17.6453 2.36338C18.0304 1.92217 18.7001 1.87623 19.1419 2.2613L19.2525 2.35827C19.6943 2.74334 19.7397 3.4131 19.3552 3.85431L6.58216 18.4954Z" fill="#3B88C3"/>
<path d="M7.19007 17.7989C5.85169 19.3329 2.47569 22.3409 2.04809 21.9683C1.62106 21.5957 4.14242 17.8426 5.4808 16.308C6.81918 14.7734 6.42277 16.0006 6.8946 16.4129C7.36644 16.8246 8.52844 16.2655 7.19007 17.7989Z" fill="#3B88C3"/>
<path d="M5.0249 16.177C5.0249 16.7441 6.39787 17.263 6.96498 16.6959C7.53209 16.1288 8.85969 15.4324 10.6053 16.1623C14.6907 17.8693 13.1504 15.5952 11.4491 15.028C9.74779 14.4609 6.91224 15.028 6.34513 15.028C5.77802 15.028 5.0249 16.177 5.0249 16.177Z" fill="#E0AA94"/>
<path d="M4.75433 14.4854C4.5513 13.8542 5.99516 10.3574 6.64904 9.81579C7.47248 9.13412 10.6579 8.07874 11.7922 8.07874C12.9264 8.07874 21.0899 12.1925 21.0899 15.0281C21.0899 17.8636 19.9557 18.2181 18.3252 18.661C17.0215 19.0154 14.2903 18.7982 13.0971 17.6861C12.0513 16.7118 11.3249 16.0381 10.3148 15.5952C8.44224 14.774 7.19403 15.8357 6.62692 16.4028C5.4927 17.537 3.35584 16.3126 5.13826 14.3725C6.41369 12.9837 7.53713 12.551 8.61351 12.1925C12.0162 11.0583 14.2846 11.0583 13.1504 9.92411C12.7494 9.52316 12.5311 10.1203 11.9731 10.2218C10.8502 10.426 9.95642 10.5632 8.47683 11.0566C7.9653 11.2268 5.54374 12.771 4.75433 14.4854Z" fill="#F7DECE"/>
<path d="M8.72476 11.2143C9.32816 10.9942 11.9584 10.5156 13.3269 10.0415C14.4321 9.65813 15.4019 10.4022 13.3042 11.1916C11.2796 11.9532 9.17618 11.8908 7.64215 12.4999C7.062 12.7302 6.55897 12.0037 8.72476 11.2143Z" fill="#E0AA94"/>
<path d="M13.9937 6.53442C13.9937 6.53442 10.6318 10.3879 9.20386 12.0133C10.4821 11.4881 11.626 11.5879 12.7188 10.9448C13.8116 10.3023 14.3101 9.61666 15.9683 7.71514C16.5842 7.00966 13.9937 6.53442 13.9937 6.53442Z" fill="#3B88C3"/>
</svg>
