<svg width="24" height="24" viewBox="0 0 24 24" fill="none" xmlns="http://www.w3.org/2000/svg">
<path fill-rule="evenodd" clip-rule="evenodd" d="M4.9287 19.071C4.53817 18.6805 4.61732 17.9682 5.10547 17.48L17.4798 5.10564C17.968 4.61749 18.6803 4.53834 19.0708 4.92887C19.4614 5.31939 19.3822 6.0317 18.8941 6.51986L6.51969 18.8942C6.03153 19.3824 5.31922 19.4615 4.9287 19.071Z" fill="black"/>
<path fill-rule="evenodd" clip-rule="evenodd" d="M18.849 19.071C19.2395 18.6805 19.1603 17.9682 18.6722 17.48L6.29781 5.10564C5.80966 4.61749 5.09735 4.53834 4.70682 4.92887C4.3163 5.31939 4.39544 6.0317 4.8836 6.51986L17.258 18.8942C17.7461 19.3824 18.4584 19.4615 18.849 19.071Z" fill="black"/>
</svg>
